<svg width="74" height="92" viewBox="0 0 74 92" fill="none" xmlns="http://www.w3.org/2000/svg">
<path d="M35.6682 22.6761H61.5543V9.60057H67.9642V23.1695C69.5834 24.3555 71.5842 27.7036 67.4712 30.324H50.4603V92.0008H42.3247V63.8762H37.887V92.0008H29.5049V28.8438C29.679 26.6109 31.6169 23.2213 35.6682 22.6761Z" fill="white"/>
<path d="M74.0003 11.2708L71.5986 16.7728L68.8473 22.4355L71.5986 10.5307L74.0003 11.2708Z" fill="white"/>
<path d="M70.9944 9.9826L68.4179 22.0061L68.7038 9.84728L70.9944 9.9826Z" fill="white"/>
<path d="M48.4881 9.60057C48.4881 14.3694 44.6249 18.2353 39.8594 18.2353C35.0939 18.2353 31.2307 14.3694 31.2307 9.60057C31.2307 4.83173 35.0939 0.96582 39.8594 0.96582C44.6249 0.96582 48.4881 4.83173 48.4881 9.60057Z" fill="white"/>
<path d="M4.00586 23.7236H5.27332C6.11146 23.7236 6.91527 24.0566 7.50793 24.6492V24.6492C7.74811 24.8894 7.94799 25.1667 8.0999 25.4706L8.39284 26.0564C8.61415 26.4991 8.72937 26.9871 8.72937 27.482V27.6223C8.72937 28.1602 8.57018 28.6859 8.27185 29.1334V29.1334C8.00887 29.5279 7.64751 29.8469 7.22348 30.0589L6.15291 30.5942V30.5942C5.62184 30.8597 4.9892 30.8203 4.49516 30.491L4.00586 30.1648" stroke="white" stroke-width="2"/>
<path d="M18.7197 35.9804C18.8486 35.4434 18.5178 34.9036 17.9807 34.7747C17.4437 34.6458 16.9039 34.9767 16.775 35.5137L18.7197 35.9804ZM16.775 35.5137L14.1985 46.249L16.1433 46.7157L18.7197 35.9804L16.775 35.5137Z" fill="white"/>
<path d="M15.1709 46.4819H6.15332" stroke="white" stroke-width="2" stroke-linecap="round"/>
<path d="M8.72894 46.4819L8.3436 50.1426M7.87012 54.6407L8.3436 50.1426M14.3113 46.4819L15.0819 50.1426M16.0289 54.6407L15.0819 50.1426M8.3436 50.1426H15.0819" stroke="white" stroke-linecap="round"/>
<path d="M22.4705 23.7345L5 23.7345C2.79086 23.7345 1 25.5253 1 27.7345V57.6469" stroke="white" stroke-width="2"/>
<path d="M22.0407 23.7236V23.7236C26.3762 23.8269 26.8502 30.0991 22.5795 30.8527L21.6113 31.0236" stroke="white" stroke-width="2"/>
<path d="M1 56.0303V59.7939H22.4705V31.0234" stroke="white" stroke-width="2"/>
<path d="M22.4702 31.0234H5.82528C4.98559 31.0234 4.2305 30.5122 3.91865 29.7325L3.87631 29.6267C3.6854 29.1494 3.7077 28.6133 3.93759 28.1535V28.1535C4.24243 27.5438 4.86557 27.1587 5.54722 27.1587H7.44086H8.29968" stroke="white" stroke-width="2"/>
</svg>
