<svg width="69" height="73" viewBox="0 0 69 73" fill="none" xmlns="http://www.w3.org/2000/svg">
<path d="M68.1269 28.9885C68.1269 28.6277 68.0134 28.3871 67.7862 28.1466L59.7246 19.6076C59.5238 19.3949 59.3226 19.2767 59.0433 19.252V9.69117C59.0548 9.55319 59.04 9.41832 59.0015 9.28936C58.9579 9.12728 58.8793 8.98888 58.7656 8.8547C58.7455 8.83046 58.7246 8.80678 58.7027 8.78353L50.7547 0.364856C50.7327 0.341601 50.7102 0.319474 50.6873 0.298192C50.5607 0.17783 50.43 0.0945359 50.2771 0.0483081C50.1554 0.0075769 50.028 -0.00820819 49.8978 0.00405345H14.7614C14.0801 0.00405345 13.626 0.485076 13.626 1.20668V70.9617C13.626 71.6834 14.0801 72.1644 14.7614 72.1644H27.2512H57.9081C58.5893 72.1644 59.0435 71.6834 59.0435 70.9617V39.0644L67.7864 29.8303C68.0134 29.5898 68.1269 29.3493 68.1269 28.9885ZM26.1157 44.503V27.6655H44.2827V34.2801L40.1359 38.7248L38.6056 40.3506V38.4895C38.6056 37.7679 38.1514 37.2869 37.4702 37.2869H31.7929C31.1117 37.2869 30.6575 37.7679 30.6575 38.4895V44.503H26.1157ZM26.1157 19.2468V14.4361H28.3866V17.082L26.1157 19.2468ZM45.4182 25.2602H24.9803H24.2991L35.1993 13.7145L46.0995 25.2602H45.4182ZM32.9283 39.6923H36.3347V42.6989L35.4489 43.7043L34.697 44.503H32.9283V39.6923ZM55.1829 8.42273H51.0953V4.0931L55.1829 8.42273ZM15.8968 2.40931H48.8245V9.62535C48.8245 10.347 49.2786 10.828 49.9599 10.828H56.7725V21.0507L46.5536 31.9069V27.6653H48.8245C49.2786 27.6653 49.7329 27.4247 49.8464 26.9437C50.0735 26.4627 49.9599 25.9815 49.6193 25.6207L35.994 11.1886C35.5399 10.7076 34.8586 10.7076 34.4044 11.1886L30.6574 15.1575V13.2334C30.6574 12.5118 30.2033 12.0307 29.522 12.0307H24.9803C24.2991 12.0307 23.8449 12.5118 23.8449 13.2334V21.6521C23.8449 21.8745 23.8883 22.0737 23.968 22.2433L20.7792 25.6209C20.4386 25.9817 20.3251 26.4627 20.5521 26.9439C20.6656 27.4249 21.1199 27.6655 21.574 27.6655H23.8449V45.7056C23.8449 46.4272 24.2991 46.9082 24.9803 46.9082H31.7929H32.4328L26.32 53.4022C26.2067 53.4611 26.0991 53.5405 26.0021 53.6431C25.9043 53.7467 25.8288 53.862 25.7731 53.983L22.3684 57.6001C22.2469 57.6597 22.1314 57.743 22.028 57.8525C21.9237 57.963 21.8445 58.0865 21.7881 58.2165L18.5082 61.7011C18.0541 62.1821 18.0541 62.9037 18.5082 63.3849L24.5261 69.7591H15.8968V2.40931ZM56.7725 41.4963V69.7591H29.9817L33.978 65.5383L56.7725 41.4963ZM27.2511 69.2781L20.8926 62.5431L22.8766 60.4352L25.2073 62.9039C25.4344 63.1445 25.6614 63.2647 26.0021 63.2647C26.3427 63.2647 26.5698 63.2647 26.7968 62.9039C27.251 62.4229 27.251 61.7013 26.7968 61.2201L24.4639 58.749L26.8547 56.2092L30.8845 60.3783C31.1117 60.6188 31.3387 60.7391 31.6793 60.7391C31.9064 60.7391 32.2471 60.6188 32.3606 60.3783C32.8147 59.8972 32.8147 59.1756 32.3606 58.6945L28.432 54.5333L30.8695 51.9437L33.2688 54.4851C33.496 54.7256 33.723 54.8459 34.0636 54.8459C34.4042 54.8459 34.6314 54.7256 34.8584 54.4851C35.3125 54.004 35.3125 53.2824 34.8584 52.8013L32.4566 50.2573L34.8942 47.6677L38.9458 51.9593C39.1729 52.1999 39.3999 52.3201 39.7406 52.3201C39.9677 52.3201 40.3083 52.1999 40.4218 51.8391C40.876 51.3581 40.876 50.6365 40.4218 50.1553L36.5046 46.0061L38.9458 43.4203L41.3302 45.9459C41.5574 46.1865 41.7844 46.3067 42.125 46.3067C42.3521 46.3067 42.6928 46.1865 42.9197 45.9459C43.3739 45.4649 43.3739 44.7433 42.9197 44.2621L40.5353 41.7365L42.9197 39.2109L46.8938 43.4203C47.121 43.6609 47.348 43.7811 47.6886 43.7811C48.0292 43.7811 48.2564 43.6609 48.4834 43.4203C48.9375 42.9392 48.9375 42.2176 48.4834 41.7365L44.5093 37.5271L46.2124 35.7231C46.3116 35.6181 46.3877 35.5124 46.4436 35.3973L46.9683 34.8399L49.3917 37.4069C49.6189 37.6474 49.8459 37.7677 50.1865 37.7677C50.4136 37.7677 50.7543 37.6474 50.9813 37.4069C51.4354 36.9258 51.4354 36.2042 50.9813 35.7231L48.5556 33.1538L50.9364 30.6243L54.9554 34.8812C55.1825 35.1218 55.4095 35.242 55.7501 35.242C56.0907 35.242 56.3179 35.1218 56.5449 34.8812C56.999 34.4002 56.999 33.6786 56.5449 33.1974L52.5237 28.9381L54.9045 26.4087L57.3398 28.9882C57.5669 29.2288 57.7939 29.349 58.1345 29.349C58.4752 29.349 58.7023 29.2288 58.9293 28.9882C59.3834 28.5072 59.3834 27.7855 58.9293 27.3044L56.4918 24.7225L58.9293 22.1329L65.4013 28.9882L27.2511 69.2781Z" fill="white"/>
<path d="M4.54171 0.00439453C2.04379 0.00439453 0 2.16921 0 4.81504V7.22044V12.0311V57.7328V61.3408C0 61.461 0 61.5814 0.113499 61.8218L3.51981 71.4433C3.63331 71.8041 4.08758 72.1649 4.54171 72.1649C4.99584 72.1649 5.4501 71.8041 5.5636 71.4433L8.96992 61.8218C9.08342 61.5812 9.08342 61.461 9.08342 61.3408V57.7328V12.0311V7.22044V4.81504C9.08342 2.16921 7.03963 0.00439453 4.54171 0.00439453ZM2.27079 13.2337H6.8125V56.53H2.27079V13.2337ZM2.27079 8.42307H6.8125V10.8285H2.27079V8.42307ZM4.54171 2.40965C5.79074 2.40965 6.81263 3.49206 6.81263 4.81504V6.01767H2.27079V4.81504C2.27079 3.49206 3.29268 2.40965 4.54171 2.40965ZM6.8125 61.1002L4.54158 67.4744L2.27065 61.1002V58.9354H6.81236L6.8125 61.1002Z" fill="white"/>
</svg>
