<svg width="86" height="75" viewBox="0 0 86 75" fill="none" xmlns="http://www.w3.org/2000/svg">
<path d="M55.3907 27.9873C55.9714 28.03 56.7101 27.4528 56.2219 26.2553L43.6588 13.5537C43.4125 13.4162 42.8048 13.2238 42.345 13.5537L38.8142 17.1002V15.2857C38.869 15.0383 38.765 14.5104 37.911 14.3785H33.8054C33.5317 14.3785 32.9186 14.5599 32.6559 15.2857V23.2036L29.6178 26.4202C29.5581 26.8434 29.4235 27.5201 30.3568 27.9048H32.5738V43.1632C32.5505 43.5549 32.8556 44.1165 33.2307 44.1529H52.2805C52.7617 44.2482 53.2997 44.1242 53.3479 43.4931V27.9873H55.3907ZM55.3907 27.9873H55.4007M1 55.4426V7.11077C2.05103 1.96417 6.30987 0.897465 8.30792 1.00743H79.1701C83.5713 2.19509 84.8905 5.57118 85 7.11077V56.1024C83.4891 61.7109 79.1153 62.4532 77.1173 62.1232H45.9971V68.0616H68.3314L71.2053 71.3607V74H15.0411V71.3607L17.915 68.0616H39.9208V62.1232H7.24047C2.24809 60.0778 1 56.8172 1 55.4426ZM3.95602 48.217V9.04021C5.07274 5.87308 7.54156 5.46619 8.63637 5.65864H78.5132C81.7701 6.1466 82.1374 8.98973 82.2082 10.4424V47.7222C81.7099 51.4364 78.3878 52.0863 76.4604 51.9285H7.97948C5.12253 51.4691 4.06091 49.48 3.95602 48.217ZM33.0236 25.6608L42.877 15.681L52.8946 25.6608H33.0236ZM34.6659 41.6614V27.7227H51.1703V41.6614H34.6659Z" stroke="white" stroke-width="1.76222"/>
</svg>
