<svg width="87" height="86" viewBox="0 0 87 86" fill="none" xmlns="http://www.w3.org/2000/svg">
<path d="M17.5332 9.78323L0 0.712371L0.0443878 47.0165C1.05051 47.8872 3.34684 48.8402 4.48316 45.6867L17.5332 15.2447C18.2434 13.9783 19.2377 11.113 17.5332 9.78323Z" fill="white"/>
<path d="M20.9954 16.622L18.8204 21.6561H28.7633C28.2978 22.5025 26.6806 24.2947 25.9668 28.7323C25.6955 30.2556 26.3276 34.6004 24.1469 38.0881C24.3859 38.9514 22.5447 41.2562 29.0296 42.8847C31.7072 42.7514 38.0711 40.3694 38.8393 31.7717C39.8311 30.1233 42.0361 26.7954 47.051 28.9698L75.1485 56.6098C75.8883 58.826 75.9031 63.401 70.7097 62.5937L51.2679 47.064C50.1071 46.8549 48.2167 46.705 48.9597 49.866L67.9452 65.3928C68.8778 66.6547 68.5981 71.5317 64.2735 70.0973L47.3617 56.7997C46.2447 56.714 44.3492 56.9738 45.3643 59.7917L60.0566 71.6645C61.1219 73.5642 60.5449 77.8384 56.7275 76.7936L43.1449 66.203C41.8815 66.1296 40.1603 66.3284 40.8811 68.7676L49.8918 76.4612C49.872 76.5892 50.0882 77.4478 49.226 78.6933C48.6256 79.3273 47.5639 79.8146 45.8526 79.0732L43.4556 77.0311C43.3047 76.2686 42.4027 74.8476 40.4816 74.704L37.9071 72.4719C37.7933 71.4577 37.7181 69.5355 35.6878 68.0552C35.0757 67.6171 33.8854 67.0276 31.9592 67.4853C31.7369 67.2077 31.5064 66.4074 30.5388 66.2505C30.7163 64.6358 30.0949 62.6727 28.9852 61.6438C28.0572 60.7835 26.3663 59.8867 24.3689 60.3141C24.3169 60.1216 24.1576 59.5648 23.4367 59.0793C23.5516 57.553 24.0649 54.9929 21.7056 52.763C20.7586 52.0778 19.4555 51.4132 16.8673 52.1456L10.2536 42.8847L8.43367 47.3014L13.9378 55.2325L9.85408 61.5489C9.6694 63.3908 8.53549 66.0033 12.0735 68.6726C13.1943 69.1829 15.304 70.421 18.5097 67.2953C17.6589 69.2653 16.6264 72.7575 20.2408 75.1789C21.6508 75.9358 23.2917 76.7778 26.5439 73.9916C25.9251 75.7414 24.4137 78.035 27.3872 80.8779C29.0012 82.1806 31.5225 83.7608 35.0663 78.7408C34.354 79.9231 33.3325 82.6202 36.2204 85.1046C36.6199 85.4845 39.8377 88.1339 43.5444 82.0177C45.3289 83.5161 50.2542 85.2283 53.1321 79.0732C55.8994 81.8202 62.97 82.838 64.2735 74.419L64.278 74.4191C66.4615 74.4615 71.8438 74.5661 72.0857 66.6779C76.2545 66.6269 82.2815 61.9382 77.1015 53.0954L79.2765 47.5389L65.8714 16.812C64.1579 16.8023 58.8492 16.5719 52.0224 13.7725C48.649 13.1076 42.3082 12.2519 35.9985 16.622H20.9954Z" fill="white"/>
<path d="M87 46.7315V0L69.1561 9.87821C68.7006 10.4122 67.2066 11.0697 68.7122 14.0575L82.7832 46.1616C82.9913 46.7631 84.6474 48.4098 87 46.7315Z" fill="white"/>
</svg>
