<svg width="88" height="88" viewBox="0 0 88 88" fill="none" xmlns="http://www.w3.org/2000/svg">
<path d="M3 77.378V84.9998C3 85.2759 3.22386 85.4998 3.5 85.4998H8.05699C8.33314 85.4998 8.55699 85.2759 8.55699 84.9998V80.4428C8.55699 80.1666 8.78085 79.9428 9.05699 79.9428H53.3679C53.644 79.9428 53.8679 80.1666 53.8679 80.4428V84.9998C53.8679 85.2759 54.0917 85.4998 54.3679 85.4998H58.9249C59.201 85.4998 59.4249 85.2759 59.4249 84.9998V79.9428M3 71.3936H59.4249" stroke="white" stroke-width="3.5"/>
<path d="M79.2742 35.4868H72.3228C72.2786 35.4868 72.2397 35.5158 72.227 35.5581L69.7222 43.9073C69.703 43.9715 69.751 44.036 69.818 44.036H81.522C81.5878 44.036 81.6357 43.9736 81.6186 43.91L79.3707 35.5608C79.359 35.5172 79.3194 35.4868 79.2742 35.4868Z" stroke="white" stroke-width="2"/>
<path d="M75.668 44.0361V50.8755" stroke="white" stroke-width="2"/>
<path d="M71.3936 51.7305H79.9428" stroke="white" stroke-width="2"/>
<path d="M65.4092 78.2333V62.8447" stroke="white" stroke-width="3.5"/>
<path d="M85.0723 78.2333V62.8447" stroke="white" stroke-width="3.5"/>
<path d="M65.4092 64.3832V56.9599C65.4092 56.9046 65.454 56.8599 65.5092 56.8599H84.9724C85.0276 56.8599 85.0724 56.9046 85.0724 56.9599V66.264" stroke="white" stroke-width="3.5"/>
<path d="M72.6763 62.417H78.2333M65.8369 68.4014H84.6452" stroke="white" stroke-width="2"/>
<path d="M40.6162 21.3807L43.6084 24.3729L53.0126 14.9688" stroke="white" stroke-width="5" stroke-linecap="round" stroke-linejoin="round"/>
<path d="M3 38.0518V21.3808L44.0363 3L85.0725 21.3808V38.0518" stroke="white" stroke-width="5" stroke-linecap="round" stroke-linejoin="round"/>
<path d="M47.4752 12.9978C45.3547 12.2434 43.0451 12.2072 40.9021 12.8948C38.7591 13.5824 36.9017 14.9556 35.616 16.8029C34.3303 18.6501 33.6878 20.8689 33.7874 23.1173C33.887 25.3657 34.7232 27.519 36.1671 29.2453C37.611 30.9717 39.5826 32.1753 41.778 32.6708C43.9734 33.1662 46.2708 32.926 48.3162 31.9871C50.3617 31.0482 52.0416 29.4627 53.0971 27.475C54.1527 25.4873 54.5253 23.2076 54.1576 20.9872L51.0857 21.496C51.3418 23.0424 51.0823 24.6302 50.3471 26.0146C49.6119 27.399 48.4419 28.5033 47.0173 29.1572C45.5927 29.8112 43.9925 29.9785 42.4635 29.6334C40.9344 29.2883 39.5612 28.45 38.5555 27.2476C37.5498 26.0453 36.9674 24.5455 36.8981 22.9795C36.8287 21.4135 37.2762 19.8682 38.1717 18.5816C39.0671 17.295 40.3608 16.3386 41.8534 15.8597C43.346 15.3808 44.9546 15.406 46.4315 15.9314L47.4752 12.9978Z" fill="white"/>
<path d="M8.12988 41.7617C8.12988 40.6571 9.02531 39.7617 10.1299 39.7617H52.2957C53.4003 39.7617 54.2957 40.6571 54.2957 41.7617V56.0052H8.12988V41.7617Z" stroke="white" stroke-width="4" stroke-linejoin="round"/>
<path d="M3 78.4387V63.8599C3 59.9939 6.13401 56.8599 10 56.8599H52.4249C56.2909 56.8599 59.4249 59.9939 59.4249 63.8599V81.6526" stroke="white" stroke-width="3.5"/>
<path d="M14.1143 56.8602V50.4561C14.1143 48.7992 15.4574 47.4561 17.1143 47.4561H25.6479C27.3048 47.4561 28.6479 48.7992 28.6479 50.4561V56.8602" stroke="white" stroke-width="4"/>
<path d="M33.7773 56.8602V50.4561C33.7773 48.7992 35.1205 47.4561 36.7773 47.4561H45.311C46.9679 47.4561 48.311 48.7992 48.311 50.4561V56.8602" stroke="white" stroke-width="4"/>
</svg>
