<svg width="24" height="24" viewBox="0 0 24 24" fill="none" xmlns="http://www.w3.org/2000/svg">
<g clip-path="url(#clip0_50_2)">
<path d="M6.08588 23.9151C5.15758 23.9047 4.23801 23.7344 3.36753 23.4118C2.73187 23.1768 2.15676 22.8027 1.68424 22.3169C1.19712 21.8454 0.822514 21.2701 0.588235 20.6339C0.265824 19.7634 0.0958076 18.8439 0.0856471 17.9158C0.0143529 16.3727 0 15.9099 0 12C0 8.09012 0.0157647 7.62894 0.0849412 6.08471C0.0963347 5.15689 0.266561 4.23788 0.588235 3.36753C0.823654 2.73176 1.19773 2.15642 1.68329 1.68329C2.15523 1.19662 2.73061 0.822358 3.36682 0.588235C4.2373 0.265557 5.15687 0.0953008 6.08518 0.0849412C7.62871 0.0143529 8.09224 0 12 0C15.9078 0 16.3711 0.0157647 17.9153 0.0849412C18.8434 0.0962542 19.7626 0.266481 20.6332 0.588235C21.2691 0.822667 21.8443 1.1968 22.3165 1.68306C22.8029 2.15535 23.1772 2.73073 23.4118 3.36682C23.7345 4.23729 23.9049 5.15686 23.9153 6.08518C23.9859 7.62941 24.0002 8.09177 24.0002 12.0005C24.0002 15.9092 23.9859 16.3715 23.9153 17.9158C23.9041 18.8439 23.7338 19.7633 23.4118 20.6339C23.1682 21.2652 22.7951 21.8386 22.3166 22.317C21.838 22.7954 21.2646 23.1683 20.6332 23.4118C19.7627 23.7345 18.8431 23.9049 17.9148 23.9153C16.372 23.9859 15.9082 24.0002 11.9995 24.0002C8.09082 24.0002 7.62847 23.9866 6.08565 23.9153" fill="url(#paint0_radial_50_2)"/>
<path d="M6.08588 23.9151C5.15758 23.9047 4.23801 23.7344 3.36753 23.4118C2.73187 23.1768 2.15676 22.8027 1.68424 22.3169C1.19712 21.8454 0.822514 21.2701 0.588235 20.6339C0.265824 19.7634 0.0958076 18.8439 0.0856471 17.9158C0.0143529 16.3727 0 15.9099 0 12C0 8.09012 0.0157647 7.62894 0.0849412 6.08471C0.0963347 5.15689 0.266561 4.23788 0.588235 3.36753C0.823654 2.73176 1.19773 2.15642 1.68329 1.68329C2.15523 1.19662 2.73061 0.822358 3.36682 0.588235C4.2373 0.265557 5.15687 0.0953008 6.08518 0.0849412C7.62871 0.0143529 8.09224 0 12 0C15.9078 0 16.3711 0.0157647 17.9153 0.0849412C18.8434 0.0962542 19.7626 0.266481 20.6332 0.588235C21.2691 0.822667 21.8443 1.1968 22.3165 1.68306C22.8029 2.15535 23.1772 2.73073 23.4118 3.36682C23.7345 4.23729 23.9049 5.15686 23.9153 6.08518C23.9859 7.62941 24.0002 8.09177 24.0002 12.0005C24.0002 15.9092 23.9859 16.3715 23.9153 17.9158C23.9041 18.8439 23.7338 19.7633 23.4118 20.6339C23.1682 21.2652 22.7951 21.8386 22.3166 22.317C21.838 22.7954 21.2646 23.1683 20.6332 23.4118C19.7627 23.7345 18.8431 23.9049 17.9148 23.9153C16.372 23.9859 15.9082 24.0002 11.9995 24.0002C8.09082 24.0002 7.62847 23.9866 6.08565 23.9153" fill="url(#paint1_radial_50_2)"/>
<path d="M9.05385 12.0513C9.05389 11.4635 9.22825 10.8889 9.55487 10.4001C9.88148 9.91141 10.3457 9.53051 10.8888 9.30562C11.4319 9.08073 12.0295 9.02194 12.606 9.13668C13.1825 9.25142 13.712 9.53453 14.1276 9.95023C14.5432 10.3659 14.8262 10.8955 14.9408 11.4721C15.0554 12.0486 14.9965 12.6462 14.7715 13.1892C14.5464 13.7323 14.1654 14.1964 13.6766 14.5229C13.1878 14.8494 12.6132 15.0236 12.0254 15.0235C11.2372 15.0234 10.4813 14.7102 9.92407 14.1528C9.36681 13.5954 9.05378 12.8395 9.05385 12.0513ZM7.44702 12.0513C7.44702 12.9568 7.71554 13.842 8.21861 14.5949C8.72169 15.3478 9.43673 15.9346 10.2733 16.2811C11.1099 16.6276 12.0305 16.7183 12.9186 16.5417C13.8067 16.365 14.6225 15.9289 15.2628 15.2887C15.9031 14.6484 16.3391 13.8326 16.5158 12.9445C16.6924 12.0564 16.6017 11.1358 16.2552 10.2992C15.9087 9.46262 15.3219 8.74758 14.569 8.24451C13.8161 7.74143 12.9309 7.47291 12.0254 7.47291C11.4241 7.47288 10.8288 7.59129 10.2733 7.82136C9.71779 8.05143 9.21307 8.38867 8.78792 8.81381C8.36277 9.23896 8.02554 9.74369 7.79547 10.2992C7.56539 10.8547 7.44699 11.45 7.44702 12.0513ZM15.715 7.2915C15.7149 7.50311 15.7776 7.70999 15.8951 7.88598C16.0126 8.06197 16.1796 8.19917 16.375 8.28024C16.5705 8.3613 16.7856 8.38259 16.9932 8.34139C17.2007 8.3002 17.3914 8.19839 17.5411 8.04883C17.6908 7.89927 17.7928 7.70868 17.8341 7.50116C17.8755 7.29364 17.8544 7.07852 17.7735 6.88298C17.6926 6.68745 17.5556 6.5203 17.3797 6.40267C17.2038 6.28503 16.997 6.22219 16.7854 6.2221C16.5017 6.22222 16.2298 6.33492 16.0292 6.53543C15.8286 6.73594 15.7157 7.00787 15.7155 7.2915M8.42373 19.3089C7.85834 19.3027 7.29824 19.1992 6.76796 19.003C6.38339 18.8548 6.03412 18.6277 5.74263 18.3363C5.45113 18.045 5.22388 17.6958 5.07549 17.3113C4.8792 16.781 4.77573 16.2209 4.76961 15.6555C4.72632 14.7157 4.71785 14.4334 4.71785 12.0524C4.71785 9.67151 4.72726 9.38986 4.76961 8.44915C4.77647 7.88383 4.87992 7.32384 5.07549 6.79339C5.22371 6.4087 5.45089 6.05934 5.7424 5.76783C6.03391 5.47632 6.38327 5.24913 6.76796 5.10092C7.29822 4.90463 7.85834 4.80116 8.42373 4.79504C9.36349 4.75174 9.64584 4.74327 12.0258 4.74327C14.4058 4.74327 14.6884 4.75245 15.6291 4.79527C16.1945 4.80213 16.7544 4.90558 17.2849 5.10115C17.6696 5.24938 18.0189 5.47657 18.3104 5.76808C18.602 6.05959 18.8291 6.40894 18.9774 6.79362C19.1736 7.32389 19.2771 7.884 19.2833 8.44939C19.3265 9.39057 19.335 9.67151 19.335 12.0527C19.335 14.4339 19.3263 14.7153 19.2833 15.656C19.2767 16.2213 19.1732 16.7814 18.9774 17.3117C18.829 17.6962 18.6017 18.0454 18.3102 18.3368C18.0187 18.6282 17.6695 18.8553 17.2849 19.0035C16.7546 19.1998 16.1945 19.3033 15.6291 19.3094C14.6894 19.3527 14.407 19.3612 12.0258 19.3612C9.64467 19.3612 9.36326 19.3524 8.42373 19.3094M8.34985 3.18963C7.61004 3.20417 6.87807 3.34419 6.18514 3.60374C5.59279 3.83277 5.05483 4.18305 4.60576 4.63212C4.15668 5.0812 3.8064 5.61915 3.57737 6.2115C3.31786 6.90445 3.17784 7.63641 3.16326 8.37621C3.11926 9.3268 3.10938 9.6308 3.10938 12.0522C3.10938 14.4736 3.11949 14.7774 3.16326 15.7282C3.17784 16.468 3.31786 17.2 3.57737 17.8929C3.80641 18.4853 4.1567 19.0232 4.60577 19.4723C5.05484 19.9214 5.59279 20.2716 6.18514 20.5007C6.87811 20.7601 7.61005 20.9001 8.34985 20.9148C9.3009 20.9581 9.60443 20.9687 12.0258 20.9687C14.4473 20.9687 14.751 20.9586 15.7018 20.9148C16.4416 20.9002 17.1736 20.7602 17.8665 20.5007C18.4589 20.2716 18.9968 19.9214 19.4459 19.4723C19.895 19.0232 20.2453 18.4853 20.4743 17.8929C20.7342 17.2001 20.8742 16.4681 20.8884 15.7282C20.9317 14.7769 20.9416 14.4736 20.9416 12.0522C20.9416 9.6308 20.9315 9.32704 20.8884 8.37621C20.8739 7.63641 20.7339 6.90444 20.4743 6.2115C20.2453 5.61927 19.8951 5.08139 19.4462 4.63233C18.9972 4.18327 18.4594 3.83293 17.8673 3.60374C17.1744 3.34403 16.4424 3.204 15.7025 3.18963C14.7517 3.1461 14.448 3.13574 12.027 3.13574C9.60608 3.13574 9.30161 3.14586 8.35031 3.18963" fill="white"/>
</g>
<defs>
<radialGradient id="paint0_radial_50_2" cx="0" cy="0" r="1" gradientUnits="userSpaceOnUse" gradientTransform="translate(1.55318 23.4744) scale(30.4711)">
<stop offset="0.09" stop-color="#FA8F21"/>
<stop offset="0.78" stop-color="#D82D7E"/>
</radialGradient>
<radialGradient id="paint1_radial_50_2" cx="0" cy="0" r="1" gradientUnits="userSpaceOnUse" gradientTransform="translate(16.624 22.7035) scale(26.8148)">
<stop offset="0.64" stop-color="#8C3AAA" stop-opacity="0"/>
<stop offset="1" stop-color="#8C3AAA"/>
</radialGradient>
<clipPath id="clip0_50_2">
<rect width="24" height="24" fill="white"/>
</clipPath>
</defs>
</svg>
