<svg width="76" height="76" viewBox="0 0 76 76" fill="none" xmlns="http://www.w3.org/2000/svg">
<path d="M13.7884 28.2295C15.7748 18.2614 23.7316 17.4329 28.041 21.3593M28.041 21.3593C30.8131 16.9185 33.0654 15.053 37.9996 13.1034C42.9337 15.053 45.1861 16.9185 47.9582 21.3593M28.041 21.3593C28.041 21.3593 26.9927 22.9317 28.1158 26.3386C29.239 29.7455 32.5096 33.5977 37.7375 38.262C27.6224 43.8485 31.1822 56.7113 37.9996 63.1586M37.9996 63.1586C30.0141 56.9829 28.2833 50.3583 23.0616 41.4068C21.2272 38.262 19.9168 35.9034 17.8203 33.0206C15.7237 30.1379 13.4939 28.0574 12.4645 27.649C11.5811 27.2985 10.5644 26.9981 9.43406 26.7648C8.46515 26.5648 7.41274 26.4142 6.28923 26.3238C5.6675 26.2738 5.024 26.2422 4.36083 26.2309M37.9996 63.1586C36.1187 62.4822 19.9168 45.0758 14.9375 40.3586C9.9582 35.6413 4.04974 29.2616 4.36083 26.2309M37.9996 63.1586C45.985 56.9829 47.7158 50.3583 52.9375 41.4068C54.772 38.262 56.0823 35.9034 58.1789 33.0206C60.2754 30.1379 62.5052 28.0574 63.5347 27.649C64.4181 27.2985 65.4348 26.9981 66.5651 26.7648C67.534 26.5648 68.5864 26.4142 69.7099 26.3238C70.3316 26.2738 70.9751 26.2422 71.6383 26.2309M37.9996 63.1586C44.8169 56.7113 48.3768 43.8485 38.2616 38.262C43.4895 33.5977 46.7602 29.7455 47.8833 26.3386C49.0065 22.9317 47.9582 21.3593 47.9582 21.3593M37.9996 63.1586C39.8805 62.4822 56.0823 45.0758 61.0616 40.3586C66.041 35.6413 71.9494 29.2616 71.6383 26.2309M1.04785 26.3386C2.1965 26.2462 3.30366 26.2128 4.36083 26.2309M62.2107 28.2295C60.2244 18.2614 52.2676 17.4329 47.9582 21.3593M74.9513 26.3386C73.8026 26.2462 72.6955 26.2128 71.6383 26.2309" stroke="currentColor" stroke-linecap="round" stroke-linejoin="round"/>
<path d="M31.9721 32.4965L31.9323 32.7433C31.9406 32.7446 31.949 32.7456 31.9574 32.7461L31.9721 32.4965ZM33.2824 42.7051C33.4205 42.7051 33.5324 42.5932 33.5324 42.4551C33.5324 42.317 33.4205 42.2051 33.2824 42.2051V42.7051ZM32.2341 57.6551L32.0171 57.7793C32.0228 57.7892 32.0292 57.7988 32.0363 57.8079L32.2341 57.6551ZM21.2272 40.8827L21.0111 41.009L21.0185 41.0202L21.2272 40.8827ZM18.6086 40.3586L18.3924 40.4849L18.3998 40.4961L18.6086 40.3586ZM16.7721 40.0965L16.5559 40.2228L16.5633 40.234L16.7721 40.0965ZM37.9996 13.1034L38.2494 13.0921C38.2438 12.969 38.1495 12.8684 38.0271 12.8549C37.9046 12.8414 37.7906 12.9191 37.7584 13.0379L37.9996 13.1034ZM37.3536 19.6551L37.5901 19.7361L37.3536 19.6551ZM34.6211 30.662L34.8316 30.7968L34.6211 30.662ZM37.9996 38.262L37.8139 38.4293C37.8831 38.5062 37.9926 38.5325 38.0892 38.4954C38.1859 38.4583 38.2496 38.3655 38.2496 38.262H37.9996ZM36.3849 24.8965L36.1368 24.8657V24.8657L36.3849 24.8965ZM36.0842 26.731L35.8394 26.6799L36.0842 26.731ZM38.1384 40.3045C38.2532 40.2279 38.2842 40.0726 38.2076 39.9578C38.131 39.8429 37.9758 39.8119 37.8609 39.8885L38.1384 40.3045ZM35.6215 41.931L35.4483 41.7507L35.6215 41.931ZM31.2055 50.2561C31.1718 50.39 31.253 50.5259 31.3869 50.5596C31.5207 50.5933 31.6566 50.5121 31.6903 50.3783L31.2055 50.2561ZM38.1567 42.1255C38.2641 42.0388 38.2809 41.8814 38.1942 41.774C38.1075 41.6665 37.9501 41.6497 37.8426 41.7364L38.1567 42.1255ZM34.5928 45.3379L34.3888 45.1933L34.5928 45.3379ZM31.9875 53.5031C32.0102 53.6393 32.139 53.7313 32.2752 53.7086C32.4114 53.6859 32.5034 53.5571 32.4807 53.4209L31.9875 53.5031ZM38.1644 44.2156C38.2683 44.1246 38.2787 43.9666 38.1877 43.8628C38.0967 43.7589 37.9387 43.7485 37.8349 43.8395L38.1644 44.2156ZM33.0358 56.3859C33.0585 56.5221 33.1873 56.6141 33.3235 56.5914C33.4597 56.5687 33.5517 56.4399 33.529 56.3037L33.0358 56.3859ZM38.1865 46.5522C38.2782 46.449 38.2689 46.291 38.1657 46.1993C38.0625 46.1076 37.9045 46.1169 37.8128 46.2201L38.1865 46.5522ZM35.1169 50.5793L35.3467 50.6777L35.1169 50.5793ZM34.0841 58.4824C34.1068 58.6186 34.2356 58.7106 34.3718 58.6879C34.508 58.6652 34.6 58.5364 34.5773 58.4002L34.0841 58.4824ZM37.9996 49.0068L38.2167 48.8828C38.1722 48.805 38.0894 48.7569 37.9997 48.7568C37.91 48.7568 37.8272 48.8048 37.7826 48.8827L37.9996 49.0068ZM35.9031 53.462L35.6659 53.383L35.9031 53.462ZM35.1324 60.3169C35.1551 60.4531 35.2839 60.5451 35.4201 60.5224C35.5563 60.4997 35.6483 60.3709 35.6256 60.2347L35.1324 60.3169ZM37.9996 51.8896L38.2233 51.7779C38.181 51.6932 38.0944 51.6396 37.9997 51.6396C37.905 51.6396 37.8184 51.6931 37.776 51.7778L37.9996 51.8896ZM36.4427 61.6273C36.4654 61.7634 36.5942 61.8554 36.7304 61.8327C36.8666 61.8101 36.9586 61.6812 36.9359 61.5451L36.4427 61.6273ZM37.9996 56.6068L38.2287 56.5068L38.2284 56.506L37.9996 56.6068ZM37.9996 63.1586L37.7717 63.2613C37.8098 63.3457 37.8913 63.4021 37.9836 63.4081C38.076 63.414 38.1641 63.3684 38.2126 63.2896L37.9996 63.1586ZM44.0252 32.4965L44.0399 32.7461C44.0483 32.7456 44.0567 32.7446 44.065 32.7433L44.0252 32.4965ZM42.7148 42.2051C42.5768 42.2051 42.4648 42.317 42.4648 42.4551C42.4648 42.5932 42.5768 42.7051 42.7148 42.7051V42.2051ZM43.7631 57.6551L43.961 57.8079C43.968 57.7988 43.9744 57.7892 43.9801 57.7793L43.7631 57.6551ZM54.77 40.8827L54.9791 41.0204L54.9859 41.0089L54.77 40.8827ZM57.3887 40.3586L57.5977 40.4963L57.6045 40.4847L57.3887 40.3586ZM59.2252 40.0965L59.4343 40.2342L59.441 40.2226L59.2252 40.0965ZM37.9976 13.1734L38.2389 13.1079C38.2066 12.9891 38.0926 12.9114 37.9702 12.9249C37.8478 12.9384 37.7534 13.039 37.7479 13.1621L37.9976 13.1734ZM38.6436 19.6551L38.4071 19.7361L38.6436 19.6551ZM41.3761 30.662L41.1656 30.7968L41.1656 30.7968L41.3761 30.662ZM37.9976 38.262H37.7476C37.7476 38.3655 37.8114 38.4583 37.908 38.4954C38.0047 38.5325 38.1141 38.5062 38.1834 38.4293L37.9976 38.262ZM39.6124 24.8965L39.8604 24.8657L39.6124 24.8965ZM39.9131 26.731L40.1578 26.6799L39.9131 26.731ZM38.1363 39.8885C38.0214 39.8119 37.8662 39.8429 37.7896 39.9578C37.713 40.0726 37.744 40.2279 37.8589 40.3045L38.1363 39.8885ZM40.3757 41.931L40.5489 41.7507L40.3757 41.931ZM44.3069 50.3783C44.3406 50.5121 44.4765 50.5933 44.6104 50.5596C44.7443 50.5259 44.8255 50.39 44.7918 50.2561L44.3069 50.3783ZM38.1546 41.7364C38.0472 41.6497 37.8898 41.6665 37.8031 41.774C37.7163 41.8814 37.7331 42.0388 37.8406 42.1255L38.1546 41.7364ZM41.4045 45.3379L41.6085 45.1933L41.4045 45.3379ZM43.5165 53.4209C43.4938 53.5571 43.5858 53.6859 43.722 53.7086C43.8582 53.7313 43.987 53.6393 44.0097 53.5031L43.5165 53.4209ZM38.1624 43.8395C38.0585 43.7485 37.9006 43.7589 37.8096 43.8628C37.7186 43.9666 37.729 44.1246 37.8328 44.2156L38.1624 43.8395ZM42.4682 56.3037C42.4455 56.4399 42.5376 56.5687 42.6737 56.5914C42.8099 56.6141 42.9387 56.5221 42.9614 56.3859L42.4682 56.3037ZM38.1845 46.2201C38.0927 46.1169 37.9347 46.1076 37.8315 46.1993C37.7283 46.291 37.719 46.449 37.8107 46.5522L38.1845 46.2201ZM40.8804 50.5793L40.6506 50.6777L40.8804 50.5793ZM41.42 58.4002C41.3973 58.5364 41.4893 58.6652 41.6255 58.6879C41.7617 58.7106 41.8905 58.6186 41.9132 58.4824L41.42 58.4002ZM40.0942 53.462L40.3313 53.383L40.0942 53.462ZM40.3717 60.2347C40.349 60.3709 40.441 60.4997 40.5772 60.5224C40.7134 60.5451 40.8422 60.4531 40.8649 60.3169L40.3717 60.2347ZM39.0613 61.5451C39.0387 61.6812 39.1307 61.8101 39.2668 61.8327C39.403 61.8554 39.5318 61.7634 39.5545 61.6273L39.0613 61.5451ZM21.9087 19.1648C19.6036 20.1954 17.7917 22.0561 16.5615 24.023C15.3341 25.9856 14.6669 28.085 14.6849 29.6167L15.1848 29.6108C15.1684 28.2042 15.7906 26.1986 16.9855 24.2881C18.1776 22.3819 19.9208 20.6013 22.1127 19.6213L21.9087 19.1648ZM23.7576 19.1599C21.3288 20.1012 19.2704 22.1936 17.8507 24.4221C16.4352 26.6441 15.6187 29.0589 15.7365 30.6801L16.2352 30.6439C16.1287 29.1784 16.8816 26.874 18.2724 24.6908C19.659 22.5142 21.6438 20.5154 23.9383 19.6262L23.7576 19.1599ZM25.5989 19.4195C23.0183 20.3341 20.6982 22.6799 19.0885 25.1669C18.2812 26.4142 17.6457 27.7075 17.2416 28.8924C16.8396 30.0712 16.6584 31.1672 16.787 32.0101L17.2813 31.9346C17.1703 31.2076 17.3236 30.2012 17.7148 29.0538C18.104 27.9125 18.7203 26.656 19.5083 25.4386C21.0891 22.9962 23.3327 20.7532 25.7659 19.8908L25.5989 19.4195ZM26.6603 20.4635C23.9841 21.2492 21.688 23.6815 20.146 26.3042C19.3721 27.6207 18.7805 28.9977 18.4217 30.263C18.0644 31.5229 17.9316 32.6944 18.0987 33.5906L18.5902 33.4989C18.4434 32.7113 18.555 31.6256 18.9027 30.3994C19.2489 29.1786 19.8228 27.8407 20.5771 26.5576C22.0916 23.9815 24.3025 21.6769 26.8011 20.9433L26.6603 20.4635ZM27.4383 21.2523C24.8238 22.1185 22.6257 24.8574 21.1525 27.7315C20.4119 29.1764 19.8457 30.6721 19.4966 32.0144C19.1492 33.35 19.0101 34.5581 19.1458 35.4182L19.6397 35.3403C19.5199 34.5811 19.6393 33.4519 19.9805 32.1402C20.3199 30.8353 20.8726 29.3738 21.5975 27.9596C23.0552 25.1156 25.1747 22.529 27.5955 21.7269L27.4383 21.2523ZM27.4419 23.3477C24.9533 24.1303 23.1499 26.7906 22.004 29.6019C20.8534 32.4246 20.3256 35.4976 20.4538 37.2322L20.9524 37.1953C20.8316 35.5598 21.3358 32.5658 22.467 29.7906C23.6029 27.0041 25.3309 24.5357 27.5919 23.8246L27.4419 23.3477ZM27.6956 25.1849C25.1243 26.0946 23.5791 28.91 22.7098 31.7953C21.8359 34.6958 21.6142 37.7673 21.7618 39.3337L22.2596 39.2868C22.1187 37.7917 22.3312 34.7851 23.1885 31.9395C24.0505 29.0787 25.5337 26.4801 27.8623 25.6563L27.6956 25.1849ZM28.5162 27.2726C27.2098 27.5489 26.1864 28.3756 25.3946 29.4866C24.6042 30.5956 24.0345 32.0006 23.6323 33.4682C22.8281 36.4024 22.6777 39.6442 22.8124 41.4257L23.311 41.388C23.1801 39.657 23.3271 36.4732 24.1145 33.6004C24.5081 32.1645 25.0578 30.8206 25.8018 29.7768C26.5443 28.735 27.4703 28.0048 28.6196 27.7618L28.5162 27.2726ZM29.6036 29.3639C28.2404 29.4176 27.1768 30.1145 26.3635 31.1611C25.5545 32.2021 24.9839 33.5989 24.5893 35.0925C23.7999 38.0805 23.6955 41.5322 23.8609 43.5241L24.3591 43.4827C24.1975 41.535 24.3007 38.1421 25.0727 35.2202C25.4588 33.7589 26.0073 32.4344 26.7583 31.4679C27.505 30.507 28.4423 29.91 29.6233 29.8635L29.6036 29.3639ZM30.6594 30.6741C29.2951 30.6865 28.2598 31.4289 27.4925 32.5566C26.7296 33.6779 26.216 35.1991 25.8788 36.8341C25.2037 40.1071 25.2185 43.9218 25.4336 46.1481L25.9312 46.1C25.7195 43.9086 25.7061 40.1463 26.3684 36.9352C26.6999 35.3282 27.1964 33.8806 27.9059 32.8378C28.611 31.8015 29.5105 31.1846 30.664 31.1741L30.6594 30.6741ZM32.0119 32.2497C30.7242 32.0421 29.7426 32.725 29.0181 33.8494C28.2982 34.9666 27.7993 36.5613 27.4543 38.3067C26.7631 41.8039 26.6717 46.0074 26.7429 48.4899L27.2426 48.4755C27.172 46.0097 27.264 41.8483 27.9448 38.4036C28.2859 36.678 28.7701 35.1575 29.4384 34.1202C30.1021 33.0901 30.9138 32.5791 31.9323 32.7433L32.0119 32.2497ZM33.0601 33.56C32.4215 33.4571 31.8508 33.5901 31.3519 33.9124C30.859 34.2308 30.4469 34.7265 30.1002 35.3352C29.4085 36.5498 28.9439 38.2737 28.6323 40.1486C28.0078 43.9055 27.9821 48.369 28.0532 50.8485L28.553 50.8342C28.4822 48.3653 28.509 43.9398 29.1255 40.2306C29.4344 38.3725 29.8874 36.7191 30.5347 35.5827C30.8576 35.0158 31.2204 34.5926 31.6232 34.3324C32.0201 34.076 32.4661 33.9707 32.9806 34.0537L33.0601 33.56ZM34.3705 34.8704C33.7227 34.766 33.1504 34.9298 32.6587 35.3006C32.1745 35.6657 31.7758 36.225 31.4441 36.9054C30.7811 38.2653 30.3509 40.1829 30.0725 42.2529C29.5147 46.4 29.5546 51.2544 29.6256 53.7312L30.1254 53.7169C30.0546 51.2455 30.0159 46.4246 30.568 42.3195C30.8446 40.2634 31.2666 38.4105 31.8935 37.1245C32.2067 36.482 32.5624 35.9994 32.9597 35.6999C33.3494 35.4061 33.7855 35.2825 34.2909 35.364L34.3705 34.8704ZM35.3428 35.9181C34.1812 36.088 33.3483 36.7376 32.7583 37.6541C32.1735 38.5627 31.8236 39.7373 31.6086 40.9855C31.1798 43.4744 31.2732 46.3701 31.1981 48.2104L31.6977 48.2308C31.7751 46.3338 31.6798 43.5171 32.1013 41.0704C32.3114 39.8507 32.6464 38.7518 33.1787 37.9248C33.7059 37.1059 34.4224 36.5581 35.4152 36.4128L35.3428 35.9181ZM36.3503 36.7138C34.4439 37.3308 33.5468 38.7882 33.1636 40.0698C32.9722 40.7096 32.9063 41.3122 32.9057 41.7591C32.9054 41.9816 32.9212 42.1727 32.9489 42.3144C32.9623 42.3832 32.9809 42.4532 33.0085 42.5121C33.0219 42.5409 33.0436 42.5804 33.0783 42.6163C33.113 42.6522 33.1818 42.7051 33.2824 42.7051V42.2051C33.3666 42.2051 33.4192 42.2495 33.4379 42.2689C33.4567 42.2884 33.4628 42.3034 33.4613 42.3002C33.4589 42.295 33.4498 42.2707 33.4396 42.2187C33.4201 42.1188 33.4054 41.962 33.4057 41.7598C33.4062 41.3573 33.4661 40.8031 33.6426 40.2131C33.9949 39.0349 34.8013 37.7407 36.5042 37.1895L36.3503 36.7138ZM31.1995 50.8134C30.9559 52.9792 31.2123 54.7843 31.5016 56.0122C31.6463 56.6263 31.7993 57.0959 31.9017 57.3931C31.9548 57.5474 31.9891 57.6407 32.0063 57.6953C32.0104 57.7081 32.0114 57.7124 32.0112 57.7116C32.0112 57.7114 32.0096 57.705 32.0085 57.695C32.0081 57.6915 32.0033 57.6569 32.0141 57.6132C32.0198 57.5899 32.0349 57.5435 32.0767 57.5005C32.1252 57.4506 32.1894 57.426 32.252 57.4253C32.3055 57.4247 32.3451 57.4415 32.3635 57.4507C32.3838 57.4607 32.3981 57.4714 32.4055 57.4772C32.4283 57.4953 32.4394 57.5118 32.432 57.5023L32.0363 57.8079C32.0428 57.8164 32.0645 57.845 32.0948 57.869C32.104 57.8763 32.12 57.8881 32.1418 57.8988C32.1617 57.9087 32.2027 57.9258 32.2572 57.9253C32.3209 57.9246 32.3861 57.8996 32.4353 57.849C32.4778 57.8052 32.4934 57.7577 32.4996 57.7328C32.511 57.6862 32.5063 57.6471 32.5052 57.6377C32.5034 57.6217 32.5004 57.6079 32.4984 57.5989C32.4941 57.5804 32.4884 57.5613 32.4832 57.5449C32.4636 57.4828 32.4219 57.3683 32.3744 57.2303C32.2754 56.9429 32.1279 56.4901 31.9883 55.8975C31.7089 54.7117 31.4606 52.9655 31.6964 50.8693L31.1995 50.8134ZM9.85593 27.2221C11.633 28.0003 13.5197 29.8898 15.4251 32.388C17.3241 34.8777 19.2157 37.9364 21.0114 41.0089L21.4431 40.7566C19.6452 37.6804 17.741 34.5999 15.8227 32.0848C13.9109 29.5781 11.9589 27.5971 10.0565 26.764L9.85593 27.2221ZM21.0185 41.0202C22.2573 42.9007 23.5756 44.7167 24.7739 46.3958C25.9747 48.0785 27.0526 49.6205 27.822 50.9655L28.256 50.7172C27.4722 49.3472 26.3798 47.7854 25.1808 46.1053C23.9793 44.4216 22.6683 42.6157 21.436 40.7452L21.0185 41.0202ZM7.23729 26.6979C9.01438 27.4761 10.9011 29.3656 12.8065 31.8638C14.7054 34.3536 16.597 37.4122 18.3927 40.4847L18.8244 40.2324C17.0266 37.1563 15.1224 34.0758 13.2041 31.5606C11.2922 29.054 9.34022 27.073 7.43786 26.2399L7.23729 26.6979ZM18.3998 40.4961C19.6479 42.3906 22.0918 45.1352 24.3996 47.7271C25.5571 49.0272 26.6827 50.2914 27.6161 51.4C28.5529 52.5127 29.2828 53.4536 29.6585 54.1103L30.0925 53.862C29.6916 53.1612 28.9338 52.1888 27.9986 51.0779C27.0599 49.963 25.9292 48.6932 24.773 47.3946C22.4534 44.7893 20.0404 42.0775 18.8174 40.221L18.3998 40.4961ZM5.40077 26.4358C7.17785 27.2141 9.06456 29.1036 10.97 31.6018C12.8689 34.0915 14.7605 37.1502 16.5562 40.2226L16.9879 39.9703C15.19 36.8942 13.2858 33.8137 11.3675 31.2986C9.45571 28.7919 7.5037 26.8109 5.60134 25.9778L5.40077 26.4358ZM16.5633 40.234C17.1927 41.1895 18.3831 42.5991 19.826 44.2076C21.2723 45.82 22.9843 47.6452 24.6651 49.4354C26.347 51.2269 27.9974 52.9829 29.3245 54.4607C30.659 55.9469 31.6448 57.1283 32.0171 57.7793L32.4511 57.531C32.0469 56.8244 31.0206 55.6012 29.6965 54.1267C28.3649 52.6438 26.7102 50.8832 25.0296 49.0932C23.3479 47.302 21.64 45.4811 20.1982 43.8738C18.753 42.2626 17.5869 40.879 16.9808 39.959L16.5633 40.234ZM4.5529 26.3973C5.14453 26.9004 6.06795 27.9666 7.20811 29.3936C8.34325 30.8143 9.67865 32.5736 11.0907 34.4478C13.9117 38.192 17.0397 42.3963 19.4646 45.2381L19.845 44.9135C17.4327 42.0865 14.3167 37.8988 11.49 34.1469C10.0783 32.2731 8.73889 30.5084 7.59873 29.0815C6.46359 27.6608 5.51117 26.5558 4.87679 26.0164L4.5529 26.3973ZM37.7505 13.0824C37.5223 15.7857 36.981 17.4883 35.561 19.2039C34.1229 20.9413 31.7791 22.6992 27.8955 25.4794L28.1866 25.886C32.0533 23.1179 34.458 21.3206 35.9462 19.5227C37.4525 17.7029 38.0153 15.8901 38.2488 13.1244L37.7505 13.0824ZM37.7584 13.0379C37.5301 13.8793 36.7996 14.8047 35.7885 15.7377C34.7852 16.6634 33.539 17.5667 32.3305 18.369C31.1225 19.1709 29.9611 19.8659 29.1245 20.3797C28.7091 20.6348 28.368 20.8487 28.1455 21.0073C28.0376 21.0842 27.9412 21.1594 27.8789 21.2272C27.853 21.2554 27.8018 21.3144 27.7819 21.3952C27.7701 21.4429 27.7663 21.5112 27.7995 21.5818C27.8326 21.652 27.887 21.6923 27.9301 21.7136L28.152 21.2656C28.1801 21.2795 28.2244 21.3103 28.252 21.3689C28.2798 21.428 28.2753 21.4826 28.2673 21.5148C28.2551 21.5645 28.2298 21.5843 28.247 21.5656C28.2708 21.5397 28.3292 21.4903 28.4357 21.4144C28.6419 21.2675 28.9679 21.0626 29.3862 20.8058C30.217 20.2956 31.3894 19.5938 32.6071 18.7855C33.8243 17.9775 35.0957 17.0572 36.1275 16.1051C37.1515 15.1603 37.9736 14.1539 38.2409 13.1689L37.7584 13.0379ZM37.7527 13.0642C37.5446 14.3753 37.2362 15.3627 36.7921 16.1916C36.3486 17.0194 35.7628 17.702 34.9827 18.3953C34.199 19.0918 33.2268 19.7929 32.0099 20.6636C30.7959 21.5322 29.347 22.5637 27.6247 23.9135L27.9332 24.3071C29.6457 22.9649 31.0863 21.9393 32.3008 21.0703C33.5123 20.2034 34.5076 19.4865 35.3148 18.769C36.1256 18.0484 36.7542 17.3211 37.2328 16.4278C37.7109 15.5356 38.0325 14.4906 38.2466 13.1426L37.7527 13.0642ZM37.7499 13.1147C37.7871 13.936 37.7936 14.6895 37.7501 15.396L38.2492 15.4267C38.2941 14.6962 38.2871 13.9237 38.2494 13.0921L37.7499 13.1147ZM37.7501 15.396C37.6257 17.4192 37.0922 19.0665 35.6744 20.8011C34.2459 22.5488 31.9139 24.3924 28.1686 26.7823L28.4376 27.2038C32.1911 24.8086 34.5801 22.93 36.0616 21.1175C37.5538 19.2918 38.1192 17.5408 38.2492 15.4267L37.7501 15.396ZM36.4004 21.2162C35.1852 23.4841 32.9628 25.7972 28.9548 28.3547L29.2238 28.7762C33.2726 26.1926 35.571 23.8228 36.8412 21.4524L36.4004 21.2162ZM36.3708 21.3372C36.3719 21.4293 36.3712 21.5207 36.3687 21.6114L36.8685 21.625C36.8712 21.5279 36.8719 21.43 36.8708 21.3314L36.3708 21.3372ZM36.3687 21.6114C36.3667 21.6833 36.3637 21.7548 36.3596 21.8259L36.8587 21.8548C36.8631 21.7787 36.8664 21.7021 36.8685 21.625L36.3687 21.6114ZM36.3596 21.8259C36.2354 23.9644 35.1409 25.7077 33.7918 27.0285C32.4415 28.3505 30.8527 29.2321 29.7858 29.6425L29.9653 30.1091C31.0876 29.6775 32.7367 28.7612 34.1416 27.3858C35.5475 26.0093 36.7252 24.156 36.8587 21.8548L36.3596 21.8259ZM36.3708 21.3343C36.3708 21.4285 36.3701 21.5218 36.3686 21.6143L36.8686 21.6221C36.8701 21.527 36.8708 21.431 36.8708 21.3343H36.3708ZM36.3686 21.6143C36.3645 21.8788 36.3545 22.1365 36.339 22.3875L36.8381 22.4183C36.854 22.1595 36.8643 21.8941 36.8686 21.6221L36.3686 21.6143ZM36.339 22.3875C35.9737 28.3196 32.5509 30.5554 30.8677 30.9425L30.9798 31.4298C32.8899 30.9905 36.4598 28.5598 36.8381 22.4183L36.339 22.3875ZM37.7499 13.1147C37.8042 14.3143 37.8295 15.3889 37.7504 16.4322L38.2489 16.47C38.3305 15.395 38.3039 14.2953 38.2494 13.0921L37.7499 13.1147ZM37.7504 16.4322C37.6708 17.481 37.4856 18.4984 37.1171 19.5741L37.5901 19.7361C37.9742 18.615 38.1666 17.5552 38.2489 16.47L37.7504 16.4322ZM37.1171 19.5741C36.9295 20.1219 36.6941 20.6682 36.4004 21.2162L36.8412 21.4524C37.1477 20.8802 37.3939 20.3091 37.5901 19.7361L37.1171 19.5741ZM34.4106 30.5272C34.402 30.5406 34.3934 30.5539 34.3848 30.5671L34.8039 30.8398C34.8132 30.8255 34.8224 30.8112 34.8316 30.7968L34.4106 30.5272ZM34.3848 30.5671C33.5056 31.9183 32.5592 32.2806 31.9867 32.2469L31.9574 32.7461C32.7673 32.7937 33.8633 32.2854 34.8039 30.8398L34.3848 30.5671ZM38.1854 38.0947C37.3966 37.2185 36.2763 35.7978 35.4954 34.3782C35.1046 33.6679 34.8055 32.9696 34.6708 32.3474C34.5354 31.7221 34.5736 31.21 34.8066 30.8355L34.3821 30.5713C34.0511 31.1032 34.0337 31.7679 34.1821 32.4532C34.3311 33.1417 34.655 33.8878 35.0573 34.6192C35.8627 36.0833 37.0092 37.5355 37.8139 38.4293L38.1854 38.0947ZM35.1706 28.999C34.9339 29.6079 34.6762 30.1124 34.4106 30.5272L34.8316 30.7968C35.1172 30.3509 35.3894 29.8162 35.6367 29.1802L35.1706 28.999ZM35.1543 29.107C35.2525 30.5176 35.7863 31.8843 36.3522 33.0085C36.6359 33.5722 36.9297 34.0789 37.1844 34.5031C37.4426 34.9331 37.6519 35.2648 37.7804 35.4993L38.2189 35.2592C38.0843 35.0133 37.8613 34.6592 37.6131 34.2457C37.3613 33.8264 37.0746 33.3317 36.7988 32.7838C36.2457 31.6848 35.7447 30.3871 35.653 29.0722L35.1543 29.107ZM36.3708 21.3301C36.368 21.5002 36.3641 21.6678 36.3592 21.833L36.859 21.8477C36.8639 21.6804 36.8679 21.5107 36.8708 21.3385L36.3708 21.3301ZM36.3592 21.833C36.3537 22.0225 36.3469 22.2088 36.3388 22.3919L36.8383 22.4139C36.8465 22.2283 36.8534 22.0396 36.859 21.8477L36.3592 21.833ZM36.3388 22.3919C36.2993 23.2913 36.2302 24.1139 36.1368 24.8657L36.633 24.9273C36.7281 24.1613 36.7983 23.3253 36.8383 22.4139L36.3388 22.3919ZM36.1368 24.8657C36.0551 25.5236 35.9548 26.127 35.8394 26.6799L36.3289 26.782C36.4472 26.2147 36.5497 25.5977 36.633 24.9273L36.1368 24.8657ZM35.8394 26.6799C35.6512 27.5825 35.423 28.3497 35.1706 28.999L35.6367 29.1802C35.9003 28.502 36.1358 27.7079 36.3289 26.782L35.8394 26.6799ZM35.8359 26.7605C36.1206 29.1525 37.5372 30.5659 37.8269 30.8427L38.1724 30.4813C37.9137 30.234 36.5967 28.9219 36.3324 26.7014L35.8359 26.7605ZM36.138 24.9355C36.2792 25.8299 36.6781 26.5246 37.0694 26.9363C37.2608 27.1378 37.4699 27.292 37.6651 27.3515C37.7628 27.3813 37.888 27.3964 38.0086 27.3441C38.142 27.2864 38.2162 27.1702 38.2436 27.0477L37.7557 26.9384C37.7553 26.9399 37.7665 26.9041 37.8099 26.8853C37.8406 26.8721 37.8489 26.8848 37.8108 26.8732C37.7345 26.8499 37.5969 26.7656 37.4318 26.5919C37.1102 26.2535 36.7573 25.6517 36.6318 24.8575L36.138 24.9355ZM37.7496 13.1034V15.4113H38.2496V13.1034H37.7496ZM37.7496 15.4113V16.4511H38.2496V15.4113H37.7496ZM37.7496 16.4511V23.8482H38.2496V16.4511H37.7496ZM37.7496 23.8482V26.993H38.2496V23.8482H37.7496ZM37.7496 26.993V30.662H38.2496V26.993H37.7496ZM37.7496 30.662V35.3793H38.2496V30.662H37.7496ZM37.7496 35.3793V38.262H38.2496V35.3793H37.7496ZM36.3777 21.3926C36.6676 22.6006 36.9529 23.3573 37.2155 23.7689C37.3421 23.9673 37.4928 24.1333 37.6781 24.1909C37.7803 24.2227 37.8874 24.2193 37.987 24.1759C38.0817 24.1346 38.152 24.0651 38.2031 23.9935L37.7962 23.703C37.7803 23.7252 37.7753 23.7227 37.7873 23.7175C37.8041 23.7102 37.8211 23.7118 37.8266 23.7135C37.8268 23.7136 37.8077 23.7071 37.7709 23.6719C37.7349 23.6373 37.6897 23.5825 37.637 23.5C37.4216 23.1623 37.1515 22.4743 36.8639 21.276L36.3777 21.3926ZM37.9996 40.0965C37.8609 39.8885 37.8609 39.8885 37.8609 39.8885C37.8609 39.8885 37.8609 39.8886 37.8608 39.8886C37.8608 39.8886 37.8607 39.8887 37.8606 39.8888C37.8603 39.8889 37.86 39.8891 37.8596 39.8894C37.8588 39.8899 37.8577 39.8907 37.8561 39.8917C37.8531 39.8938 37.8486 39.8968 37.8428 39.9007C37.8311 39.9086 37.8139 39.9201 37.7919 39.9351C37.7477 39.965 37.6839 40.0085 37.6048 40.0633C37.4466 40.1727 37.2268 40.3271 36.9803 40.5072C36.4899 40.8654 35.884 41.3322 35.4483 41.7507L35.7947 42.1113C36.2049 41.7172 36.7881 41.2668 37.2752 40.9109C37.5175 40.7339 37.7337 40.5821 37.8892 40.4745C37.967 40.4207 38.0295 40.3781 38.0725 40.3489C38.0939 40.3343 38.1105 40.3232 38.1217 40.3156C38.1273 40.3119 38.1315 40.3091 38.1343 40.3072C38.1357 40.3063 38.1368 40.3056 38.1374 40.3051C38.1378 40.3049 38.138 40.3047 38.1382 40.3046C38.1383 40.3046 38.1383 40.3045 38.1383 40.3045C38.1384 40.3045 38.1384 40.3045 38.1384 40.3045C38.1384 40.3045 38.1384 40.3045 37.9996 40.0965ZM35.4483 41.7507C32.7528 44.3401 31.8008 47.8934 31.2055 50.2561L31.6903 50.3783C32.2871 48.0095 33.2139 44.5904 35.7947 42.1113L35.4483 41.7507ZM37.9996 41.931C37.8426 41.7364 37.8426 41.7365 37.8426 41.7365C37.8426 41.7365 37.8425 41.7365 37.8425 41.7366C37.8424 41.7366 37.8422 41.7367 37.8421 41.7369C37.8418 41.7371 37.8413 41.7375 37.8407 41.738C37.8395 41.739 37.8377 41.7404 37.8354 41.7423C37.8308 41.746 37.8241 41.7515 37.8152 41.7587C37.7976 41.7731 37.7718 41.7943 37.7386 41.8217C37.6722 41.8766 37.5765 41.9564 37.4583 42.057C37.222 42.2581 36.8955 42.5422 36.5347 42.8749C35.8167 43.5368 34.9486 44.4032 34.3888 45.1933L34.7967 45.4824C35.3247 44.7373 36.1601 43.9003 36.8736 43.2425C37.2285 42.9154 37.5498 42.6357 37.7823 42.4378C37.8985 42.3389 37.9924 42.2606 38.0572 42.2071C38.0895 42.1803 38.1146 42.1598 38.1314 42.146C38.1399 42.1391 38.1463 42.1339 38.1505 42.1305C38.1526 42.1288 38.1542 42.1275 38.1552 42.1267C38.1558 42.1263 38.1561 42.126 38.1564 42.1258C38.1565 42.1257 38.1566 42.1256 38.1566 42.1256C38.1566 42.1255 38.1567 42.1255 38.1567 42.1255C38.1567 42.1255 38.1567 42.1255 37.9996 41.931ZM34.3888 45.1933C33.4585 46.5063 32.7931 48.1747 32.3926 49.7077C31.9941 51.2335 31.8478 52.6649 31.9875 53.5031L32.4807 53.4209C32.3584 52.6867 32.4839 51.3369 32.8764 49.8341C33.267 48.3385 33.912 46.7311 34.7967 45.4824L34.3888 45.1933ZM37.9996 44.0275C37.8349 43.8395 37.8349 43.8395 37.8348 43.8396C37.8348 43.8396 37.8347 43.8396 37.8347 43.8397C37.8346 43.8398 37.8344 43.8399 37.8343 43.8401C37.8339 43.8404 37.8334 43.8408 37.8327 43.8414C37.8314 43.8426 37.8294 43.8443 37.8269 43.8466C37.8218 43.8511 37.8143 43.8577 37.8046 43.8663C37.7851 43.8836 37.7567 43.909 37.7203 43.9418C37.6476 44.0074 37.543 44.1028 37.415 44.2224C37.159 44.4616 36.8089 44.7982 36.432 45.1882C35.6846 45.9615 34.8085 46.968 34.3691 47.8468L34.8164 48.0704C35.2184 47.2662 36.0459 46.3072 36.7915 45.5357C37.1611 45.1533 37.5049 44.8227 37.7564 44.5877C37.882 44.4703 37.9844 44.3769 38.0552 44.3131C38.0906 44.2811 38.1181 44.2566 38.1367 44.2401C38.146 44.2318 38.153 44.2256 38.1577 44.2215C38.16 44.2194 38.1617 44.2179 38.1629 44.2169C38.1634 44.2164 38.1638 44.2161 38.1641 44.2158C38.1642 44.2157 38.1643 44.2156 38.1644 44.2156C38.1644 44.2156 38.1644 44.2156 38.1644 44.2155C38.1644 44.2155 38.1644 44.2156 37.9996 44.0275ZM34.3691 47.8468C33.696 49.193 33.2981 50.9279 33.0999 52.5138C32.9018 54.0979 32.8992 55.5661 33.0358 56.3859L33.529 56.3037C33.4036 55.551 33.4009 54.1364 33.596 52.5758C33.7909 51.0168 34.1791 49.3449 34.8164 48.0704L34.3691 47.8468ZM37.9996 46.3862C37.8128 46.2201 37.8128 46.2201 37.8127 46.2201C37.8127 46.2201 37.8127 46.2202 37.8126 46.2202C37.8125 46.2203 37.8124 46.2205 37.8123 46.2206C37.812 46.221 37.8116 46.2215 37.811 46.2221C37.8099 46.2233 37.8083 46.2251 37.8062 46.2275C37.8021 46.2322 37.7959 46.2391 37.788 46.2482C37.7721 46.2664 37.7488 46.2931 37.7189 46.3276C37.6592 46.3966 37.5734 46.4969 37.468 46.623C37.2573 46.875 36.9681 47.2303 36.6541 47.6435C36.0294 48.4654 35.2929 49.5339 34.8871 50.4808L35.3467 50.6777C35.7271 49.7902 36.4319 48.7621 37.0521 47.946C37.3605 47.5403 37.6446 47.1913 37.8516 46.9437C37.955 46.82 38.0391 46.7217 38.0971 46.6546C38.1262 46.621 38.1487 46.5952 38.1638 46.578C38.1714 46.5693 38.1772 46.5628 38.181 46.5585C38.1829 46.5563 38.1843 46.5547 38.1852 46.5537C38.1857 46.5531 38.186 46.5528 38.1862 46.5525C38.1864 46.5524 38.1864 46.5523 38.1865 46.5523C38.1865 46.5523 38.1865 46.5522 38.1865 46.5522C38.1865 46.5522 38.1865 46.5522 37.9996 46.3862ZM34.8871 50.4808C33.7066 53.2352 33.818 56.8857 34.0841 58.4824L34.5773 58.4002C34.3193 56.8521 34.2188 53.3096 35.3467 50.6777L34.8871 50.4808ZM37.9996 49.0068C37.7826 48.8827 37.7826 48.8827 37.7826 48.8828C37.7826 48.8828 37.7826 48.8828 37.7825 48.8829C37.7825 48.883 37.7824 48.8831 37.7823 48.8833C37.7821 48.8836 37.7818 48.8841 37.7814 48.8848C37.7807 48.8861 37.7796 48.888 37.7782 48.8906C37.7753 48.8956 37.771 48.9031 37.7655 48.9129C37.7544 48.9324 37.7382 48.9612 37.7173 48.9985C37.6756 49.0729 37.6155 49.1812 37.5414 49.3169C37.3932 49.5883 37.1891 49.97 36.9651 50.4112C36.5186 51.2909 35.9875 52.4181 35.6659 53.383L36.1403 53.5411C36.4498 52.6125 36.9671 51.5121 37.411 50.6376C37.6322 50.2017 37.8339 49.8246 37.9803 49.5565C38.0534 49.4225 38.1127 49.3158 38.1536 49.2428C38.174 49.2063 38.1899 49.1782 38.2006 49.1593C38.2059 49.1498 38.21 49.1427 38.2127 49.1379C38.214 49.1355 38.2151 49.1338 38.2157 49.1326C38.216 49.132 38.2163 49.1316 38.2164 49.1313C38.2165 49.1312 38.2166 49.1311 38.2166 49.131C38.2166 49.131 38.2166 49.131 38.2167 49.131C38.2167 49.131 38.2167 49.131 37.9996 49.0068ZM35.6659 53.383C34.8643 55.7878 34.865 58.7129 35.1324 60.3169L35.6256 60.2347C35.3688 58.6939 35.3695 55.8535 36.1403 53.5411L35.6659 53.383ZM37.9996 51.8896C37.776 51.7778 37.776 51.7778 37.776 51.7779C37.776 51.7779 37.776 51.778 37.7759 51.778C37.7759 51.7781 37.7758 51.7783 37.7757 51.7785C37.7755 51.7789 37.7752 51.7794 37.7749 51.7801C37.7742 51.7815 37.7732 51.7836 37.7718 51.7862C37.7692 51.7915 37.7654 51.7993 37.7604 51.8095C37.7504 51.8298 37.7359 51.8596 37.7174 51.8982C37.6805 51.9753 37.6275 52.0873 37.5633 52.2281C37.435 52.5097 37.2612 52.907 37.079 53.3706C36.7164 54.2936 36.3141 55.4961 36.1792 56.5758L36.6753 56.6378C36.8024 55.621 37.1863 54.4649 37.5444 53.5534C37.7226 53.0998 37.8928 52.7109 38.0183 52.4355C38.081 52.2979 38.1325 52.1889 38.1682 52.1144C38.1861 52.0772 38.2 52.0487 38.2093 52.0296C38.214 52.02 38.2176 52.0129 38.2199 52.0081C38.2211 52.0058 38.222 52.004 38.2225 52.0029C38.2228 52.0023 38.223 52.0019 38.2231 52.0017C38.2232 52.0015 38.2232 52.0015 38.2232 52.0014C38.2233 52.0014 38.2233 52.0014 38.2233 52.0014C38.2233 52.0014 38.2233 52.0014 37.9996 51.8896ZM36.1792 56.5758C35.8655 59.0855 36.1819 60.0626 36.4427 61.6273L36.9359 61.5451C36.6725 59.9648 36.3723 59.0622 36.6753 56.6378L36.1792 56.5758ZM37.7712 51.9911C37.7658 51.9781 37.7589 51.9568 37.7568 51.9488C37.7556 51.9436 37.7537 51.9345 37.7531 51.9308C37.7519 51.9235 37.7513 51.9178 37.7511 51.9155C37.7506 51.9106 37.7504 51.9071 37.7504 51.9069C37.7504 51.9059 37.7504 51.9068 37.7505 51.9108C37.7507 51.9182 37.7509 51.9302 37.751 51.9475C37.7512 51.9815 37.7513 52.0316 37.7513 52.0959C37.7512 52.2242 37.7506 52.4066 37.7497 52.6256C37.7478 53.0689 37.7447 53.6405 37.7422 54.2302C37.7397 54.8142 37.7378 55.4003 37.7385 55.8447C37.7388 56.0668 37.7397 56.2544 37.7415 56.389C37.7424 56.456 37.7435 56.5114 37.745 56.5519C37.7457 56.5718 37.7466 56.5905 37.7477 56.606C37.7483 56.6135 37.7491 56.6232 37.7505 56.6334C37.7512 56.6384 37.7523 56.6462 37.7542 56.6553C37.7554 56.6609 37.7598 56.6825 37.7709 56.7076L38.2284 56.506C38.239 56.5301 38.243 56.5501 38.2437 56.5535C38.2452 56.5605 38.2459 56.5656 38.2461 56.5673C38.2466 56.571 38.2466 56.5721 38.2464 56.5688C38.2459 56.5629 38.2453 56.5517 38.2447 56.534C38.2434 56.4992 38.2424 56.4482 38.2415 56.3823C38.2397 56.2508 38.2388 56.0656 38.2385 55.844C38.2379 55.4011 38.2397 54.8163 38.2422 54.2324C38.2447 53.654 38.2478 53.0605 38.2497 52.6277C38.2506 52.4087 38.2512 52.2255 38.2513 52.0961C38.2513 52.0316 38.2512 51.9799 38.251 51.9437C38.2508 51.9257 38.2506 51.9105 38.2504 51.8991C38.2503 51.8937 38.2501 51.8872 38.2497 51.8811C38.2496 51.8783 38.2493 51.8728 38.2487 51.8664C38.2484 51.8634 38.2477 51.8571 38.2464 51.8493C38.2464 51.8492 38.2425 51.8204 38.2281 51.7881L37.7712 51.9911ZM37.7706 56.7069C38.576 58.5507 38.7365 59.8615 38.6251 60.8352C38.514 61.8072 38.1298 62.4701 37.7867 63.0275L38.2126 63.2896C38.5642 62.7182 38.9978 61.9775 39.1219 60.892C39.2458 59.808 39.059 58.4074 38.2287 56.5068L37.7706 56.7069ZM37.7728 56.5017C36.9434 58.2911 36.8118 59.7063 36.9605 60.8227C37.1083 61.9324 37.5336 62.733 37.7717 63.2613L38.2276 63.0558C37.9781 62.5024 37.5921 61.7774 37.4561 60.7567C37.3211 59.7428 37.4333 58.423 38.2265 56.712L37.7728 56.5017ZM53.8845 19.6213C56.0765 20.6013 57.8196 22.3819 59.0118 24.2881C60.2066 26.1986 60.8289 28.2042 60.8124 29.6108L61.3124 29.6167C61.3303 28.085 60.6632 25.9856 59.4357 24.023C58.2056 22.0561 56.3936 20.1954 54.0886 19.1648L53.8845 19.6213ZM52.059 19.6262C54.3534 20.5154 56.3382 22.5142 57.7249 24.6908C59.1157 26.874 59.8685 29.1784 59.7621 30.6439L60.2607 30.6801C60.3785 29.0589 59.562 26.6441 58.1466 24.4221C56.7269 22.1936 54.6685 20.1012 52.2397 19.1599L52.059 19.6262ZM50.2313 19.8908C52.6646 20.7532 54.9082 22.9962 56.489 25.4386C57.2769 26.656 57.8932 27.9125 58.2824 29.0538C58.6737 30.2012 58.8269 31.2076 58.716 31.9346L59.2103 32.0101C59.3389 31.1672 59.1576 30.0712 58.7556 28.8924C58.3516 27.7075 57.716 26.4142 56.9087 25.1669C55.2991 22.6799 52.9789 20.3341 50.3984 19.4195L50.2313 19.8908ZM49.1961 20.9433C51.6947 21.6769 53.9057 23.9815 55.4202 26.5576C56.1745 27.8407 56.7483 29.1786 57.0945 30.3994C57.4422 31.6256 57.5539 32.7113 57.407 33.4989L57.8985 33.5906C58.0656 32.6944 57.9328 31.5229 57.5756 30.263C57.2168 28.9977 56.6251 27.6207 55.8512 26.3042C54.3093 23.6815 52.0131 21.2492 49.337 20.4635L49.1961 20.9433ZM48.4017 21.7269C50.8226 22.529 52.942 25.1156 54.3998 27.9596C55.1246 29.3738 55.6773 30.8353 56.0168 32.1402C56.358 33.4519 56.4773 34.5811 56.3576 35.3403L56.8514 35.4182C56.9871 34.5581 56.8481 33.35 56.5007 32.0144C56.1515 30.6721 55.5853 29.1764 54.8447 27.7315C53.3715 24.8574 51.1734 22.1185 48.559 21.2523L48.4017 21.7269ZM48.4054 23.8246C50.6664 24.5357 52.3944 27.0041 53.5302 29.7906C54.6614 32.5658 55.1657 35.5598 55.0448 37.1953L55.5435 37.2322C55.6716 35.4976 55.1438 32.4246 53.9932 29.6019C52.8473 26.7906 51.044 24.1303 48.5554 23.3477L48.4054 23.8246ZM48.1349 25.6563C50.4636 26.4801 51.9468 29.0787 52.8087 31.9395C53.6661 34.7851 53.8786 37.7917 53.7376 39.2868L54.2354 39.3337C54.3831 37.7673 54.1614 34.6958 53.2875 31.7953C52.4181 28.91 50.8729 26.0946 48.3017 25.1849L48.1349 25.6563ZM47.3776 27.7618C48.527 28.0048 49.453 28.735 50.1955 29.7768C50.9394 30.8206 51.4892 32.1645 51.8827 33.6004C52.6701 36.4732 52.8171 39.657 52.6862 41.388L53.1848 41.4257C53.3195 39.6442 53.1692 36.4024 52.365 33.4682C51.9627 32.0006 51.3931 30.5956 50.6027 29.4866C49.8108 28.3756 48.7875 27.5489 47.4811 27.2726L47.3776 27.7618ZM46.374 29.8635C47.5549 29.91 48.4922 30.507 49.2389 31.4679C49.9899 32.4344 50.5385 33.7589 50.9245 35.2202C51.6965 38.1421 51.7998 41.535 51.6381 43.4827L52.1364 43.5241C52.3017 41.5322 52.1974 38.0805 51.408 35.0925C51.0133 33.5989 50.4427 32.2021 49.6337 31.1611C48.8204 30.1145 47.7569 29.4176 46.3936 29.3639L46.374 29.8635ZM45.3333 31.1741C46.4868 31.1846 47.3862 31.8015 48.0913 32.8378C48.8008 33.8806 49.2973 35.3282 49.6288 36.9352C50.2911 40.1463 50.2777 43.9086 50.066 46.1L50.5637 46.1481C50.7788 43.9218 50.7936 40.1071 50.1185 36.8341C49.7812 35.1991 49.2676 33.6779 48.5047 32.5566C47.7374 31.4289 46.7022 30.6865 45.3378 30.6741L45.3333 31.1741ZM44.065 32.7433C45.0835 32.5791 45.8951 33.0901 46.5588 34.1202C47.2272 35.1575 47.7114 36.678 48.0524 38.4036C48.7332 41.8483 48.8253 46.0097 48.7546 48.4755L49.2544 48.4899C49.3255 46.0074 49.2341 41.8039 48.5429 38.3067C48.198 36.5613 47.699 34.9666 46.9791 33.8494C46.2547 32.725 45.2731 32.0421 43.9854 32.2497L44.065 32.7433ZM43.0167 34.0537C43.5312 33.9707 43.9772 34.076 44.374 34.3324C44.7769 34.5926 45.1397 35.0158 45.4625 35.5827C46.1098 36.7191 46.5629 38.3725 46.8717 40.2306C47.4883 43.9398 47.515 48.3653 47.4443 50.8342L47.944 50.8485C48.0151 48.369 47.9894 43.9055 47.365 40.1486C47.0533 38.2737 46.5888 36.5498 45.897 35.3352C45.5503 34.7265 45.1383 34.2308 44.6453 33.9124C44.1464 33.5901 43.5757 33.4571 42.9371 33.56L43.0167 34.0537ZM41.7064 35.364C42.2117 35.2825 42.6479 35.4061 43.0376 35.6999C43.4348 35.9994 43.7905 36.482 44.1038 37.1245C44.7307 38.4105 45.1526 40.2634 45.4292 42.3195C45.9814 46.4246 45.9427 51.2455 45.8718 53.7169L46.3716 53.7312C46.4426 51.2544 46.4825 46.4 45.9247 42.2529C45.6463 40.1829 45.2162 38.2653 44.5532 36.9054C44.2215 36.225 43.8227 35.6657 43.3386 35.3006C42.8468 34.9298 42.2745 34.766 41.6268 34.8704L41.7064 35.364ZM40.5821 36.4128C41.5748 36.5581 42.2914 37.1059 42.8185 37.9248C43.3509 38.7518 43.6858 39.8507 43.8959 41.0704C44.3174 43.5171 44.2221 46.3338 44.2995 48.2308L44.7991 48.2104C44.724 46.3701 44.8175 43.4744 44.3887 40.9855C44.1737 39.7373 43.8238 38.5627 43.2389 37.6541C42.6489 36.7376 41.816 36.088 40.6545 35.9181L40.5821 36.4128ZM39.493 37.1895C41.196 37.7407 42.0023 39.0349 42.3547 40.2131C42.5311 40.8031 42.591 41.3573 42.5916 41.7598C42.5918 41.962 42.5771 42.1188 42.5576 42.2187C42.5475 42.2707 42.5384 42.295 42.5359 42.3002C42.5344 42.3034 42.5406 42.2884 42.5593 42.2689C42.5781 42.2495 42.6306 42.2051 42.7148 42.2051V42.7051C42.8154 42.7051 42.8843 42.6522 42.9189 42.6163C42.9536 42.5804 42.9753 42.5409 42.9888 42.5121C43.0164 42.4532 43.0349 42.3832 43.0484 42.3144C43.076 42.1727 43.0919 41.9816 43.0916 41.7591C43.091 41.3122 43.025 40.7096 42.8337 40.0698C42.4504 38.7882 41.5533 37.3308 39.647 36.7138L39.493 37.1895ZM44.3009 50.8693C44.5366 52.9655 44.2884 54.7117 44.009 55.8975C43.8693 56.4901 43.7219 56.9429 43.6229 57.2303C43.5753 57.3683 43.5337 57.4828 43.5141 57.5449C43.5089 57.5613 43.5032 57.5804 43.4989 57.5989C43.4968 57.6079 43.4939 57.6217 43.4921 57.6377C43.491 57.6471 43.4862 57.6862 43.4977 57.7328C43.5038 57.7577 43.5194 57.8052 43.562 57.849C43.6112 57.8996 43.6764 57.9246 43.74 57.9253C43.7946 57.9258 43.8355 57.9087 43.8554 57.8988C43.8772 57.8881 43.8932 57.8763 43.9024 57.869C43.9327 57.845 43.9544 57.8164 43.961 57.8079L43.5653 57.5023C43.5579 57.5118 43.569 57.4953 43.5918 57.4772C43.5991 57.4714 43.6134 57.4607 43.6337 57.4507C43.6522 57.4415 43.6918 57.4247 43.7453 57.4253C43.8078 57.426 43.8721 57.4506 43.9205 57.5005C43.9624 57.5435 43.9774 57.5899 43.9832 57.6132C43.9939 57.6569 43.9892 57.6915 43.9888 57.695C43.9876 57.705 43.9861 57.7114 43.986 57.7116C43.9858 57.7124 43.9869 57.7081 43.9909 57.6953C44.0081 57.6407 44.0424 57.5474 44.0956 57.3931C44.198 57.0959 44.3509 56.6263 44.4956 56.0122C44.7849 54.7843 45.0413 52.9792 44.7978 50.8134L44.3009 50.8693ZM65.9408 26.764C64.0384 27.5971 62.0864 29.5781 60.1746 32.0848C58.2562 34.5999 56.3521 37.6804 54.5542 40.7566L54.9859 41.0089C56.7816 37.9364 58.6732 34.8777 60.5721 32.388C62.4775 29.8898 64.3642 28.0003 66.1413 27.2221L65.9408 26.764ZM54.5613 40.7452C53.329 42.6157 52.018 44.4216 50.8164 46.1053C49.6174 47.7854 48.525 49.3472 47.7413 50.7172L48.1753 50.9655C48.9447 49.6205 50.0225 48.0785 51.2234 46.3958C52.4216 44.7167 53.74 42.9007 54.9788 41.0202L54.5613 40.7452ZM68.5594 26.2399C66.657 27.073 64.705 29.054 62.7932 31.5606C60.8749 34.0758 58.9707 37.1563 57.1728 40.2324L57.6045 40.4847C59.4002 37.4122 61.2918 34.3536 63.1908 31.8638C65.0962 29.3656 66.9829 27.4761 68.76 26.6979L68.5594 26.2399ZM57.1799 40.221C55.9569 42.0775 53.5439 44.7893 51.2242 47.3946C50.0681 48.6932 48.9374 49.963 47.9987 51.0779C47.0634 52.1888 46.3056 53.1612 45.9047 53.862L46.3387 54.1103C46.7144 53.4536 47.4444 52.5127 48.3812 51.4C49.3145 50.2914 50.4402 49.0272 51.5977 47.7271C53.9054 45.1352 56.3494 42.3906 57.5974 40.4961L57.1799 40.221ZM70.3959 25.9778C68.4935 26.8109 66.5415 28.7919 64.6297 31.2986C62.7114 33.8137 60.8072 36.8942 59.0093 39.9703L59.441 40.2226C61.2368 37.1502 63.1284 34.0915 65.0273 31.6018C66.9327 29.1036 68.8194 27.2141 70.5965 26.4358L70.3959 25.9778ZM59.0164 39.959C58.4103 40.879 57.2443 42.2626 55.799 43.8738C54.3572 45.4811 52.6493 47.302 50.9676 49.0932C49.2871 50.8832 47.6324 52.6438 46.3008 54.1267C44.9767 55.6012 43.9503 56.8244 43.5461 57.531L43.9801 57.7793C44.3525 57.1283 45.3382 55.9469 46.6728 54.4607C47.9998 52.9829 49.6502 51.2269 51.3322 49.4354C53.013 47.6452 54.7249 45.82 56.1712 44.2076C57.6142 42.5991 58.8045 41.1895 59.434 40.234L59.0164 39.959ZM71.1205 26.0164C70.4861 26.5558 69.5337 27.6608 68.3985 29.0815C67.2584 30.5084 65.919 32.2731 64.5072 34.1469C61.6805 37.8988 58.5646 42.0865 56.1523 44.9135L56.5326 45.2381C58.9575 42.3963 62.0856 38.192 64.9066 34.4478C66.3186 32.5736 67.654 30.8143 68.7891 29.3936C69.9293 27.9666 70.8527 26.9004 71.4444 26.3973L71.1205 26.0164ZM37.7485 13.1944C37.982 15.9604 38.545 17.7561 40.0519 19.5586C41.5399 21.3386 43.9447 23.1184 47.8107 25.886L48.1017 25.4794C44.2174 22.6987 41.8737 20.9583 40.4355 19.2379C39.0161 17.5401 38.4749 15.8554 38.2467 13.1524L37.7485 13.1944ZM37.7563 13.2389C38.0237 14.2243 38.8462 15.2264 39.8704 16.1648C40.9024 17.1103 42.174 18.0219 43.3912 18.8212C44.609 19.6208 45.7814 20.3138 46.6123 20.8174C47.0306 21.071 47.3566 21.2732 47.5627 21.4183C47.6693 21.4933 47.7275 21.5419 47.7512 21.5674C47.7684 21.5859 47.7425 21.5658 47.73 21.5155C47.7219 21.4828 47.7175 21.4277 47.7455 21.3684C47.7733 21.3098 47.8176 21.2793 47.8452 21.2656L48.0672 21.7136C48.1098 21.6925 48.1643 21.6525 48.1975 21.5824C48.231 21.5116 48.2272 21.443 48.2153 21.3949C48.1951 21.3137 48.1433 21.2548 48.1174 21.227C48.0549 21.1597 47.9584 21.0854 47.8505 21.0094C47.628 20.8528 47.2869 20.6417 46.8715 20.3899C46.0349 19.8827 44.8736 19.1964 43.6657 18.4033C42.4572 17.6098 41.2112 16.7152 40.2081 15.7961C39.1972 14.8699 38.4671 13.9489 38.2389 13.1079L37.7563 13.2389ZM37.7507 13.2126C37.9647 14.5606 38.2865 15.6016 38.7648 16.4875C39.2438 17.3747 39.8727 18.0933 40.6836 18.805C41.4907 19.5135 42.486 20.2217 43.6972 21.0817C44.9114 21.9439 46.3518 22.9651 48.0641 24.307L48.3725 23.9135C46.65 22.5635 45.2009 21.5363 43.9867 20.674C42.7693 19.8096 41.7972 19.1172 41.0134 18.4293C40.2333 17.7446 39.6479 17.0708 39.2048 16.25C38.761 15.428 38.4527 14.4453 38.2445 13.1342L37.7507 13.2126ZM37.7479 13.1621C37.7102 13.9936 37.7032 14.7647 37.7481 15.4926L38.2471 15.4618C38.2037 14.7579 38.2101 14.0061 38.2473 13.1847L37.7479 13.1621ZM37.7481 15.4926C37.8781 17.5997 38.4437 19.3344 39.9363 21.1456C41.4177 22.9432 43.8067 24.8089 47.5597 27.2038L47.8286 26.7823C44.0828 24.392 41.7507 22.561 40.3222 20.8276C38.9047 19.1076 38.3715 17.477 38.2471 15.4618L37.7481 15.4926ZM39.1561 21.4524C40.4263 23.8228 42.7247 26.1926 46.7735 28.7762L47.0424 28.3547C43.0344 25.7971 40.812 23.4841 39.5968 21.2162L39.1561 21.4524ZM39.1265 21.3314C39.1253 21.43 39.1261 21.5278 39.1287 21.625L39.6286 21.6114C39.6261 21.5207 39.6254 21.4293 39.6264 21.3372L39.1265 21.3314ZM39.1287 21.625C39.1308 21.7021 39.1341 21.7787 39.1385 21.8548L39.6377 21.8259C39.6336 21.7548 39.6305 21.6833 39.6286 21.6114L39.1287 21.625ZM39.1385 21.8548C39.2721 24.156 40.4497 26.0093 41.8557 27.3858C43.2606 28.7612 44.9097 29.6775 46.032 30.1091L46.2115 29.6425C45.1446 29.2321 43.5557 28.3504 42.2055 27.0285C40.8564 25.7077 39.7618 23.9643 39.6377 21.8259L39.1385 21.8548ZM39.1264 21.3343C39.1264 21.431 39.1272 21.527 39.1287 21.6221L39.6286 21.6143C39.6272 21.5218 39.6264 21.4284 39.6264 21.3343H39.1264ZM39.1287 21.6221C39.1329 21.8941 39.1432 22.1595 39.1591 22.4183L39.6582 22.3875C39.6427 22.1365 39.6328 21.8788 39.6286 21.6143L39.1287 21.6221ZM39.1591 22.4183C39.5374 28.5598 43.1073 30.9904 45.0174 31.4298L45.1295 30.9425C43.4464 30.5554 40.0236 28.3196 39.6582 22.3875L39.1591 22.4183ZM37.7479 13.1621C37.6934 14.3651 37.6667 15.4477 37.7483 16.5055L38.2469 16.4671C38.1677 15.4415 38.193 14.3845 38.2473 13.1847L37.7479 13.1621ZM37.7483 16.5055C37.8307 17.5737 38.0233 18.6156 38.4071 19.7361L38.8801 19.5741C38.5114 18.4978 38.3264 17.4978 38.2469 16.4671L37.7483 16.5055ZM38.4071 19.7361C38.6034 20.3091 38.8495 20.8802 39.1561 21.4524L39.5968 21.2162C39.3032 20.6682 39.0678 20.1219 38.8801 19.5741L38.4071 19.7361ZM41.1656 30.7968C41.1748 30.8112 41.1841 30.8256 41.1933 30.8397L41.6124 30.5671C41.6038 30.5538 41.5952 30.5405 41.5867 30.5272L41.1656 30.7968ZM41.1933 30.8397C42.134 32.2853 43.23 32.7937 44.0399 32.7461L44.0105 32.2469C43.4381 32.2806 42.4917 31.9183 41.6124 30.567L41.1933 30.8397ZM38.1834 38.4293C38.9881 37.5354 40.1345 36.0832 40.9399 34.6192C41.3423 33.8878 41.6661 33.1417 41.8152 32.4532C41.9635 31.7679 41.9461 31.1032 41.6151 30.5713L41.1906 30.8355C41.4237 31.21 41.4619 31.7221 41.3265 32.3474C41.1918 32.9696 40.8926 33.6679 40.5018 34.3782C39.7209 35.7978 38.6007 37.2185 37.8118 38.0947L38.1834 38.4293ZM40.3606 29.1802C40.6078 29.8162 40.88 30.3509 41.1656 30.7968L41.5867 30.5272C41.321 30.1124 41.0633 29.6079 40.8266 28.999L40.3606 29.1802ZM40.3442 29.0722C40.2526 30.3871 39.7515 31.6848 39.1984 32.7837C38.9227 33.3316 38.6359 33.8263 38.3842 34.2457C38.136 34.6592 37.913 35.0133 37.7783 35.2592L38.2169 35.4993C38.3453 35.2648 38.5547 34.9331 38.8129 34.5031C39.0675 34.0789 39.3613 33.5722 39.645 33.0085C40.2109 31.8842 40.7447 30.5176 40.843 29.107L40.3442 29.0722ZM39.1265 21.3385C39.1294 21.5107 39.1333 21.6804 39.1382 21.8477L39.638 21.833C39.6332 21.6678 39.6293 21.5002 39.6264 21.3301L39.1265 21.3385ZM39.1382 21.8477C39.1438 22.0396 39.1508 22.2283 39.1589 22.4139L39.6584 22.3919C39.6504 22.2088 39.6436 22.0225 39.638 21.833L39.1382 21.8477ZM39.1589 22.4139C39.199 23.3253 39.2691 24.1613 39.3643 24.9273L39.8604 24.8657C39.7671 24.1139 39.698 23.2912 39.6584 22.3919L39.1589 22.4139ZM39.3643 24.9273C39.4475 25.5977 39.55 26.2147 39.6683 26.782L40.1578 26.6799C40.0425 26.127 39.9422 25.5236 39.8604 24.8657L39.3643 24.9273ZM39.6683 26.782C39.8615 27.7079 40.097 28.502 40.3606 29.1802L40.8266 28.999C40.5742 28.3497 40.3461 27.5824 40.1578 26.6799L39.6683 26.782ZM39.6648 26.7014C39.4006 28.9219 38.0836 30.234 37.8249 30.4813L38.1703 30.8427C38.46 30.5659 39.8767 29.1525 40.1613 26.7605L39.6648 26.7014ZM39.3654 24.8575C39.24 25.6517 38.887 26.2535 38.5654 26.5919C38.4004 26.7656 38.2628 26.8499 38.1864 26.8732C38.1484 26.8848 38.1567 26.8721 38.1873 26.8853C38.2308 26.9041 38.2419 26.9399 38.2416 26.9384L37.7536 27.0477C37.7811 27.1702 37.8552 27.2864 37.9886 27.3441C38.1092 27.3964 38.2344 27.3813 38.3322 27.3515C38.5273 27.292 38.7365 27.1378 38.9279 26.9363C39.3192 26.5245 39.718 25.8299 39.8593 24.9355L39.3654 24.8575ZM37.7476 13.1734V15.4772H38.2476V13.1734H37.7476ZM37.7476 15.4772V16.4863H38.2476V15.4772H37.7476ZM37.7476 16.4863V23.8482H38.2476V16.4863H37.7476ZM37.7476 23.8482V26.993H38.2476V23.8482H37.7476ZM37.7476 26.993V30.662H38.2476V26.993H37.7476ZM37.7476 30.662V35.3792H38.2476V30.662H37.7476ZM37.7476 35.3792V38.262H38.2476V35.3792H37.7476ZM39.1333 21.276C38.8458 22.4742 38.5757 23.1623 38.3602 23.4999C38.3076 23.5825 38.2624 23.6373 38.2263 23.6719C38.1896 23.7071 38.1705 23.7136 38.1707 23.7135C38.1762 23.7118 38.1931 23.7102 38.21 23.7175C38.222 23.7227 38.217 23.7252 38.2011 23.703L37.7941 23.9934C37.8453 24.0651 37.9156 24.1346 38.0102 24.1759C38.1098 24.2193 38.217 24.2227 38.3192 24.1909C38.5045 24.1333 38.6552 23.9673 38.7818 23.7689C39.0444 23.3572 39.3297 22.6006 39.6195 21.3926L39.1333 21.276ZM37.9976 40.0965C37.8589 40.3045 37.8589 40.3045 37.8589 40.3045C37.8589 40.3045 37.8589 40.3045 37.8589 40.3045C37.8589 40.3045 37.859 40.3046 37.8591 40.3046C37.8592 40.3047 37.8595 40.3049 37.8598 40.3051C37.8605 40.3056 37.8615 40.3063 37.8629 40.3072C37.8657 40.3091 37.87 40.3119 37.8755 40.3156C37.8867 40.3232 37.9033 40.3343 37.9248 40.3489C37.9678 40.3781 38.0303 40.4207 38.108 40.4745C38.2635 40.5821 38.4797 40.7339 38.722 40.9109C39.2091 41.2668 39.7923 41.7172 40.2025 42.1113L40.5489 41.7507C40.1133 41.3322 39.5074 40.8654 39.0169 40.5072C38.7704 40.3271 38.5507 40.1727 38.3924 40.0633C38.3133 40.0085 38.2495 39.965 38.2054 39.9351C38.1833 39.9201 38.1662 39.9086 38.1545 39.9007C38.1486 39.8968 38.1442 39.8938 38.1411 39.8917C38.1396 39.8907 38.1384 39.8899 38.1376 39.8894C38.1372 39.8891 38.1369 39.8889 38.1367 39.8888C38.1366 39.8887 38.1365 39.8886 38.1364 39.8886C38.1364 39.8886 38.1364 39.8885 38.1364 39.8885C38.1363 39.8885 38.1363 39.8885 37.9976 40.0965ZM40.2025 42.1113C42.7833 44.5904 43.7101 48.0095 44.3069 50.3783L44.7918 50.2561C44.1965 47.8934 43.2445 44.3401 40.5489 41.7507L40.2025 42.1113ZM37.9976 41.931C37.8406 42.1255 37.8406 42.1255 37.8406 42.1255C37.8406 42.1255 37.8406 42.1255 37.8406 42.1256C37.8407 42.1256 37.8408 42.1257 37.8409 42.1258C37.8411 42.126 37.8415 42.1263 37.842 42.1267C37.843 42.1275 37.8446 42.1288 37.8467 42.1305C37.851 42.1339 37.8574 42.1391 37.8658 42.146C37.8827 42.1598 37.9077 42.1803 37.9401 42.2071C38.0048 42.2606 38.0987 42.3389 38.2149 42.4378C38.4475 42.6357 38.7688 42.9154 39.1237 43.2425C39.8372 43.9003 40.6726 44.7373 41.2005 45.4824L41.6085 45.1933C41.0486 44.4032 40.1806 43.5368 39.4626 42.8749C39.1017 42.5422 38.7753 42.2581 38.539 42.057C38.4208 41.9564 38.325 41.8766 38.2587 41.8217C38.2255 41.7943 38.1996 41.7731 38.182 41.7587C38.1732 41.7515 38.1664 41.746 38.1618 41.7423C38.1595 41.7404 38.1578 41.739 38.1566 41.738C38.156 41.7375 38.1555 41.7371 38.1552 41.7369C38.155 41.7367 38.1549 41.7366 38.1548 41.7366C38.1547 41.7365 38.1547 41.7365 38.1547 41.7365C38.1546 41.7365 38.1546 41.7364 37.9976 41.931ZM41.2005 45.4824C42.0853 46.7311 42.7302 48.3385 43.1208 49.8341C43.5134 51.3369 43.6389 52.6867 43.5165 53.4209L44.0097 53.5031C44.1494 52.6649 44.0032 51.2335 43.6046 49.7077C43.2042 48.1747 42.5388 46.5063 41.6085 45.1933L41.2005 45.4824ZM37.9976 44.0275C37.8328 44.2156 37.8328 44.2155 37.8328 44.2155C37.8328 44.2156 37.8329 44.2156 37.8329 44.2156C37.8329 44.2156 37.833 44.2157 37.8331 44.2158C37.8334 44.2161 37.8338 44.2164 37.8344 44.2169C37.8355 44.2179 37.8373 44.2194 37.8396 44.2215C37.8443 44.2256 37.8513 44.2318 37.8606 44.2401C37.8791 44.2566 37.9066 44.2811 37.942 44.3131C38.0129 44.3769 38.1153 44.4703 38.2409 44.5877C38.4923 44.8227 38.8361 45.1533 39.2057 45.5357C39.9514 46.3072 40.7788 47.2662 41.1809 48.0704L41.6281 47.8468C41.1887 46.968 40.3127 45.9615 39.5653 45.1882C39.1883 44.7982 38.8382 44.4616 38.5823 44.2224C38.4543 44.1028 38.3497 44.0074 38.2769 43.9418C38.2405 43.909 38.2121 43.8836 38.1927 43.8663C38.1829 43.8577 38.1755 43.8511 38.1704 43.8466C38.1678 43.8443 38.1659 43.8426 38.1645 43.8414C38.1639 43.8408 38.1633 43.8404 38.163 43.8401C38.1628 43.8399 38.1627 43.8398 38.1626 43.8397C38.1625 43.8396 38.1625 43.8396 38.1624 43.8396C38.1624 43.8395 38.1624 43.8395 37.9976 44.0275ZM41.1809 48.0704C41.8181 49.3449 42.2064 51.0168 42.4013 52.5758C42.5963 54.1364 42.5937 55.551 42.4682 56.3037L42.9614 56.3859C43.0981 55.5661 43.0954 54.0979 42.8974 52.5138C42.6992 50.9279 42.3012 49.193 41.6281 47.8468L41.1809 48.0704ZM37.9976 46.3862C37.8107 46.5522 37.8107 46.5522 37.8107 46.5522C37.8108 46.5522 37.8108 46.5523 37.8108 46.5523C37.8108 46.5523 37.8109 46.5524 37.811 46.5525C37.8112 46.5528 37.8115 46.5531 37.812 46.5537C37.8129 46.5547 37.8144 46.5563 37.8163 46.5585C37.8201 46.5628 37.8258 46.5693 37.8334 46.578C37.8486 46.5952 37.8711 46.621 37.9001 46.6546C37.9582 46.7217 38.0422 46.82 38.1457 46.9437C38.3526 47.1913 38.6368 47.5403 38.9451 47.946C39.5653 48.7621 40.2702 49.7902 40.6506 50.6777L41.1101 50.4808C40.7043 49.5339 39.9678 48.4654 39.3432 47.6435C39.0291 47.2303 38.74 46.875 38.5293 46.623C38.4239 46.4969 38.338 46.3966 38.2783 46.3276C38.2485 46.2931 38.2252 46.2664 38.2093 46.2482C38.2013 46.2391 38.1952 46.2322 38.191 46.2275C38.1889 46.2251 38.1873 46.2233 38.1862 46.2221C38.1857 46.2215 38.1853 46.221 38.185 46.2206C38.1848 46.2205 38.1847 46.2203 38.1846 46.2202C38.1846 46.2202 38.1845 46.2201 38.1845 46.2201C38.1845 46.2201 38.1845 46.2201 37.9976 46.3862ZM40.6506 50.6777C41.7785 53.3096 41.678 56.8521 41.42 58.4002L41.9132 58.4824C42.1793 56.8857 42.2906 53.2352 41.1101 50.4808L40.6506 50.6777ZM37.9996 49.0068C37.7826 49.1308 37.7826 49.1308 37.7826 49.1308C37.7826 49.1309 37.7826 49.1309 37.7826 49.1309C37.7826 49.131 37.7827 49.1311 37.7828 49.1312C37.7829 49.1315 37.7832 49.1319 37.7835 49.1325C37.7842 49.1336 37.7852 49.1354 37.7865 49.1378C37.7892 49.1425 37.7933 49.1497 37.7986 49.1591C37.8093 49.178 37.8251 49.2061 37.8456 49.2426C37.8864 49.3157 37.9456 49.4224 38.0187 49.5564C38.1648 49.8244 38.3662 50.2016 38.5872 50.6374C39.0307 51.512 39.5474 52.6124 39.857 53.5411L40.3313 53.383C40.0097 52.4182 39.4792 51.291 39.0332 50.4113C38.8095 49.9701 38.6056 49.5885 38.4577 49.317C38.3837 49.1813 38.3236 49.073 38.282 48.9986C38.2611 48.9613 38.2449 48.9326 38.2338 48.913C38.2283 48.9032 38.2241 48.8958 38.2212 48.8907C38.2198 48.8882 38.2187 48.8862 38.2179 48.8849C38.2175 48.8843 38.2173 48.8838 38.2171 48.8834C38.217 48.8832 38.2169 48.8831 38.2168 48.883C38.2168 48.883 38.2168 48.8829 38.2168 48.8829C38.2167 48.8829 38.2167 48.8828 37.9996 49.0068ZM39.857 53.5411C40.6278 55.8535 40.6285 58.6939 40.3717 60.2347L40.8649 60.3169C41.1322 58.7129 41.1329 55.7878 40.3313 53.383L39.857 53.5411ZM37.9996 51.8896C37.776 52.0013 37.776 52.0012 37.776 52.0012C37.776 52.0013 37.776 52.0013 37.776 52.0013C37.776 52.0013 37.776 52.0014 37.7761 52.0015C37.7762 52.0018 37.7764 52.0022 37.7767 52.0027C37.7773 52.0039 37.7781 52.0056 37.7793 52.008C37.7816 52.0127 37.7852 52.0199 37.7899 52.0295C37.7992 52.0486 37.8131 52.0771 37.8309 52.1143C37.8666 52.1887 37.918 52.2978 37.9806 52.4354C38.106 52.7107 38.2759 53.0997 38.4538 53.5533C38.8114 54.4648 39.1948 55.6209 39.3219 56.6378L39.8181 56.5758C39.6831 55.4962 39.2814 54.2937 38.9193 53.3707C38.7374 52.9071 38.5639 52.5098 38.4357 52.2283C38.3716 52.0874 38.3188 51.9754 38.2818 51.8983C38.2634 51.8598 38.2489 51.8299 38.2389 51.8096C38.234 51.7995 38.2301 51.7917 38.2275 51.7864C38.2262 51.7837 38.2252 51.7817 38.2245 51.7803C38.2241 51.7796 38.2239 51.779 38.2237 51.7786C38.2236 51.7784 38.2235 51.7783 38.2234 51.7782C38.2234 51.7781 38.2234 51.778 38.2234 51.778C38.2233 51.778 38.2233 51.7779 37.9996 51.8896ZM39.3219 56.6378C39.625 59.0622 39.3247 59.9648 39.0613 61.5451L39.5545 61.6273C39.8153 60.0626 40.1318 59.0855 39.8181 56.5758L39.3219 56.6378Z" fill="currentColor"/>
</svg>
