<svg width="165" height="165" viewBox="0 0 165 165" fill="none" xmlns="http://www.w3.org/2000/svg">
<path d="M29.9358 61.2878C34.2483 39.6466 51.5229 37.8479 60.8788 46.3723M60.8788 46.3723C66.8972 36.731 71.7872 32.6809 82.4995 28.4482C93.2119 32.6809 98.1018 36.731 104.12 46.3723M60.8788 46.3723C60.8788 46.3723 58.603 49.7861 61.0414 57.1827C63.4798 64.5792 70.5805 72.9425 81.9306 83.0689C59.9701 95.1974 67.6987 123.123 82.4995 137.121M82.4995 137.121C65.1627 123.713 61.405 109.331 50.0685 89.8965C46.0857 83.0689 43.2409 77.9482 38.6892 71.6896C34.1375 65.431 29.2965 60.9142 27.0615 60.0275C25.1436 59.2666 22.9363 58.6143 20.4823 58.1078C18.3787 57.6737 16.0939 57.3467 13.6547 57.1504C12.3049 57.0418 10.9078 56.9732 9.46804 56.9486M82.4995 137.121C78.416 135.652 43.2409 97.862 32.4306 87.6207C21.6202 77.3793 8.79265 63.5285 9.46804 56.9486M82.4995 137.121C99.8364 123.713 103.594 109.331 114.931 89.8965C118.913 83.0689 121.758 77.9482 126.31 71.6896C130.862 65.431 135.703 60.9142 137.938 60.0275C139.855 59.2666 142.063 58.6143 144.517 58.1078C146.62 57.6737 148.905 57.3467 151.344 57.1504C152.694 57.0418 154.091 56.9732 155.531 56.9486M82.4995 137.121C97.3003 123.123 105.029 95.1974 83.0685 83.0689C94.4185 72.9425 101.519 64.5792 103.958 57.1827C106.396 49.7861 104.12 46.3723 104.12 46.3723M82.4995 137.121C86.5831 135.652 121.758 97.862 132.568 87.6207C143.379 77.3793 156.206 63.5285 155.531 56.9486M2.27539 57.1827C4.76917 56.9821 7.17287 56.9094 9.46804 56.9486M135.063 61.2878C130.751 39.6466 113.476 37.8479 104.12 46.3723M162.724 57.1827C160.23 56.9821 157.826 56.9094 155.531 56.9486" stroke="currentColor" stroke-width="1.5" stroke-linecap="round" stroke-linejoin="round"/>
<path d="M69.4132 70.5517L69.3336 71.0453C69.3502 71.048 69.367 71.0498 69.3838 71.0508L69.4132 70.5517ZM72.258 92.6724C72.5342 92.6724 72.758 92.4485 72.758 92.1724C72.758 91.8962 72.5342 91.6724 72.258 91.6724V92.6724ZM69.9822 125.172L69.5481 125.421C69.5596 125.441 69.5724 125.46 69.5864 125.478L69.9822 125.172ZM46.0856 88.7586L45.6539 89.0109L45.6607 89.0225L45.668 89.0337L46.0856 88.7586ZM40.4004 87.6207L39.9687 87.873L39.9755 87.8845L39.9828 87.8957L40.4004 87.6207ZM36.4132 87.0517L35.9815 87.304L35.9883 87.3156L35.9956 87.3268L36.4132 87.0517ZM82.4994 28.4482L82.9989 28.4256C82.9877 28.1796 82.799 27.9783 82.5542 27.9513C82.3094 27.9243 82.0813 28.0796 82.0168 28.3173L82.4994 28.4482ZM81.0968 42.6724L81.5698 42.8344L81.0968 42.6724ZM75.1644 66.5689L75.5855 66.8386V66.8386L75.1644 66.5689ZM82.4994 83.0689L82.1278 83.4035C82.2663 83.5573 82.4853 83.6099 82.6786 83.5357C82.8718 83.4615 82.9994 83.2759 82.9994 83.0689H82.4994ZM78.9937 54.0517L78.4975 53.99L78.9937 54.0517ZM78.3408 58.0344L77.8513 57.9323L78.3408 58.0344ZM82.7768 87.4677C83.0066 87.3144 83.0686 87.004 82.9154 86.7743C82.7621 86.5445 82.4517 86.4825 82.222 86.6357L82.7768 87.4677ZM77.3363 91.0344L76.99 90.6739L77.3363 91.0344ZM67.7904 109.119C67.7229 109.387 67.8853 109.659 68.1531 109.726C68.4209 109.794 68.6926 109.631 68.7601 109.363L67.7904 109.119ZM82.8134 91.4235C83.0283 91.2501 83.0619 90.9353 82.8885 90.7204C82.715 90.5055 82.4003 90.4719 82.1854 90.6454L82.8134 91.4235ZM75.1028 98.431L74.6949 98.1419L75.1028 98.431ZM69.489 116.151C69.5344 116.424 69.792 116.608 70.0644 116.562C70.3367 116.517 70.5207 116.259 70.4753 115.987L69.489 116.151ZM82.8289 95.9622C83.0366 95.7802 83.0574 95.4643 82.8754 95.2566C82.6934 95.049 82.3775 95.0281 82.1699 95.2101L82.8289 95.9622ZM71.7648 122.41C71.8102 122.682 72.0678 122.866 72.3402 122.821C72.6126 122.775 72.7966 122.518 72.7512 122.245L71.7648 122.41ZM82.8731 101.039C83.0566 100.833 83.038 100.517 82.8316 100.333C82.6252 100.15 82.3091 100.168 82.1257 100.375L82.8731 101.039ZM76.2408 109.81L76.7003 110.007L76.2408 109.81ZM74.0407 126.961C74.0861 127.234 74.3437 127.418 74.6161 127.372C74.8885 127.327 75.0725 127.069 75.0271 126.797L74.0407 126.961ZM82.4994 106.397L82.9335 106.149C82.8446 105.993 82.6789 105.897 82.4995 105.897C82.3201 105.896 82.1545 105.993 82.0654 106.148L82.4994 106.397ZM77.9477 116.069L77.4733 115.911L77.9477 116.069ZM76.3165 130.944C76.3619 131.217 76.6196 131.401 76.8919 131.355C77.1643 131.31 77.3483 131.052 77.3029 130.78L76.3165 130.944ZM82.4994 112.655L82.9467 112.432C82.8621 112.262 82.689 112.155 82.4995 112.155C82.3101 112.155 82.1369 112.262 82.0522 112.432L82.4994 112.655ZM79.1614 133.789C79.2068 134.061 79.4644 134.245 79.7368 134.2C80.0091 134.155 80.1932 133.897 80.1478 133.625L79.1614 133.789ZM82.4994 122.897L82.9576 122.696L82.9569 122.695L82.4994 122.897ZM82.4994 137.121L82.0435 137.326C82.1196 137.495 82.2827 137.608 82.4674 137.62C82.6521 137.631 82.8282 137.54 82.9252 137.383L82.4994 137.121ZM95.5812 70.5517L95.6105 71.0508C95.6273 71.0498 95.6441 71.048 95.6607 71.0453L95.5812 70.5517ZM92.7363 91.6724C92.4602 91.6724 92.2363 91.8962 92.2363 92.1724C92.2363 92.4485 92.4602 92.6724 92.7363 92.6724V91.6724ZM95.0122 125.172L95.4079 125.478C95.422 125.46 95.4348 125.441 95.4462 125.421L95.0122 125.172ZM118.909 88.7586L119.326 89.0337L119.334 89.0225L119.34 89.0109L118.909 88.7586ZM124.594 87.6207L125.012 87.8957L125.019 87.8845L125.026 87.873L124.594 87.6207ZM128.581 87.0517L128.999 87.3268L129.006 87.3156L129.013 87.304L128.581 87.0517ZM82.4949 28.6002L82.9775 28.4693C82.913 28.2315 82.685 28.0762 82.4401 28.1032C82.1953 28.1302 82.0066 28.3315 81.9955 28.5776L82.4949 28.6002ZM83.8975 42.6723L83.4245 42.8344L83.8975 42.6723ZM89.8299 66.5689L89.4089 66.8386L89.8299 66.5689ZM82.4949 83.0689H81.9949C81.9949 83.2759 82.1225 83.4615 82.3158 83.5357C82.509 83.6099 82.728 83.5573 82.8665 83.4034L82.4949 83.0689ZM86.0007 54.0517L86.4968 53.99L86.0007 54.0517ZM86.6535 58.0344L87.143 57.9323L86.6535 58.0344ZM82.7724 86.6357C82.5426 86.4825 82.2322 86.5445 82.079 86.7743C81.9258 87.004 81.9878 87.3144 82.2175 87.4677L82.7724 86.6357ZM87.658 91.0344L88.0044 90.6739L87.658 91.0344ZM96.2342 109.363C96.3017 109.631 96.5735 109.794 96.8412 109.726C97.109 109.659 97.2714 109.387 97.2039 109.119L96.2342 109.363ZM82.809 90.6454C82.5941 90.4719 82.2793 90.5055 82.1059 90.7204C81.9324 90.9353 81.966 91.2501 82.1809 91.4235L82.809 90.6454ZM89.8915 98.431L90.2995 98.1419L89.8915 98.431ZM94.519 115.987C94.4736 116.259 94.6576 116.517 94.93 116.562C95.2024 116.608 95.46 116.424 95.5054 116.151L94.519 115.987ZM82.8245 95.2101C82.6168 95.0281 82.3009 95.049 82.1189 95.2566C81.9369 95.4643 81.9577 95.7802 82.1654 95.9622L82.8245 95.2101ZM92.2431 122.245C92.1977 122.518 92.3817 122.775 92.6541 122.821C92.9265 122.866 93.1841 122.682 93.2295 122.41L92.2431 122.245ZM82.8687 100.375C82.6852 100.168 82.3692 100.15 82.1628 100.333C81.9564 100.517 81.9378 100.833 82.1212 101.039L82.8687 100.375ZM88.7536 109.81L88.294 110.007L88.7536 109.81ZM89.9673 126.797C89.9219 127.069 90.1059 127.327 90.3783 127.372C90.6507 127.418 90.9083 127.234 90.9537 126.961L89.9673 126.797ZM87.0467 116.069L87.521 115.911L87.0467 116.069ZM87.6914 130.78C87.646 131.052 87.83 131.31 88.1024 131.355C88.3748 131.401 88.6324 131.217 88.6778 130.944L87.6914 130.78ZM84.8466 133.625C84.8012 133.897 84.9852 134.155 85.2576 134.2C85.53 134.245 85.7876 134.061 85.833 133.789L84.8466 133.625ZM47.5825 41.647C42.5878 43.8801 38.6598 47.9129 35.9924 52.1779C33.3303 56.4344 31.8857 60.9843 31.9245 64.2989L32.9245 64.2872C32.8886 61.2227 34.2434 56.8604 36.8402 52.7081C39.4317 48.5645 43.2221 44.692 47.9906 42.5599L47.5825 41.647ZM51.5946 41.6372C46.3329 43.6764 41.8704 48.211 38.791 53.0448C35.72 57.8655 33.9528 63.0988 34.2076 66.6052L35.205 66.5327C34.9728 63.3377 36.6128 58.3253 39.6344 53.5821C42.6477 48.8521 46.9631 44.5046 51.9559 42.5696L51.5946 41.6372ZM55.591 42.2011C50.001 44.1824 44.9705 49.2664 41.4783 54.662C39.7273 57.3674 38.349 60.1721 37.4731 62.7408C36.6013 65.2974 36.2102 67.6692 36.4879 69.4892L37.4764 69.3383C37.234 67.75 37.5692 65.5573 38.4195 63.0636C39.2657 60.5821 40.6054 57.851 42.3178 55.2053C45.7522 49.8989 50.6297 45.0205 55.9251 43.1437L55.591 42.2011ZM57.893 44.4685C52.0981 46.1699 47.1204 51.4395 43.7751 57.1296C42.0966 59.9848 40.8137 62.9711 40.0357 65.7143C39.2609 68.4468 38.9744 70.9829 39.3355 72.9192L40.3185 72.7359C39.9979 71.0165 40.2421 68.6521 40.9978 65.9871C41.7505 63.333 42.9979 60.4249 44.6372 57.6364C47.9276 52.0395 52.7349 47.0251 58.1747 45.428L57.893 44.4685ZM59.5835 46.1805C53.924 48.0555 49.1586 53.9888 45.9615 60.2261C44.3549 63.3604 43.1269 66.6047 42.3696 69.5157C41.6159 72.4134 41.3157 75.0295 41.6089 76.8882L42.5967 76.7324C42.3354 75.0755 42.5962 72.6172 43.3374 69.7675C44.0752 66.9311 45.2763 63.7552 46.8514 60.6823C50.0176 54.5052 54.6257 48.8765 59.898 47.1298L59.5835 46.1805ZM59.5908 50.7299C54.2073 52.4228 50.2986 58.1822 47.8116 64.2835C45.3153 70.4077 44.1714 77.0725 44.449 80.8299L45.4463 80.7562C45.1833 77.197 46.2801 70.6901 48.7376 64.661C51.2045 58.6091 54.9625 53.2336 59.8908 51.6838L59.5908 50.7299ZM60.143 54.7182C54.5814 56.6857 51.232 62.7796 49.3453 69.0416C47.4494 75.334 46.9688 81.997 47.2888 85.3917L48.2844 85.2979C47.9778 82.0457 48.4399 75.5127 50.3027 69.3301C52.1747 63.1171 55.4001 57.4568 60.4765 55.661L60.143 54.7182ZM61.9191 59.2522C59.0963 59.8491 56.8829 61.6357 55.168 64.0418C53.4559 66.444 52.2209 69.4891 51.3483 72.6727C49.6038 79.0377 49.2776 86.0708 49.5698 89.9342L50.5669 89.8588C50.2824 86.0964 50.6018 79.1793 52.3128 72.937C53.168 69.8169 54.3632 66.894 55.9823 64.6222C57.5986 62.3545 59.6173 60.7611 62.126 60.2305L61.9191 59.2522ZM64.2728 63.7935C61.3288 63.9093 59.0306 65.4137 57.2705 67.6787C55.5191 69.9325 54.2821 72.9587 53.4261 76.1986C51.7137 82.6801 51.4873 90.1689 51.8459 94.4896L52.8425 94.4069C52.4912 90.1746 52.7155 82.8032 54.393 76.454C55.2319 73.2787 56.4247 70.3969 58.0601 68.2923C59.687 66.1988 61.7327 64.8942 64.3122 64.7927L64.2728 63.7935ZM66.5638 66.6379C63.6197 66.6648 61.3838 68.2657 59.7232 70.7062C58.0715 73.1338 56.9579 76.4302 56.2262 79.9776C54.7616 87.078 54.7936 95.3555 55.2603 100.186L56.2557 100.09C55.7957 95.3292 55.7665 87.1565 57.2056 80.1796C57.9257 76.6883 59.0051 73.5393 60.55 71.2687C62.0862 69.011 64.0506 67.6609 66.5729 67.6379L66.5638 66.6379ZM69.4928 70.0581C66.7202 69.6111 64.6036 71.0789 63.0359 73.5121C61.4775 75.9308 60.3955 79.3866 59.6469 83.1742C58.1472 90.7623 57.9486 99.8848 58.103 105.273L59.1026 105.244C58.9492 99.8894 59.1489 90.8512 60.6279 83.3681C61.3687 79.62 62.4212 76.3125 63.8766 74.0537C65.3227 71.8092 67.0994 70.6851 69.3336 71.0453L69.4928 70.0581ZM71.7686 72.9029C70.3928 72.6811 69.1645 72.9675 68.09 73.6615C67.0275 74.3478 66.1371 75.418 65.3865 76.7359C63.8885 79.3662 62.8809 83.1028 62.2045 87.1719C60.8495 95.3242 60.7936 105.011 60.9479 110.394L61.9475 110.365C61.7938 105.004 61.8518 95.3928 63.191 87.3359C63.8618 83.3004 64.8464 79.7048 66.2555 77.2308C66.9585 75.9965 67.7504 75.0714 68.6326 74.5015C69.503 73.9393 70.4819 73.7084 71.6095 73.8901L71.7686 72.9029ZM74.6134 75.7477C73.2193 75.523 71.9885 75.8753 70.9296 76.6738C69.8859 77.4608 69.0239 78.6683 68.3053 80.1424C66.869 83.0886 65.9358 87.2461 65.3315 91.739C64.121 100.739 64.2076 111.275 64.3617 116.652L65.3613 116.624C65.2075 111.258 65.1234 100.788 66.3226 91.8723C66.9232 87.4071 67.84 83.3789 69.2042 80.5806C69.8858 79.1825 70.6617 78.1282 71.5316 77.4723C72.3864 76.8278 73.345 76.5561 74.4543 76.735L74.6134 75.7477ZM76.7374 78.0225C74.2301 78.3893 72.4317 79.7908 71.1561 81.7724C69.8909 83.7378 69.1326 86.2816 68.6661 88.989C67.7359 94.389 67.9389 100.669 67.7757 104.669L68.7748 104.71C68.9427 100.596 68.7359 94.4743 69.6516 89.1588C70.1082 86.5084 70.8367 84.116 71.997 82.3136C73.1468 80.5274 74.7124 79.3294 76.8821 79.0119L76.7374 78.0225ZM78.9316 79.7484C74.8103 81.0822 72.8704 84.2325 72.041 87.006C71.6268 88.3908 71.4842 89.695 71.4829 90.6614C71.4822 91.1427 71.5166 91.5546 71.5759 91.8587C71.6048 92.0067 71.6443 92.1548 71.702 92.278C71.7302 92.3383 71.775 92.4195 71.8457 92.4927C71.9164 92.5659 72.0554 92.6724 72.258 92.6724V91.6724C72.4251 91.6724 72.5288 91.7605 72.5649 91.7979C72.6011 91.8354 72.612 91.8634 72.6077 91.8541C72.6003 91.8382 72.5797 91.7816 72.5574 91.6673C72.5144 91.4467 72.4823 91.1035 72.4829 90.6628C72.4841 89.7852 72.6147 88.5777 72.999 87.2925C73.7666 84.7259 75.525 81.902 79.2396 80.6998L78.9316 79.7484ZM67.7784 110.323C67.2502 115.02 67.8062 118.934 68.4335 121.596C68.7472 122.927 69.0788 123.945 69.3008 124.59C69.4157 124.923 69.4908 125.128 69.5284 125.247C69.5372 125.275 69.5399 125.286 69.5399 125.285C69.5397 125.285 69.539 125.282 69.5382 125.277C69.5374 125.273 69.536 125.265 69.5347 125.254C69.534 125.247 69.5245 125.179 69.5459 125.092C69.5574 125.045 69.5875 124.952 69.671 124.866C69.7679 124.767 69.8964 124.718 70.0214 124.716C70.1282 124.715 70.2073 124.749 70.2441 124.767C70.2845 124.787 70.3131 124.808 70.3276 124.82C70.3726 124.855 70.3938 124.887 70.3778 124.867L69.5864 125.478C69.6008 125.497 69.6451 125.555 69.7062 125.603C69.7248 125.618 69.757 125.642 69.8007 125.663C69.8407 125.683 69.9226 125.717 70.0318 125.716C70.1593 125.715 70.2897 125.665 70.3881 125.563C70.4733 125.476 70.5046 125.381 70.5169 125.331C70.5399 125.237 70.5304 125.159 70.5282 125.139C70.5244 125.107 70.5185 125.079 70.5141 125.06C70.5052 125.021 70.4932 124.981 70.482 124.946C70.4397 124.812 70.3499 124.565 70.2462 124.264C70.031 123.639 69.7104 122.655 69.4068 121.366C68.7993 118.788 68.2596 114.992 68.7721 110.435L67.7784 110.323ZM21.415 59.0614C25.2839 60.7557 29.3856 64.8657 33.5229 70.2902C37.6473 75.6976 41.7551 82.34 45.6539 89.0109L46.5173 88.5063C42.6142 81.8281 38.4812 75.142 34.3181 69.6837C30.1679 64.2424 25.9356 59.9494 21.8162 58.1454L21.415 59.0614ZM45.668 89.0337C48.3571 93.1154 51.2186 97.0571 53.8203 100.703C56.4273 104.356 58.7687 107.705 60.4402 110.628L61.3083 110.131C59.608 107.159 57.2375 103.77 54.6343 100.122C52.0259 96.4669 49.179 92.5454 46.5031 88.4835L45.668 89.0337ZM15.7298 57.9235C19.5987 59.6177 23.7004 63.7278 27.8377 69.1522C31.9621 74.5597 36.0699 81.2021 39.9687 87.873L40.8321 87.3684C36.929 80.6902 32.796 74.0041 28.6329 68.5458C24.4827 63.1045 20.2504 58.8115 16.131 57.0075L15.7298 57.9235ZM39.9828 87.8957C42.6903 92.0056 47.9936 97.9613 53.0049 103.59C55.5178 106.412 57.9621 109.157 59.9888 111.565C62.0225 113.98 63.6097 116.026 64.4274 117.455L65.2954 116.959C64.4273 115.441 62.7845 113.333 60.7538 110.921C58.7163 108.5 56.262 105.744 53.7517 102.925C48.7166 97.2696 43.4753 91.3794 40.8179 87.3456L39.9828 87.8957ZM11.7427 57.3545C15.6115 59.0488 19.7132 63.1588 23.8505 68.5833C27.9749 73.9907 32.0827 80.6331 35.9815 87.304L36.8449 86.7994C32.9418 80.1212 28.8088 73.4351 24.6457 67.9768C20.4955 62.5355 16.2632 58.2425 12.1438 56.4385L11.7427 57.3545ZM35.9956 87.3268C37.3602 89.3981 39.9424 92.4561 43.0753 95.9486C46.2149 99.4487 49.9313 103.411 53.5805 107.298C57.232 111.187 60.8154 115 63.6969 118.209C66.5934 121.434 68.737 124.003 69.5481 125.421L70.4162 124.924C69.5414 123.395 67.3165 120.743 64.441 117.54C61.5504 114.322 57.9583 110.5 54.3096 106.613C50.6586 102.725 46.9503 98.7709 43.8197 95.2809C40.6823 91.7833 38.1486 88.7771 36.8307 86.7766L35.9956 87.3268ZM9.91244 57.2774C11.2006 58.3727 13.2078 60.6909 15.6828 63.7884C18.1476 66.8733 21.0472 70.6934 24.1128 74.7623C30.2378 82.8919 37.0279 92.0182 42.2915 98.1866L43.0522 97.5375C37.8138 91.3986 31.0479 82.3054 24.9115 74.1606C21.8464 70.0924 18.9389 66.2616 16.464 63.1642C13.9991 60.0792 11.9338 57.6836 10.5602 56.5156L9.91244 57.2774ZM82.0012 28.4062C81.5052 34.2805 80.3282 37.9865 77.2379 41.72C74.1114 45.4972 69.0177 49.3171 60.5877 55.352L61.1698 56.1651C69.5661 50.1544 74.7816 46.2558 78.0082 42.3576C81.2711 38.4157 82.4912 34.4894 82.9976 28.4903L82.0012 28.4062ZM82.0168 28.3173C81.5178 30.1562 79.9241 32.1723 77.7278 34.1988C75.5472 36.2108 72.8395 38.1735 70.2151 39.9157C67.5915 41.6573 65.0692 43.1668 63.2534 44.2819C62.3512 44.8359 61.6121 45.2994 61.1303 45.6429C60.8962 45.8097 60.6902 45.9708 60.5582 46.1144C60.5028 46.1747 60.398 46.2961 60.3575 46.4604C60.3337 46.5572 60.3262 46.6949 60.3931 46.8371C60.4597 46.9785 60.5694 47.0599 60.6568 47.1032L61.1006 46.2071C61.1555 46.2343 61.2432 46.295 61.2979 46.4113C61.3531 46.5285 61.344 46.6367 61.3285 46.6997C61.3047 46.7963 61.2563 46.8326 61.2944 46.7912C61.3495 46.7313 61.4795 46.622 61.7108 46.4572C62.1597 46.1371 62.8689 45.6915 63.7767 45.134C65.581 44.0261 68.1254 42.5031 70.7682 40.7488C73.41 38.9951 76.1682 36.9984 78.4059 34.9337C80.628 32.8835 82.4049 30.7056 82.9819 28.5792L82.0168 28.3173ZM82.0056 28.3698C81.5531 31.2195 80.8825 33.3682 79.9154 35.1732C78.9495 36.9759 77.6741 38.4616 75.9778 39.9692C74.2744 41.4832 72.1617 43.0067 69.5201 44.8967C66.8846 46.7825 63.7396 49.0214 60.0013 51.9512L60.6182 52.7383C64.337 49.8237 67.4653 47.5966 70.102 45.71C72.7328 43.8276 74.8916 42.2725 76.6421 40.7167C78.3998 39.1545 79.7607 37.5794 80.7969 35.6455C81.8318 33.7138 82.529 31.45 82.9932 28.5267L82.0056 28.3698ZM81.9999 28.4709C82.0807 30.2549 82.0948 31.8923 82.0003 33.4282L82.9985 33.4895C83.0958 31.9058 83.0806 30.2301 82.9989 28.4256L81.9999 28.4709ZM82.0003 33.4282C81.7298 37.8284 80.5687 41.4138 77.4844 45.1874C74.3785 48.9873 69.3107 52.9928 61.1787 58.1819L61.7166 59.0249C69.8649 53.8253 75.0468 49.7498 78.2586 45.8202C81.492 41.8643 82.7167 38.0717 82.9985 33.4895L82.0003 33.4282ZM79.0651 46.0818C76.4222 51.0142 71.5906 56.0409 62.8856 61.5957L63.4235 62.4387C72.2102 56.8318 77.1936 51.6917 79.9466 46.5541L79.0651 46.0818ZM79.0059 46.3237C79.0082 46.5243 79.0066 46.7233 79.0012 46.9207L80.0009 46.9479C80.0066 46.7376 80.0083 46.5257 80.0058 46.3122L79.0059 46.3237ZM79.0012 46.9207C78.997 47.0773 78.9903 47.233 78.9814 47.3877L79.9797 47.4456C79.9892 47.2807 79.9963 47.1148 80.0009 46.9479L79.0012 46.9207ZM78.9814 47.3877C78.7111 52.0443 76.3276 55.8387 73.3938 58.711C70.4577 61.5855 67.003 63.5026 64.682 64.3954L65.041 65.3287C67.4729 64.3934 71.048 62.4071 74.0934 59.4256C77.141 56.4419 79.6905 52.4276 79.9797 47.4456L78.9814 47.3877ZM79.0059 46.318C79.0059 46.5226 79.0043 46.7254 79.0011 46.9265L80.001 46.9421C80.0042 46.7358 80.0059 46.5278 80.0059 46.318H79.0059ZM79.0011 46.9265C78.9921 47.5014 78.9704 48.0616 78.9368 48.6073L79.9349 48.6687C79.9695 48.1075 79.9918 47.532 80.001 46.9421L79.0011 46.9265ZM78.9368 48.6073C78.1424 61.5039 70.6988 66.3746 67.0252 67.2196L67.2494 68.1941C71.3769 67.2448 79.1148 61.9844 79.9349 48.6687L78.9368 48.6073ZM81.9999 28.4709C82.1179 31.0755 82.1729 33.4107 82.0008 35.6785L82.998 35.7541C83.1748 33.4229 83.1172 31.0375 82.9989 28.4256L81.9999 28.4709ZM82.0008 35.6785C81.8278 37.9586 81.4251 40.1711 80.6238 42.5103L81.5698 42.8344C82.4023 40.4043 82.8195 38.107 82.998 35.7541L82.0008 35.6785ZM80.6238 42.5103C80.2157 43.7018 79.7037 44.8901 79.0651 46.0818L79.9466 46.5541C80.6111 45.314 81.1445 44.0761 81.5698 42.8344L80.6238 42.5103ZM74.7434 66.2993C74.7247 66.3284 74.706 66.3574 74.6873 66.3861L75.5255 66.9315C75.5455 66.9007 75.5655 66.8697 75.5855 66.8386L74.7434 66.2993ZM74.6873 66.3861C72.7732 69.3278 70.7056 70.1269 69.4425 70.0526L69.3838 71.0508C71.1218 71.1531 73.4885 70.0619 75.5255 66.9315L74.6873 66.3861ZM82.871 82.7344C81.1569 80.8305 78.7226 77.7434 77.0251 74.6577C76.1757 73.1136 75.5241 71.5935 75.2304 70.2371C74.9354 68.8743 75.0165 67.7496 75.5309 66.923L74.6819 66.3946C73.9717 67.5359 73.9321 68.966 74.2531 70.4487C74.5754 71.9377 75.2764 73.5535 76.1489 75.1397C77.8954 78.3143 80.3821 81.4644 82.1278 83.4035L82.871 82.7344ZM76.3973 62.974C75.8825 64.2983 75.3218 65.3961 74.7434 66.2993L75.5855 66.8386C76.2038 65.8731 76.7935 64.7148 77.3294 63.3363L76.3973 62.974ZM76.3646 63.1899C76.5774 66.2442 77.7335 69.2054 78.9609 71.6441C79.5762 72.8666 80.2134 73.9655 80.7661 74.886C81.3257 75.8183 81.7814 76.5402 82.0608 77.0505L82.9379 76.5701C82.6461 76.0373 82.1632 75.2704 81.6234 74.3713C81.0766 73.4605 80.4535 72.3854 79.8542 71.1946C78.6523 68.8066 77.5616 65.9833 77.3621 63.1204L76.3646 63.1899ZM79.0059 46.3095C78.9997 46.679 78.9912 47.0432 78.9807 47.402L79.9803 47.4313C79.9909 47.0683 79.9995 46.7 80.0058 46.3264L79.0059 46.3095ZM78.9807 47.402C78.9687 47.8136 78.9538 48.2183 78.9364 48.616L79.9354 48.66C79.9531 48.2572 79.9681 47.8477 79.9803 47.4313L78.9807 47.402ZM78.9364 48.616C78.8505 50.5695 78.7004 52.3567 78.4975 53.99L79.4899 54.1133C79.6963 52.4514 79.8484 50.6377 79.9354 48.6599L78.9364 48.616ZM78.4975 53.99C78.3199 55.4194 78.102 56.7307 77.8513 57.9323L78.8303 58.1365C79.0869 56.9061 79.3092 55.5677 79.4899 54.1133L78.4975 53.99ZM77.8513 57.9323C77.4422 59.8938 76.9462 61.5619 76.3973 62.974L77.3294 63.3363C77.9007 61.8664 78.4114 60.1446 78.8303 58.1365L77.8513 57.9323ZM77.8443 58.0935C78.4605 63.2719 81.5277 66.3318 82.1539 66.9304L82.8449 66.2075C82.2806 65.6681 79.4127 62.8108 78.8373 57.9754L77.8443 58.0935ZM78.4998 54.1297C78.8052 56.0629 79.6671 57.5631 80.5107 58.4509C80.924 58.8858 81.3719 59.2147 81.7855 59.3407C81.9926 59.4038 82.253 59.4342 82.5019 59.3264C82.7764 59.2075 82.93 58.9684 82.9873 58.7127L82.0115 58.4941C82.0084 58.5078 82.0253 58.4431 82.1045 58.4088C82.1581 58.3856 82.1646 58.4108 82.077 58.3841C81.9011 58.3305 81.5962 58.1415 81.2356 57.762C80.5315 57.021 79.7613 55.7065 79.4875 53.9737L78.4998 54.1297ZM81.9994 28.4482V33.4588H82.9994V28.4482H81.9994ZM81.9994 33.4588V35.7163H82.9994V33.4588H81.9994ZM81.9994 35.7163V51.7758H82.9994V35.7163H81.9994ZM81.9994 51.7758V58.6034H82.9994V51.7758H81.9994ZM81.9994 58.6034V66.5689H82.9994V58.6034H81.9994ZM81.9994 66.5689V76.8103H82.9994V66.5689H81.9994ZM81.9994 76.8103V83.0689H82.9994V76.8103H81.9994ZM79.0197 46.4346C79.6488 49.0563 80.2669 50.6932 80.833 51.5806C81.1066 52.0094 81.4268 52.3586 81.8139 52.479C82.0266 52.5452 82.2486 52.5379 82.4549 52.448C82.6513 52.3624 82.7983 52.2176 82.9064 52.0663L82.0924 51.4853C82.055 51.5378 82.0385 51.5386 82.0554 51.5313C82.0647 51.5272 82.0778 51.5237 82.0921 51.5231C82.1061 51.5224 82.1132 51.5249 82.111 51.5242C82.0781 51.514 81.9214 51.4273 81.676 51.0427C81.2043 50.3033 80.6166 48.8037 79.9921 46.2013L79.0197 46.4346ZM82.4994 87.0517C82.222 86.6357 82.2219 86.6357 82.2219 86.6358C82.2218 86.6358 82.2218 86.6358 82.2217 86.6359C82.2216 86.636 82.2214 86.6361 82.2212 86.6362C82.2207 86.6366 82.22 86.637 82.2192 86.6376C82.2174 86.6387 82.2149 86.6404 82.2116 86.6426C82.205 86.6471 82.1953 86.6536 82.1826 86.6621C82.1573 86.6791 82.1201 86.7042 82.0723 86.7366C81.9766 86.8015 81.8382 86.896 81.6665 87.0147C81.3232 87.2521 80.8464 87.5871 80.3116 87.9778C79.2471 88.7554 77.9336 89.7673 76.99 90.6739L77.6827 91.395C78.5755 90.5374 79.8435 89.558 80.9015 88.7853C81.4278 88.4008 81.8975 88.0708 82.2353 87.8371C82.4042 87.7203 82.5401 87.6276 82.6335 87.5643C82.6802 87.5326 82.7162 87.5083 82.7405 87.492C82.7527 87.4838 82.7619 87.4777 82.768 87.4736C82.771 87.4715 82.7733 87.47 82.7748 87.469C82.7755 87.4685 82.7761 87.4682 82.7764 87.4679C82.7766 87.4678 82.7767 87.4677 82.7768 87.4677C82.7768 87.4677 82.7768 87.4677 82.7768 87.4677C82.7768 87.4677 82.7768 87.4677 82.4994 87.0517ZM76.99 90.6739C71.1476 96.2861 69.0829 103.989 67.7904 109.119L68.7601 109.363C70.0556 104.221 72.0699 96.7867 77.6827 91.395L76.99 90.6739ZM82.4994 91.0344C82.1854 90.6454 82.1853 90.6454 82.1852 90.6455C82.1852 90.6455 82.1851 90.6456 82.185 90.6456C82.1848 90.6458 82.1845 90.646 82.1842 90.6463C82.1835 90.6469 82.1825 90.6477 82.1812 90.6487C82.1786 90.6508 82.1748 90.6539 82.1698 90.658C82.1598 90.6661 82.1452 90.678 82.1261 90.6936C82.0879 90.7248 82.0318 90.7707 81.9599 90.8302C81.8159 90.9492 81.6082 91.1224 81.3518 91.3406C80.8391 91.7769 80.1308 92.3935 79.3479 93.1152C77.7894 94.5518 75.9077 96.4303 74.6949 98.1419L75.5108 98.7201C76.6597 97.0986 78.4762 95.2788 80.0257 93.8504C80.7967 93.1397 81.4947 92.532 81.9998 92.1022C82.2523 91.8874 82.4564 91.7172 82.597 91.6009C82.6673 91.5428 82.7218 91.4982 82.7585 91.4682C82.7768 91.4532 82.7907 91.4419 82.8 91.4344C82.8046 91.4307 82.808 91.4279 82.8103 91.4261C82.8114 91.4252 82.8122 91.4245 82.8128 91.4241C82.813 91.4239 82.8132 91.4237 82.8133 91.4236C82.8134 91.4236 82.8134 91.4236 82.8134 91.4235C82.8134 91.4235 82.8134 91.4235 82.4994 91.0344ZM74.6949 98.1419C72.6791 100.987 71.2362 104.604 70.3676 107.929C69.5029 111.24 69.1871 114.34 69.489 116.151L70.4753 115.987C70.2082 114.384 70.4825 111.446 71.3352 108.182C72.1841 104.932 73.586 101.437 75.5108 98.7201L74.6949 98.1419ZM82.4994 95.5862C82.1699 95.2101 82.1698 95.2102 82.1697 95.2103C82.1697 95.2103 82.1696 95.2104 82.1695 95.2105C82.1692 95.2107 82.1689 95.2109 82.1685 95.2113C82.1678 95.212 82.1666 95.213 82.1652 95.2142C82.1623 95.2168 82.1581 95.2205 82.1526 95.2253C82.1416 95.2351 82.1254 95.2494 82.1043 95.2681C82.0622 95.3055 82.0005 95.3606 81.9216 95.4318C81.7638 95.5741 81.5369 95.781 81.2592 96.0406C80.704 96.5594 79.9444 97.2898 79.1267 98.1358C77.5041 99.8145 75.6064 101.996 74.6556 103.897L75.5501 104.344C76.4262 102.592 78.2267 100.506 79.8457 98.8307C80.6488 97.9998 81.3958 97.2816 81.942 96.7712C82.215 96.5161 82.4375 96.3131 82.5914 96.1743C82.6684 96.1049 82.7281 96.0515 82.7685 96.0157C82.7887 95.9977 82.804 95.9842 82.8141 95.9752C82.8192 95.9707 82.823 95.9674 82.8255 95.9652C82.8267 95.9641 82.8276 95.9633 82.8282 95.9628C82.8285 95.9626 82.8287 95.9624 82.8288 95.9623C82.8289 95.9622 82.8289 95.9622 82.8289 95.9622C82.8289 95.9622 82.8289 95.9622 82.4994 95.5862ZM74.6556 103.897C73.1974 106.814 72.3342 110.575 71.9041 114.016C71.4745 117.453 71.4692 120.636 71.7648 122.41L72.7512 122.245C72.4779 120.606 72.4726 117.53 72.8964 114.14C73.3198 110.753 74.1635 107.117 75.5501 104.344L74.6556 103.897ZM82.4994 100.707C82.1257 100.375 82.1256 100.375 82.1256 100.375C82.1255 100.375 82.1254 100.375 82.1254 100.375C82.1252 100.375 82.1249 100.376 82.1246 100.376C82.124 100.377 82.123 100.378 82.1219 100.379C82.1195 100.382 82.116 100.386 82.1115 100.391C82.1025 100.401 82.0892 100.416 82.072 100.436C82.0375 100.475 81.987 100.533 81.9223 100.608C81.7928 100.757 81.6066 100.975 81.3779 101.248C80.9208 101.795 80.2935 102.566 79.6121 103.463C78.2564 105.246 76.6601 107.563 75.7812 109.613L76.7003 110.007C77.5284 108.075 79.0614 105.84 80.4082 104.068C81.0782 103.186 81.6954 102.428 82.1451 101.89C82.3699 101.621 82.5525 101.408 82.6787 101.262C82.7418 101.189 82.7907 101.133 82.8237 101.095C82.8402 101.076 82.8527 101.062 82.861 101.053C82.8652 101.048 82.8683 101.044 82.8703 101.042C82.8713 101.041 82.8721 101.04 82.8725 101.04C82.8728 101.039 82.8729 101.039 82.873 101.039C82.8731 101.039 82.8731 101.039 82.8731 101.039C82.8731 101.039 82.8731 101.039 82.4994 100.707ZM75.7812 109.613C73.2229 115.583 73.4636 123.499 74.0407 126.961L75.0271 126.797C74.4662 123.432 74.2471 115.732 76.7003 110.007L75.7812 109.613ZM82.4994 106.397C82.0654 106.148 82.0654 106.148 82.0653 106.148C82.0653 106.148 82.0652 106.149 82.0652 106.149C82.0651 106.149 82.0649 106.149 82.0647 106.149C82.0642 106.15 82.0636 106.151 82.0628 106.153C82.0612 106.156 82.0588 106.16 82.0557 106.165C82.0494 106.176 82.0403 106.192 82.0282 106.214C82.0042 106.256 81.969 106.318 81.9238 106.399C81.8333 106.561 81.7028 106.796 81.542 107.09C81.2205 107.679 80.7776 108.507 80.2915 109.465C79.3222 111.374 78.1705 113.819 77.4733 115.911L78.422 116.227C79.095 114.208 80.2192 111.817 81.1832 109.918C81.6638 108.971 82.1019 108.152 82.4197 107.569C82.5786 107.278 82.7074 107.047 82.7962 106.888C82.8407 106.809 82.8751 106.747 82.8984 106.706C82.91 106.686 82.9189 106.67 82.9248 106.66C82.9277 106.655 82.9299 106.651 82.9314 106.648C82.9321 106.647 82.9326 106.646 82.9329 106.646C82.9331 106.645 82.9332 106.645 82.9333 106.645C82.9334 106.645 82.9334 106.645 82.9334 106.645C82.9334 106.645 82.9334 106.645 82.4994 106.397ZM77.4733 115.911C75.7356 121.124 75.737 127.467 76.3165 130.944L77.3029 130.78C76.7445 127.429 76.7459 121.255 78.422 116.227L77.4733 115.911ZM82.4994 112.655C82.0522 112.432 82.0521 112.432 82.0521 112.432C82.0521 112.432 82.052 112.432 82.0519 112.432C82.0518 112.432 82.0517 112.433 82.0514 112.433C82.051 112.434 82.0504 112.435 82.0497 112.437C82.0482 112.44 82.046 112.444 82.0431 112.45C82.0375 112.461 82.0291 112.478 82.0184 112.5C81.9968 112.544 81.9653 112.609 81.9252 112.692C81.8451 112.859 81.7303 113.102 81.591 113.408C81.3126 114.019 80.9356 114.88 80.5405 115.886C79.7536 117.889 78.8818 120.496 78.5895 122.834L79.5817 122.959C79.8584 120.746 80.6934 118.232 81.4712 116.252C81.8585 115.266 82.2282 114.421 82.501 113.823C82.6373 113.524 82.7492 113.287 82.8269 113.125C82.8657 113.044 82.8959 112.982 82.9163 112.94C82.9264 112.919 82.9342 112.904 82.9393 112.893C82.9418 112.888 82.9437 112.884 82.945 112.882C82.9456 112.881 82.946 112.88 82.9463 112.879C82.9464 112.879 82.9465 112.879 82.9466 112.879C82.9466 112.879 82.9466 112.879 82.9466 112.879C82.9466 112.879 82.9466 112.879 82.4994 112.655ZM78.5895 122.834C77.9093 128.276 78.595 130.391 79.1614 133.789L80.1478 133.625C79.5762 130.195 78.9229 128.229 79.5817 122.959L78.5895 122.834ZM82.0425 112.858C82.0318 112.832 82.0178 112.79 82.0136 112.774C82.0112 112.763 82.0076 112.745 82.0063 112.738C82.0039 112.723 82.0027 112.712 82.0023 112.707C82.0013 112.697 82.001 112.691 82.001 112.691C82.0009 112.689 82.0011 112.691 82.0013 112.7C82.0016 112.717 82.002 112.743 82.0023 112.78C82.0029 112.855 82.0031 112.963 82.003 113.103C82.0028 113.382 82.0015 113.778 81.9995 114.253C81.9954 115.215 81.9887 116.458 81.9833 117.737C81.9778 119.005 81.9738 120.277 81.9751 121.242C81.9758 121.724 81.9778 122.131 81.9817 122.423C81.9837 122.568 81.9861 122.688 81.9893 122.776C81.9908 122.819 81.9927 122.859 81.9951 122.891C81.9963 122.907 81.9981 122.928 82.0008 122.948C82.0022 122.959 82.0045 122.975 82.0084 122.993C82.0107 123.004 82.0196 123.048 82.0418 123.098L82.9569 122.695C82.9781 122.743 82.9861 122.783 82.9874 122.789C82.9903 122.803 82.9917 122.813 82.9921 122.816C82.993 122.823 82.9929 122.825 82.9924 122.817C82.9913 122.803 82.99 122.778 82.9886 122.74C82.9859 122.664 82.9836 122.553 82.9816 122.41C82.9778 122.124 82.9758 121.722 82.9751 121.24C82.9738 120.279 82.9778 119.009 82.9833 117.741C82.9886 116.485 82.9955 115.198 82.9995 114.257C83.0015 113.782 83.0028 113.384 83.003 113.104C83.0031 112.963 83.0029 112.851 83.0023 112.773C83.002 112.734 83.0016 112.701 83.001 112.677C83.0007 112.665 83.0003 112.652 82.9997 112.639C82.9994 112.633 82.9987 112.622 82.9975 112.609C82.9969 112.603 82.9955 112.59 82.993 112.575C82.9929 112.574 82.985 112.517 82.9563 112.452L82.0425 112.858ZM82.0412 123.097C83.7919 127.105 84.1426 129.958 83.8998 132.081C83.6575 134.201 82.819 135.647 82.0736 136.859L82.9252 137.383C83.6879 136.143 84.625 134.542 84.8934 132.195C85.1614 129.851 84.7579 126.818 82.9576 122.696L82.0412 123.097ZM82.0458 122.686C80.248 126.564 79.9641 129.629 80.2858 132.044C80.6057 134.445 81.5256 136.177 82.0435 137.326L82.9552 136.915C82.4147 135.716 81.5732 134.135 81.277 131.912C80.9826 129.702 81.2279 126.828 82.953 123.107L82.0458 122.686ZM117.004 42.5599C121.772 44.692 125.563 48.5645 128.154 52.7081C130.751 56.8604 132.106 61.2227 132.07 64.2872L133.07 64.2989C133.109 60.9843 131.664 56.4344 129.002 52.1779C126.335 47.9129 122.407 43.8801 117.412 41.647L117.004 42.5599ZM113.038 42.5696C118.031 44.5046 122.347 48.8521 125.36 53.5821C128.382 58.3253 130.022 63.3377 129.789 66.5327L130.787 66.6052C131.042 63.0988 129.274 57.8655 126.203 53.0448C123.124 48.211 118.661 43.6764 113.4 41.6372L113.038 42.5696ZM109.069 43.1437C114.365 45.0205 119.242 49.8989 122.677 55.2053C124.389 57.851 125.729 60.5821 126.575 63.0636C127.425 65.5573 127.76 67.75 127.518 69.3383L128.506 69.4892C128.784 67.6692 128.393 65.2974 127.521 62.7408C126.645 60.1721 125.267 57.3674 123.516 54.662C120.024 49.2664 114.993 44.1824 109.403 42.2011L109.069 43.1437ZM106.82 45.428C112.259 47.0251 117.067 52.0395 120.357 57.6364C121.996 60.4249 123.244 63.333 123.997 65.9871C124.752 68.6521 124.996 71.0165 124.676 72.7359L125.659 72.9192C126.02 70.9829 125.733 68.4468 124.959 65.7143C124.181 62.9711 122.898 59.9848 121.219 57.1296C117.874 51.4395 112.896 46.1699 107.101 44.4685L106.82 45.428ZM105.096 47.1298C110.369 48.8765 114.977 54.5052 118.143 60.6823C119.718 63.7552 120.919 66.9311 121.657 69.7675C122.398 72.6172 122.659 75.0755 122.398 76.7324L123.385 76.8882C123.679 75.0295 123.378 72.4134 122.625 69.5157C121.867 66.6047 120.639 63.3604 119.033 60.2261C115.836 53.9888 111.07 48.0555 105.411 46.1805L105.096 47.1298ZM105.104 51.6838C110.032 53.2336 113.79 58.6091 116.257 64.661C118.714 70.6901 119.811 77.197 119.548 80.7562L120.545 80.8299C120.823 77.0725 119.679 70.4077 117.183 64.2835C114.696 58.1822 110.787 52.4228 105.404 50.7299L105.104 51.6838ZM104.518 55.661C109.594 57.4568 112.82 63.1171 114.692 69.3301C116.554 75.5127 117.016 82.0457 116.71 85.2979L117.706 85.3917C118.026 81.997 117.545 75.334 115.649 69.0416C113.762 62.7796 110.413 56.6857 104.851 54.7182L104.518 55.661ZM102.868 60.2305C105.377 60.7611 107.396 62.3545 109.012 64.6222C110.631 66.894 111.826 69.8169 112.682 72.937C114.392 79.1793 114.712 86.0964 114.427 89.8588L115.425 89.9342C115.717 86.0708 115.391 79.0377 113.646 72.6727C112.773 69.4891 111.538 66.444 109.826 64.0418C108.111 61.6357 105.898 59.8491 103.075 59.2522L102.868 60.2305ZM100.682 64.7927C103.262 64.8942 105.307 66.1988 106.934 68.2923C108.57 70.3969 109.762 73.2787 110.601 76.454C112.279 82.8032 112.503 90.1746 112.152 94.4069L113.148 94.4896C113.507 90.1689 113.281 82.6801 111.568 76.1986C110.712 72.9587 109.475 69.9325 107.724 67.6787C105.964 65.4137 103.666 63.9093 100.722 63.7935L100.682 64.7927ZM98.4214 67.6379C100.944 67.6609 102.908 69.011 104.444 71.2687C105.989 73.5393 107.069 76.6883 107.789 80.1796C109.228 87.1565 109.199 95.3292 108.739 100.09L109.734 100.186C110.201 95.3555 110.233 87.078 108.768 79.9776C108.036 76.4302 106.923 73.1338 105.271 70.7062C103.611 68.2657 101.375 66.6648 98.4305 66.6379L98.4214 67.6379ZM95.6607 71.0453C97.895 70.6851 99.6716 71.8092 101.118 74.0537C102.573 76.3125 103.626 79.62 104.366 83.3681C105.845 90.8512 106.045 99.8894 105.892 105.244L106.891 105.273C107.046 99.8848 106.847 90.7623 105.347 83.1742C104.599 79.3866 103.517 75.9308 101.958 73.5121C100.391 71.0789 98.2742 69.6111 95.5016 70.0581L95.6607 71.0453ZM93.3849 73.8901C94.5125 73.7084 95.4914 73.9393 96.3617 74.5015C97.244 75.0714 98.0359 75.9965 98.7389 77.2308C100.148 79.7048 101.133 83.3004 101.803 87.3359C103.143 95.3928 103.201 105.004 103.047 110.365L104.046 110.394C104.201 105.011 104.145 95.3242 102.79 87.1719C102.113 83.1028 101.106 79.3662 99.6078 76.7359C98.8572 75.418 97.9668 74.3478 96.9043 73.6615C95.8299 72.9675 94.6015 72.6811 93.2257 72.9029L93.3849 73.8901ZM90.54 76.735C91.6494 76.5561 92.608 76.8278 93.4627 77.4723C94.3327 78.1282 95.1086 79.1825 95.7902 80.5806C97.1544 83.3789 98.0711 87.4071 98.6717 91.8723C99.871 100.788 99.7869 111.258 99.6331 116.624L100.633 116.652C100.787 111.275 100.873 100.739 99.6628 91.739C99.0585 87.2461 98.1253 83.0886 96.689 80.1424C95.9704 78.6683 95.1084 77.4608 94.0648 76.6738C93.0058 75.8753 91.775 75.523 90.3809 75.7477L90.54 76.735ZM88.1122 79.0119C90.2819 79.3294 91.8475 80.5274 92.9974 82.3136C94.1576 84.116 94.8861 86.5084 95.3427 89.1588C96.2584 94.4743 96.0517 100.596 96.2195 104.71L97.2187 104.669C97.0555 100.669 97.2585 94.389 96.3282 88.989C95.8618 86.2816 95.1034 83.7378 93.8382 81.7724C92.5626 79.7908 90.7643 78.3893 88.257 78.0225L88.1122 79.0119ZM85.7548 80.6998C89.4693 81.902 91.2277 84.7259 91.9953 87.2925C92.3797 88.5777 92.5103 89.7852 92.5115 90.6628C92.5121 91.1035 92.48 91.4467 92.4369 91.6673C92.4146 91.7816 92.3941 91.8382 92.3867 91.8541C92.3823 91.8634 92.3933 91.8354 92.4294 91.7979C92.4656 91.7605 92.5693 91.6724 92.7363 91.6724V92.6724C92.9389 92.6724 93.0779 92.5659 93.1487 92.4927C93.2194 92.4195 93.2641 92.3383 93.2923 92.278C93.35 92.1548 93.3896 92.0067 93.4185 91.8587C93.4778 91.5546 93.5121 91.1427 93.5115 90.6614C93.5102 89.695 93.3675 88.3908 92.9534 87.006C92.1239 84.2325 90.184 81.0822 86.0627 79.7484L85.7548 80.6998ZM96.2222 110.435C96.7347 114.992 96.195 118.788 95.5875 121.366C95.2839 122.655 94.9633 123.639 94.7481 124.264C94.6444 124.565 94.5546 124.812 94.5123 124.946C94.5011 124.981 94.4891 125.021 94.4802 125.06C94.4758 125.079 94.4699 125.107 94.4662 125.139C94.4639 125.159 94.4544 125.237 94.4775 125.331C94.4897 125.381 94.521 125.476 94.6062 125.563C94.7047 125.665 94.8351 125.715 94.9625 125.716C95.0717 125.717 95.1537 125.683 95.1936 125.663C95.2373 125.642 95.2695 125.618 95.2881 125.603C95.3493 125.555 95.3936 125.497 95.4079 125.478L94.6165 124.867C94.6005 124.887 94.6218 124.855 94.6667 124.82C94.6813 124.808 94.7098 124.787 94.7502 124.767C94.787 124.749 94.8661 124.715 94.973 124.716C95.098 124.718 95.2264 124.767 95.3233 124.866C95.4069 124.952 95.437 125.045 95.4484 125.092C95.4699 125.179 95.4603 125.247 95.4596 125.254C95.4583 125.265 95.457 125.273 95.4561 125.277C95.4553 125.282 95.4546 125.285 95.4545 125.285C95.4544 125.286 95.4571 125.275 95.4659 125.247C95.5035 125.128 95.5787 124.923 95.6936 124.59C95.9156 123.945 96.2471 122.927 96.5609 121.596C97.1881 118.934 97.7441 115.02 97.216 110.323L96.2222 110.435ZM143.178 58.1454C139.059 59.9494 134.826 64.2424 130.676 69.6837C126.513 75.142 122.38 81.8281 118.477 88.5063L119.34 89.0109C123.239 82.34 127.347 75.6976 131.471 70.2902C135.609 64.8657 139.71 60.7557 143.579 59.0614L143.178 58.1454ZM118.491 88.4835C115.815 92.5454 112.968 96.4669 110.36 100.122C107.757 103.77 105.386 107.159 103.686 110.131L104.554 110.628C106.226 107.705 108.567 104.356 111.174 100.703C113.776 97.0571 116.637 93.1154 119.326 89.0337L118.491 88.4835ZM148.863 57.0075C144.744 58.8115 140.512 63.1045 136.361 68.5458C132.198 74.0041 128.065 80.6902 124.162 87.3684L125.026 87.873C128.924 81.2021 133.032 74.5597 137.157 69.1522C141.294 63.7278 145.396 59.6177 149.264 57.9235L148.863 57.0075ZM124.176 87.3456C121.519 91.3794 116.278 97.2696 111.243 102.925C108.732 105.744 106.278 108.5 104.241 110.921C102.21 113.333 100.567 115.441 99.6989 116.959L100.567 117.455C101.385 116.026 102.972 113.98 105.006 111.565C107.032 109.157 109.477 106.412 111.989 103.59C117.001 97.9613 122.304 92.0056 125.012 87.8957L124.176 87.3456ZM152.851 56.4385C148.731 58.2425 144.499 62.5355 140.349 67.9768C136.186 73.4351 132.053 80.1212 128.149 86.7994L129.013 87.304C132.912 80.6331 137.019 73.9907 141.144 68.5833C145.281 63.1588 149.383 59.0488 153.252 57.3545L152.851 56.4385ZM128.164 86.7766C126.846 88.7771 124.312 91.7833 121.175 95.2809C118.044 98.7709 114.336 102.725 110.685 106.613C107.036 110.5 103.444 114.322 100.553 117.54C97.6778 120.743 95.453 123.395 94.5782 124.924L95.4462 125.421C96.2573 124.003 98.401 121.434 101.297 118.209C104.179 115 107.762 111.187 111.414 107.298C115.063 103.411 118.779 99.4487 121.919 95.9486C125.052 92.4561 127.634 89.3981 128.999 87.3268L128.164 86.7766ZM154.434 56.5156C153.061 57.6836 150.995 60.0792 148.53 63.1642C146.055 66.2616 143.148 70.0924 140.083 74.1606C133.946 82.3054 127.181 91.3986 121.942 97.5375L122.703 98.1866C127.966 92.0182 134.757 82.8919 140.882 74.7623C143.947 70.6934 146.847 66.8733 149.312 63.7884C151.786 60.6909 153.794 58.3727 155.082 57.2774L154.434 56.5156ZM81.9967 28.6423C82.5032 34.6419 83.7236 38.5311 86.9877 42.4355C90.214 46.2948 95.4297 50.1554 103.825 56.1651L104.407 55.352C95.9751 49.316 90.8816 45.5342 87.7549 41.7941C84.6658 38.0991 83.4891 34.432 82.9932 28.5581L81.9967 28.6423ZM82.0124 28.7311C82.5896 30.8583 84.3673 33.0269 86.5897 35.0631C88.8277 37.1137 91.5863 39.0914 94.2283 40.8262C96.8712 42.5616 99.4157 44.0655 101.22 45.1593C102.128 45.7096 102.837 46.1494 103.286 46.4654C103.517 46.6282 103.647 46.736 103.702 46.7949C103.74 46.836 103.69 46.7989 103.666 46.7011C103.65 46.637 103.641 46.528 103.697 46.4104C103.752 46.2942 103.84 46.2338 103.894 46.2071L104.338 47.1032C104.424 47.0603 104.534 46.9794 104.601 46.8382C104.668 46.6957 104.661 46.5574 104.637 46.4598C104.596 46.2949 104.49 46.1737 104.434 46.1141C104.302 45.9717 104.096 45.8124 103.862 45.6477C103.38 45.3085 102.641 44.851 101.738 44.3041C99.9227 43.2034 97.4005 41.7128 94.7771 39.9903C92.1528 38.2671 89.4455 36.3234 87.2652 34.3258C85.0693 32.3139 83.4763 30.3074 82.9775 28.4693L82.0124 28.7311ZM82.0011 28.6786C82.4653 31.6021 83.1626 33.8571 84.1982 35.7751C85.235 37.6955 86.5968 39.2518 88.3545 40.7947C90.1048 42.331 92.2638 43.8672 94.8938 45.7347C97.5299 47.6066 100.658 49.8241 104.376 52.7383L104.993 51.9512C101.254 49.0209 98.109 46.7914 95.4728 44.9194C92.8304 43.043 90.7178 41.5385 89.0142 40.0431C87.318 38.5543 86.0434 37.0878 85.0781 35.3C84.1117 33.5099 83.4412 31.3714 82.9888 28.5218L82.0011 28.6786ZM81.9955 28.5776C81.9137 30.3821 81.8985 32.0545 81.9959 33.6326L82.994 33.571C82.8996 32.0409 82.9136 30.4069 82.9944 28.6228L81.9955 28.5776ZM81.9959 33.6326C82.2777 38.1994 83.503 41.9567 86.737 45.881C89.9487 49.7783 95.1304 53.8259 103.278 59.0249L103.816 58.1819C95.6827 52.9921 90.6147 49.014 87.5087 45.245C84.425 41.5031 83.2645 37.9541 82.994 33.571L81.9959 33.6326ZM85.0478 46.5541C87.8007 51.6917 92.7842 56.8318 101.571 62.4387L102.109 61.5957C93.4037 56.0409 88.5722 51.0142 85.9292 46.0818L85.0478 46.5541ZM84.9885 46.3122C84.986 46.5257 84.9877 46.7376 84.9935 46.9479L85.9931 46.9206C85.9877 46.7233 85.9861 46.5243 85.9884 46.3237L84.9885 46.3122ZM84.9935 46.9479C84.998 47.1148 85.0051 47.2807 85.0147 47.4456L86.013 47.3877C86.004 47.233 85.9974 47.0773 85.9931 46.9206L84.9935 46.9479ZM85.0147 47.4456C85.3038 52.4276 87.8534 56.4419 90.901 59.4256C93.9463 62.4071 97.5215 64.3933 99.9534 65.3287L100.312 64.3953C97.9913 63.5026 94.5366 61.5855 91.6006 58.711C88.6667 55.8387 86.2832 52.0443 86.013 47.3877L85.0147 47.4456ZM84.9885 46.3179C84.9885 46.5278 84.9901 46.7358 84.9933 46.9421L85.9932 46.9264C85.9901 46.7254 85.9885 46.5226 85.9885 46.3179H84.9885ZM84.9933 46.9421C85.0026 47.532 85.0248 48.1075 85.0594 48.6687L86.0575 48.6072C86.0239 48.0615 86.0022 47.5014 85.9932 46.9264L84.9933 46.9421ZM85.0594 48.6687C85.8796 61.9844 93.6174 67.2448 97.7449 68.1941L97.9691 67.2196C94.2956 66.3746 86.8519 61.5039 86.0575 48.6072L85.0594 48.6687ZM81.9955 28.5776C81.8772 31.1891 81.8195 33.5372 81.9964 35.8312L82.9935 35.7543C82.8215 33.5248 82.8764 31.2279 82.9944 28.6228L81.9955 28.5776ZM81.9964 35.8312C82.1751 38.1469 82.5925 40.4055 83.4245 42.8344L84.3705 42.5103C83.5688 40.1698 83.1663 37.9952 82.9935 35.7543L81.9964 35.8312ZM83.4245 42.8344C83.8499 44.0761 84.3833 45.314 85.0478 46.5541L85.9292 46.0818C85.2906 44.8901 84.7787 43.7018 84.3705 42.5103L83.4245 42.8344ZM89.4089 66.8386C89.4289 66.8698 89.4489 66.9007 89.4688 66.9315L90.307 66.3861C90.2883 66.3573 90.2696 66.3283 90.251 66.2992L89.4089 66.8386ZM89.4689 66.9315C91.5058 70.0619 93.8725 71.1531 95.6105 71.0508L95.5518 70.0526C94.2887 70.1269 92.2212 69.3277 90.307 66.3861L89.4689 66.9315ZM82.8665 83.4034C84.6122 81.4644 87.099 78.3143 88.8454 75.1396C89.7179 73.5535 90.4189 71.9377 90.7413 70.4486C91.0622 68.966 91.0227 67.5359 90.3125 66.3946L89.4634 66.923C89.9778 67.7496 90.0589 68.8743 89.7639 70.2371C89.4703 71.5934 88.8186 73.1136 87.9692 74.6576C86.2717 77.7434 83.8374 80.8304 82.1233 82.7344L82.8665 83.4034ZM87.665 63.3363C88.2008 64.7147 88.7905 65.873 89.4089 66.8386L90.251 66.2992C89.6726 65.3961 89.1118 64.2983 88.597 62.974L87.665 63.3363ZM87.6322 63.1204C87.4327 65.9833 86.3421 68.8065 85.1402 71.1945C84.5408 72.3854 83.9177 73.4605 83.3709 74.3713C82.8311 75.2704 82.3482 76.0373 82.0564 76.5701L82.9335 77.0504C83.2129 76.5402 83.6686 75.8183 84.2283 74.886C84.7809 73.9655 85.4181 72.8666 86.0334 71.6441C87.2608 69.2054 88.417 66.2442 88.6298 63.1899L87.6322 63.1204ZM84.9886 46.3264C84.9949 46.7 85.0034 47.0683 85.014 47.4313L86.0136 47.402C86.0031 47.0432 85.9947 46.679 85.9884 46.3095L84.9886 46.3264ZM85.014 47.4313C85.0262 47.8477 85.0412 48.2572 85.059 48.6599L86.058 48.616C86.0405 48.2183 86.0257 47.8136 86.0136 47.402L85.014 47.4313ZM85.0589 48.6599C85.1459 50.6376 85.298 52.4514 85.5045 54.1133L86.4968 53.99C86.294 52.3567 86.1439 50.5695 86.058 48.616L85.0589 48.6599ZM85.5045 54.1133C85.6851 55.5677 85.9074 56.9061 86.1641 58.1365L87.143 57.9323C86.8924 56.7307 86.6744 55.4194 86.4968 53.99L85.5045 54.1133ZM86.1641 58.1365C86.5829 60.1446 87.0936 61.8664 87.665 63.3363L88.597 62.974C88.0481 61.5619 87.5521 59.8938 87.143 57.9323L86.1641 58.1365ZM86.1571 57.9753C85.5816 62.8107 82.7138 65.6681 82.1495 66.2075L82.8404 66.9304C83.4667 66.3318 86.5338 63.2719 87.15 58.0935L86.1571 57.9753ZM85.5068 53.9737C85.2331 55.7065 84.4629 57.021 83.7587 57.762C83.3981 58.1415 83.0932 58.3305 82.9174 58.3841C82.8297 58.4108 82.8363 58.3856 82.8898 58.4088C82.969 58.4431 82.9859 58.5078 82.9829 58.4941L82.007 58.7127C82.0643 58.9684 82.2179 59.2075 82.4924 59.3264C82.7413 59.4342 83.0018 59.4038 83.2088 59.3407C83.6224 59.2147 84.0704 58.8858 84.4836 58.4508C85.3272 57.5631 86.1892 56.0628 86.4945 54.1297L85.5068 53.9737ZM81.9949 28.6002V33.6018H82.9949V28.6002H81.9949ZM81.9949 33.6018V35.7927H82.9949V33.6018H81.9949ZM81.9949 35.7927V51.7758H82.9949V35.7927H81.9949ZM81.9949 51.7758V58.6034H82.9949V51.7758H81.9949ZM81.9949 58.6034V66.5689H82.9949V58.6034H81.9949ZM81.9949 66.5689V76.8103H82.9949V66.5689H81.9949ZM81.9949 76.8103V83.0689H82.9949V76.8103H81.9949ZM85.0023 46.2013C84.3778 48.8037 83.79 50.3033 83.3183 51.0427C83.0729 51.4273 82.9163 51.5139 82.8834 51.5242C82.8812 51.5248 82.8883 51.5224 82.9022 51.523C82.9165 51.5237 82.9296 51.5272 82.939 51.5313C82.9558 51.5386 82.9394 51.5378 82.9019 51.4853L82.088 52.0663C82.196 52.2176 82.343 52.3624 82.5395 52.448C82.7458 52.5379 82.9677 52.5452 83.1804 52.479C83.5675 52.3586 83.8878 52.0094 84.1613 51.5806C84.7275 50.6932 85.3455 49.0563 85.9747 46.4346L85.0023 46.2013ZM82.4949 87.0517C82.2175 87.4677 82.2175 87.4677 82.2175 87.4677C82.2175 87.4677 82.2175 87.4677 82.2176 87.4677C82.2177 87.4677 82.2178 87.4678 82.2179 87.4679C82.2183 87.4682 82.2188 87.4685 82.2196 87.469C82.221 87.47 82.2233 87.4715 82.2264 87.4736C82.2325 87.4777 82.2417 87.4838 82.2538 87.492C82.2781 87.5083 82.3142 87.5326 82.3609 87.5643C82.4543 87.6276 82.5901 87.7203 82.759 87.8371C83.0969 88.0708 83.5665 88.4008 84.0929 88.7853C85.1508 89.558 86.4189 90.5374 87.3116 91.395L88.0044 90.6739C87.0607 89.7673 85.7472 88.7554 84.6827 87.9778C84.1479 87.5871 83.6711 87.2521 83.3279 87.0147C83.1562 86.896 83.0178 86.8015 82.9221 86.7366C82.8742 86.7042 82.837 86.6791 82.8117 86.6621C82.799 86.6536 82.7893 86.6471 82.7827 86.6426C82.7794 86.6404 82.7769 86.6387 82.7752 86.6376C82.7743 86.637 82.7736 86.6366 82.7732 86.6362C82.7729 86.6361 82.7728 86.636 82.7726 86.6359C82.7726 86.6358 82.7725 86.6358 82.7725 86.6358C82.7724 86.6357 82.7724 86.6357 82.4949 87.0517ZM87.3116 91.395C92.9244 96.7867 94.9388 104.221 96.2342 109.363L97.2039 109.119C95.9115 103.989 93.8467 96.2861 88.0044 90.6739L87.3116 91.395ZM82.4949 91.0344C82.1809 91.4235 82.1809 91.4235 82.1809 91.4235C82.1809 91.4236 82.181 91.4236 82.181 91.4236C82.1811 91.4237 82.1813 91.4239 82.1816 91.4241C82.1821 91.4245 82.1829 91.4252 82.1841 91.4261C82.1863 91.4279 82.1898 91.4307 82.1944 91.4344C82.2036 91.4419 82.2175 91.4532 82.2359 91.4682C82.2726 91.4982 82.327 91.5428 82.3973 91.6009C82.538 91.7172 82.7421 91.8874 82.9945 92.1022C83.4996 92.532 84.1977 93.1397 84.9687 93.8504C86.5181 95.2788 88.3346 97.0986 89.4835 98.7201L90.2995 98.1419C89.0867 96.4303 87.2049 94.5518 85.6465 93.1152C84.8636 92.3935 84.1553 91.7769 83.6426 91.3406C83.3861 91.1224 83.1784 90.9492 83.0345 90.8302C82.9625 90.7707 82.9065 90.7248 82.8683 90.6936C82.8492 90.678 82.8345 90.6661 82.8245 90.658C82.8196 90.6539 82.8158 90.6508 82.8131 90.6487C82.8119 90.6477 82.8108 90.6469 82.8101 90.6463C82.8098 90.646 82.8095 90.6458 82.8093 90.6456C82.8092 90.6456 82.8091 90.6455 82.8091 90.6455C82.809 90.6454 82.809 90.6454 82.4949 91.0344ZM89.4835 98.7201C91.4083 101.437 92.8102 104.932 93.6591 108.182C94.5119 111.446 94.7861 114.384 94.519 115.987L95.5054 116.151C95.8072 114.34 95.4914 111.24 94.6267 107.929C93.7582 104.604 92.3152 100.987 90.2995 98.1419L89.4835 98.7201ZM82.4949 95.5862C82.1654 95.9622 82.1654 95.9622 82.1654 95.9622C82.1654 95.9622 82.1655 95.9622 82.1655 95.9623C82.1656 95.9624 82.1658 95.9626 82.1661 95.9628C82.1667 95.9633 82.1676 95.9641 82.1688 95.9652C82.1713 95.9674 82.1751 95.9707 82.1802 95.9752C82.1904 95.9842 82.2057 95.9977 82.2259 96.0157C82.2662 96.0515 82.326 96.1049 82.4029 96.1743C82.5569 96.3131 82.7794 96.5161 83.0524 96.7712C83.5985 97.2816 84.3455 97.9998 85.1486 98.8307C86.7676 100.506 88.5682 102.592 89.4443 104.344L90.3387 103.897C89.388 101.996 87.4902 99.8145 85.8677 98.1358C85.05 97.2898 84.2904 96.5594 83.7352 96.0406C83.4574 95.781 83.2305 95.5741 83.0727 95.4318C82.9938 95.3606 82.9322 95.3055 82.89 95.2681C82.869 95.2494 82.8528 95.2351 82.8418 95.2253C82.8363 95.2205 82.832 95.2168 82.8291 95.2142C82.8277 95.213 82.8266 95.212 82.8258 95.2113C82.8254 95.2109 82.8251 95.2107 82.8249 95.2105C82.8248 95.2104 82.8247 95.2103 82.8246 95.2103C82.8245 95.2102 82.8245 95.2101 82.4949 95.5862ZM89.4443 104.344C90.8308 107.117 91.6746 110.753 92.0979 114.14C92.5217 117.53 92.5164 120.606 92.2431 122.245L93.2295 122.41C93.5252 120.636 93.5199 117.453 93.0902 114.016C92.6601 110.575 91.797 106.814 90.3387 103.897L89.4443 104.344ZM82.4949 100.707C82.1212 101.039 82.1212 101.039 82.1212 101.039C82.1213 101.039 82.1213 101.039 82.1213 101.039C82.1214 101.039 82.1216 101.039 82.1218 101.04C82.1223 101.04 82.123 101.041 82.124 101.042C82.126 101.044 82.1291 101.048 82.1333 101.053C82.1416 101.062 82.1541 101.076 82.1706 101.095C82.2036 101.133 82.2526 101.189 82.3156 101.262C82.4418 101.408 82.6245 101.621 82.8492 101.89C83.2989 102.428 83.9162 103.186 84.5861 104.068C85.933 105.84 87.466 108.075 88.294 110.007L89.2131 109.613C88.3343 107.563 86.7379 105.246 85.3822 103.463C84.7009 102.566 84.0735 101.795 83.6164 101.248C83.3878 100.975 83.2015 100.757 83.0721 100.608C83.0074 100.533 82.9569 100.475 82.9223 100.436C82.9051 100.416 82.8918 100.401 82.8828 100.391C82.8783 100.386 82.8749 100.382 82.8725 100.379C82.8713 100.378 82.8704 100.377 82.8697 100.376C82.8694 100.376 82.8692 100.375 82.869 100.375C82.8689 100.375 82.8688 100.375 82.8688 100.375C82.8687 100.375 82.8687 100.375 82.4949 100.707ZM88.294 110.007C90.7473 115.732 90.5281 123.432 89.9673 126.797L90.9537 126.961C91.5307 123.499 91.7715 115.583 89.2131 109.613L88.294 110.007ZM82.4994 106.397C82.0652 106.645 82.0652 106.645 82.0652 106.645C82.0653 106.645 82.0653 106.645 82.0653 106.645C82.0654 106.645 82.0655 106.645 82.0657 106.645C82.066 106.646 82.0666 106.647 82.0673 106.648C82.0687 106.651 82.0709 106.655 82.0739 106.66C82.0797 106.67 82.0886 106.686 82.1002 106.706C82.1234 106.747 82.1578 106.808 82.2022 106.888C82.2909 107.046 82.4195 107.278 82.5782 107.569C82.8956 108.151 83.3332 108.971 83.8132 109.917C84.7761 111.816 85.8993 114.208 86.5723 116.227L87.521 115.911C86.8238 113.819 85.6733 111.375 84.7051 109.465C84.2197 108.508 83.7773 107.679 83.4562 107.09C83.2956 106.796 83.1653 106.561 83.075 106.399C83.0298 106.319 82.9946 106.256 82.9706 106.214C82.9586 106.193 82.9495 106.176 82.9432 106.166C82.9401 106.16 82.9377 106.156 82.9361 106.153C82.9353 106.152 82.9347 106.15 82.9343 106.15C82.934 106.149 82.9339 106.149 82.9338 106.149C82.9337 106.149 82.9336 106.149 82.9336 106.149C82.9336 106.149 82.9335 106.149 82.4994 106.397ZM86.5723 116.227C88.2484 121.255 88.2498 127.429 87.6914 130.78L88.6778 130.944C89.2573 127.467 89.2587 121.124 87.521 115.911L86.5723 116.227ZM82.4994 112.655C82.052 112.878 82.052 112.878 82.052 112.878C82.052 112.878 82.052 112.878 82.0521 112.879C82.0521 112.879 82.0522 112.879 82.0523 112.879C82.0526 112.88 82.0531 112.881 82.0537 112.882C82.0549 112.884 82.0568 112.888 82.0593 112.893C82.0645 112.904 82.0722 112.919 82.0823 112.94C82.1027 112.982 82.1329 113.044 82.1716 113.124C82.2491 113.286 82.3609 113.523 82.497 113.822C82.7693 114.421 83.1385 115.266 83.5252 116.252C84.3019 118.231 85.136 120.745 85.4126 122.959L86.4049 122.834C86.1126 120.496 85.2419 117.889 84.4562 115.886C84.0617 114.881 83.6852 114.019 83.4072 113.408C83.2681 113.103 83.1535 112.86 83.0735 112.693C83.0335 112.609 83.0021 112.544 82.9805 112.5C82.9697 112.478 82.9614 112.461 82.9558 112.45C82.9529 112.444 82.9507 112.44 82.9492 112.437C82.9485 112.435 82.9479 112.434 82.9475 112.433C82.9473 112.433 82.9471 112.433 82.947 112.432C82.9469 112.432 82.9469 112.432 82.9468 112.432C82.9468 112.432 82.9467 112.432 82.4994 112.655ZM85.4126 122.959C86.0714 128.229 85.4181 130.195 84.8466 133.625L85.833 133.789C86.3993 130.391 87.0851 128.276 86.4049 122.834L85.4126 122.959Z" fill="currentColor"/>
</svg>
