<svg width="40" height="40" viewBox="0 0 40 40" fill="none" xmlns="http://www.w3.org/2000/svg">
<path d="M7.55099 14.8569C8.57234 9.67922 12.6636 9.24887 14.8794 11.2884M14.8794 11.2884C16.3048 8.98167 17.4629 8.01267 20 7C22.5371 8.01267 23.6952 8.98167 25.1206 11.2884M14.8794 11.2884C14.8794 11.2884 14.3404 12.1051 14.9179 13.8747C15.4954 15.6444 17.1771 17.6453 19.8652 20.0681C14.6642 22.9698 16.4946 29.6511 20 33M20 33C15.894 29.7922 15.004 26.3512 12.3191 21.7016C11.3759 20.0681 10.7021 18.8429 9.62411 17.3455C8.5461 15.8482 7.39958 14.7675 6.87025 14.5554C6.41603 14.3733 5.89326 14.2173 5.31206 14.0961C4.81386 13.9922 4.27273 13.914 3.69504 13.867C3.37535 13.841 3.04448 13.8246 2.70348 13.8188M20 33C19.0329 32.6487 10.7021 23.6073 8.14184 21.1571C5.58156 18.7068 2.54352 15.393 2.70348 13.8188M20 33C24.106 29.7922 24.996 26.3512 27.6808 21.7016C28.6241 20.0681 29.2979 18.8429 30.3759 17.3455C31.4539 15.8482 32.6004 14.7675 33.1297 14.5554C33.584 14.3733 34.1067 14.2173 34.6879 14.0961C35.1861 13.9922 35.7273 13.914 36.305 13.867C36.6246 13.841 36.9555 13.8246 37.2965 13.8188M20 33C23.5054 29.6511 25.3358 22.9698 20.1348 20.0681C22.8229 17.6453 24.5046 15.6444 25.0821 13.8747C25.6596 12.1051 25.1206 11.2884 25.1206 11.2884M20 33C20.9671 32.6487 29.2979 23.6073 31.8582 21.1571C34.4184 18.7068 37.4565 15.393 37.2965 13.8188M1 13.8747C1.59062 13.8268 2.1599 13.8094 2.70348 13.8188M32.449 14.8569C31.4277 9.67922 27.3364 9.24887 25.1206 11.2884M39 13.8747C38.4094 13.8268 37.8401 13.8094 37.2965 13.8188" stroke="currentColor" stroke-width="0.5" stroke-linecap="round" stroke-linejoin="round"/>
<path d="M16.901 17.0733L16.8848 17.1725L16.895 17.1731L16.901 17.0733ZM17.5747 22.3461C17.63 22.3461 17.6747 22.3013 17.6747 22.2461C17.6747 22.1908 17.63 22.1461 17.5747 22.1461V22.3461ZM17.0357 30.1414L16.9479 30.1911L16.9563 30.2021L17.0357 30.1414ZM11.3762 21.4293L11.2895 21.4795L11.2924 21.4839L11.3762 21.4293ZM10.0297 21.1571L9.94301 21.2072L9.94592 21.2117L10.0297 21.1571ZM9.08538 21.0209L8.9987 21.0711L9.00161 21.0756L9.08538 21.0209ZM20.0003 7L20.1002 6.99552C20.098 6.94625 20.0602 6.90595 20.0111 6.90059C19.9621 6.89524 19.9165 6.92643 19.9037 6.97406L20.0003 7ZM19.6681 10.4031L19.7628 10.4353L19.6681 10.4031ZM18.2631 16.1204L18.3475 16.174L18.2631 16.1204ZM20.0003 20.0681L19.9256 20.1346C19.9532 20.1656 19.9971 20.1763 20.0359 20.1615C20.0746 20.1467 20.1003 20.1096 20.1003 20.0681H20.0003ZM19.17 13.1257L19.0707 13.1134L19.17 13.1257ZM19.0154 14.0785L18.9174 14.0583L19.0154 14.0785ZM20.0561 21.1039C20.1019 21.073 20.1141 21.0109 20.0832 20.9651C20.0523 20.9193 19.9902 20.9072 19.9444 20.938L20.0561 21.1039ZM18.7775 21.9738L18.7078 21.9021L18.7775 21.9738ZM16.5344 26.3056C16.5211 26.3592 16.5537 26.4135 16.6073 26.4269C16.6609 26.4402 16.7151 26.4076 16.7285 26.354L16.5344 26.3056ZM20.0635 22.0513C20.1063 22.0164 20.1127 21.9534 20.0778 21.9106C20.0429 21.8678 19.9799 21.8614 19.9371 21.8963L20.0635 22.0513ZM18.2485 23.7435L18.1666 23.686L18.2485 23.7435ZM16.9371 27.9796C16.9461 28.0341 16.9975 28.071 17.052 28.062C17.1065 28.053 17.1434 28.0016 17.1344 27.9471L16.9371 27.9796ZM20.0666 23.1377C20.1079 23.1011 20.1118 23.0379 20.0751 22.9965C20.0385 22.9552 19.9753 22.9513 19.934 22.988L20.0666 23.1377ZM17.4761 29.477C17.4851 29.5315 17.5365 29.5684 17.591 29.5594C17.6455 29.5504 17.6824 29.4989 17.6734 29.4445L17.4761 29.477ZM20.0753 24.354C20.1118 24.3126 20.1078 24.2494 20.0663 24.2129C20.0249 24.1764 19.9617 24.1804 19.9252 24.2219L20.0753 24.354ZM18.518 26.466L18.6101 26.505L18.518 26.466ZM18.0151 30.566C18.0241 30.6205 18.0755 30.6574 18.13 30.6484C18.1845 30.6394 18.2214 30.588 18.2124 30.5335L18.0151 30.566ZM20.0003 25.6492L20.0873 25.6C20.0696 25.5686 20.0363 25.5492 20.0003 25.5492C19.9643 25.5492 19.931 25.5686 19.9133 25.5999L20.0003 25.6492ZM18.9223 27.9634L18.8273 27.932L18.9223 27.9634ZM18.5541 31.5189C18.5631 31.5734 18.6145 31.6103 18.669 31.6013C18.7235 31.5923 18.7604 31.5408 18.7514 31.4863L18.5541 31.5189ZM20.0003 27.1466L20.0899 27.1023C20.0731 27.0682 20.0383 27.0466 20.0003 27.0466C19.9623 27.0466 19.9275 27.0681 19.9106 27.1022L20.0003 27.1466ZM19.2278 32.1995C19.2368 32.254 19.2883 32.2909 19.3428 32.2819C19.3973 32.2729 19.4342 32.2215 19.4252 32.167L19.2278 32.1995ZM20.0003 29.5969L20.0921 29.5572L20.0919 29.5569L20.0003 29.5969ZM20.0003 33L19.9089 33.0407C19.9241 33.0747 19.9568 33.0974 19.9939 33.0998C20.031 33.1022 20.0663 33.0838 20.0857 33.052L20.0003 33ZM23.0985 17.0733L23.1045 17.1736L23.1146 17.172L23.0985 17.0733ZM22.4247 22.1461C22.3695 22.1461 22.3247 22.1908 22.3247 22.2461C22.3247 22.3013 22.3695 22.3461 22.4247 22.3461V22.1461ZM22.9638 30.1414L23.044 30.2027L23.0508 30.1906L22.9638 30.1414ZM28.6233 21.4293L28.7072 21.484L28.7099 21.4794L28.6233 21.4293ZM29.9698 21.1571L30.0537 21.2118L30.0564 21.2071L29.9698 21.1571ZM30.9141 21.0209L30.998 21.0756L31.0007 21.071L30.9141 21.0209ZM19.9992 7.03636L20.0958 7.01042C20.083 6.96278 20.0374 6.93159 19.9884 6.93695C19.9393 6.94231 19.9015 6.98261 19.8993 7.03188L19.9992 7.03636ZM20.3314 10.4031L20.2367 10.4352V10.4352L20.3314 10.4031ZM21.7364 16.1204L21.652 16.174V16.174L21.7364 16.1204ZM19.9992 20.0681H19.8992C19.8992 20.1096 19.9248 20.1467 19.9636 20.1615C20.0024 20.1763 20.0463 20.1656 20.0739 20.1346L19.9992 20.0681ZM20.8295 13.1256L20.9288 13.1134L20.8295 13.1256ZM20.9841 14.0785L21.0821 14.0583L20.9841 14.0785ZM20.0551 20.938C20.0093 20.9072 19.9471 20.9193 19.9163 20.9651C19.8854 21.0109 19.8975 21.073 19.9433 21.1039L20.0551 20.938ZM21.222 21.9738L21.2917 21.9021L21.222 21.9738ZM23.271 26.354C23.2843 26.4076 23.3386 26.4402 23.3922 26.4269C23.4458 26.4135 23.4784 26.3592 23.465 26.3056L23.271 26.354ZM20.0624 21.8963C20.0196 21.8614 19.9566 21.8678 19.9217 21.9106C19.8868 21.9534 19.8932 22.0164 19.936 22.0513L20.0624 21.8963ZM21.751 23.7435L21.8329 23.686L21.751 23.7435ZM22.8651 27.9471C22.8561 28.0016 22.893 28.053 22.9475 28.062C23.002 28.071 23.0534 28.0341 23.0624 27.9796L22.8651 27.9471ZM20.0655 22.988C20.0241 22.9513 19.9609 22.9552 19.9243 22.9965C19.8877 23.0379 19.8916 23.1011 19.9329 23.1377L20.0655 22.988ZM22.3261 29.4445C22.3171 29.4989 22.354 29.5504 22.4085 29.5594C22.463 29.5684 22.5144 29.5315 22.5234 29.477L22.3261 29.4445ZM20.0743 24.2219C20.0378 24.1804 19.9746 24.1764 19.9332 24.2129C19.8917 24.2494 19.8877 24.3126 19.9241 24.354L20.0743 24.2219ZM21.4815 26.466L21.3894 26.505L21.4815 26.466ZM21.7871 30.5335C21.7781 30.588 21.815 30.6394 21.8695 30.6484C21.924 30.6574 21.9754 30.6205 21.9844 30.566L21.7871 30.5335ZM21.0772 27.9634L21.1722 27.932L21.0772 27.9634ZM21.2481 31.4863C21.2391 31.5408 21.276 31.5923 21.3305 31.6013C21.3849 31.6103 21.4364 31.5734 21.4454 31.5189L21.2481 31.4863ZM20.5743 32.167C20.5653 32.2215 20.6022 32.2729 20.6567 32.2819C20.7112 32.2909 20.7627 32.254 20.7716 32.1995L20.5743 32.167ZM11.7378 10.1759C10.559 10.7083 9.63131 11.6702 9.00109 12.6881C8.37188 13.7045 8.03158 14.7892 8.04071 15.5771L8.2407 15.5748C8.23214 14.8364 8.55485 13.7889 9.17114 12.7934C9.78641 11.7996 10.6867 10.8701 11.8202 10.3582L11.7378 10.1759ZM12.6872 10.1739C11.4459 10.6599 10.3918 11.7413 9.66382 12.8957C8.93744 14.0476 8.5215 15.2951 8.58138 16.1276L8.78086 16.1132C8.72541 15.3424 9.11643 14.1387 9.83299 13.0024C10.548 11.8686 11.5728 10.825 12.7601 10.3601L12.6872 10.1739ZM13.6332 10.309C12.3146 10.7811 11.1261 11.9937 10.3002 13.2827C9.88624 13.9288 9.56058 14.5984 9.35373 15.2112C9.14769 15.8216 9.0562 16.3853 9.12125 16.816L9.31901 16.7861C9.26088 16.4013 9.3414 15.873 9.54322 15.2751C9.74423 14.6797 10.0623 14.0248 10.4686 13.3906C11.2832 12.1192 12.4412 10.9482 13.7006 10.4973L13.6332 10.309ZM14.1775 10.8518C12.8114 11.257 11.6357 12.513 10.8446 13.8724C10.4478 14.5542 10.1447 15.2671 9.96098 15.9216C9.77785 16.5739 9.71086 17.1772 9.79555 17.636L9.99223 17.5996C9.91547 17.1838 9.97417 16.6146 10.1535 15.9756C10.3323 15.3388 10.6285 14.6414 11.0175 13.973C11.7979 12.6319 12.9397 11.4275 14.2344 11.0435L14.1775 10.8518ZM14.5785 11.2612C13.2451 11.7075 12.1194 13.1213 11.363 14.6122C10.9831 15.3609 10.6928 16.1357 10.5138 16.8306C10.3356 17.5229 10.2653 18.1456 10.3341 18.5861L10.5317 18.5553C10.4691 18.1547 10.5317 17.5633 10.7075 16.8805C10.8827 16.2004 11.1677 15.4391 11.5413 14.7027C12.2919 13.2235 13.3863 11.8711 14.6419 11.4509L14.5785 11.2612ZM14.5799 12.3497C13.9446 12.5515 13.3972 12.9967 12.9365 13.5695C12.4757 14.1426 12.0976 14.8484 11.8019 15.5814C11.2114 17.0447 10.9415 18.636 11.0069 19.5309L11.2064 19.5163C11.1438 18.6606 11.4045 17.1006 11.9873 15.6562C12.2782 14.9354 12.6474 14.2482 13.0924 13.6949C13.5377 13.1412 14.0547 12.7264 14.6405 12.5403L14.5799 12.3497ZM14.7113 13.3037C13.403 13.7713 12.6122 15.221 12.1657 16.7179C11.7174 18.2212 11.6039 19.8126 11.6794 20.6219L11.8786 20.6033C11.8057 19.8222 11.9155 18.2565 12.3574 16.7751C12.8011 15.2873 13.5675 13.9249 14.7786 13.4921L14.7113 13.3037ZM15.1297 14.3891C14.4667 14.5308 13.9461 14.9547 13.5419 15.5276C13.1383 16.0997 12.8466 16.8258 12.6403 17.5862C12.2278 19.1065 12.1507 20.7868 12.2197 21.709L12.4191 21.6941C12.3516 20.7918 12.4274 19.1346 12.8333 17.6386C13.0362 16.8907 13.32 16.189 13.7053 15.6429C14.0901 15.0975 14.5718 14.7128 15.1715 14.5847L15.1297 14.3891ZM15.6842 15.476C14.9933 15.5035 14.4536 15.8599 14.0394 16.3984C13.6269 16.9346 13.3348 17.6558 13.1324 18.4296C12.7276 19.9776 12.674 21.7669 12.7588 22.7988L12.9581 22.7824C12.8747 21.768 12.9279 20.002 13.3259 18.4802C13.5249 17.7191 13.8083 17.0268 14.1979 16.5203C14.5858 16.016 15.075 15.7004 15.6922 15.6758L15.6842 15.476ZM16.2263 16.1565C15.5363 16.1629 15.0118 16.5415 14.621 17.1217C14.2319 17.6994 13.9689 18.4851 13.7958 19.3326C13.4495 21.0289 13.457 23.0071 13.5674 24.1614L13.7665 24.1423C13.6574 23.0019 13.6504 21.0444 13.9918 19.3726C14.1626 18.5362 14.4189 17.7798 14.7869 17.2334C15.1532 16.6895 15.6235 16.3621 16.2281 16.3565L16.2263 16.1565ZM16.9171 16.9746C16.2697 16.8692 15.7746 17.2144 15.4058 17.7926C15.0388 18.3681 14.7831 19.1919 14.606 20.0972C14.2512 21.9106 14.2042 24.0914 14.2407 25.3798L14.4407 25.3741C14.4043 24.0923 14.4516 21.9281 14.8023 20.1356C14.9779 19.2381 15.2277 18.4438 15.5745 17.9001C15.9195 17.3592 16.3465 17.0843 16.8849 17.172L16.9171 16.9746ZM17.4561 17.6552C17.1345 17.6029 16.848 17.6704 16.5972 17.8341C16.3489 17.9961 16.1399 18.2494 15.9631 18.563C15.6101 19.1891 15.3719 20.0803 15.2118 21.0531C14.8912 23.0016 14.878 25.3177 14.9145 26.6049L15.1144 26.5993C15.078 25.3162 15.0917 23.0151 15.4092 21.0856C15.5682 20.1194 15.8018 19.2562 16.1373 18.6612C16.3048 18.3642 16.4942 18.1401 16.7065 18.0016C16.9163 17.8646 17.1526 17.8084 17.4239 17.8526L17.4561 17.6552ZM18.1298 18.3359C17.8046 18.2829 17.5179 18.3658 17.2708 18.554C17.0269 18.7398 16.8244 19.0257 16.655 19.3769C16.3163 20.0787 16.0956 21.0708 15.9525 22.1451C15.6661 24.2967 15.6865 26.8161 15.723 28.1023L15.9229 28.0966C15.8865 26.8126 15.8665 24.3064 16.1508 22.1715C16.2931 21.1026 16.5106 20.1363 16.8351 19.4638C16.9973 19.1277 17.1827 18.8725 17.392 18.7131C17.5982 18.556 17.83 18.4897 18.0977 18.5333L18.1298 18.3359ZM18.6381 18.8801C18.0502 18.967 17.6286 19.2987 17.329 19.7689C17.0314 20.2359 16.8524 20.8414 16.7422 21.488C16.5222 22.7782 16.5703 24.2774 16.5316 25.2368L16.7314 25.2449C16.7711 24.263 16.7222 22.7951 16.9393 21.5216C17.0477 20.8863 17.2208 20.3108 17.4977 19.8763C17.7725 19.4451 18.1476 19.1548 18.6674 19.078L18.6381 18.8801ZM19.1607 19.2924C18.1919 19.6091 17.736 20.3567 17.5409 21.0159C17.4434 21.3452 17.4099 21.6552 17.4096 21.8846C17.4094 21.9989 17.4175 22.096 17.4312 22.1671C17.4379 22.2018 17.4469 22.2354 17.4596 22.2627C17.4658 22.2761 17.4753 22.2933 17.49 22.3087C17.5046 22.324 17.5332 22.3461 17.5747 22.3461V22.1461C17.6079 22.1461 17.6281 22.1637 17.6345 22.1705C17.641 22.1773 17.6425 22.1819 17.641 22.1786C17.6383 22.1726 17.633 22.1572 17.6276 22.1292C17.6171 22.0747 17.6094 21.9912 17.6096 21.8849C17.6099 21.6731 17.641 21.3822 17.7327 21.0727C17.9158 20.4542 18.3358 19.7725 19.2228 19.4825L19.1607 19.2924ZM16.5321 26.591C16.4073 27.7117 16.5387 28.6457 16.6868 29.2809C16.7609 29.5986 16.8392 29.8415 16.8917 29.9953C16.9187 30.0744 16.9367 30.1242 16.9457 30.153C16.9479 30.1598 16.9487 30.163 16.9489 30.1638C16.949 30.1642 16.9485 30.1621 16.9481 30.1585C16.9479 30.1575 16.9461 30.1441 16.9502 30.127C16.9525 30.1178 16.9584 30.0994 16.9749 30.0822C16.9942 30.0622 17.0199 30.0521 17.0452 30.0518C17.0667 30.0516 17.0827 30.0585 17.09 30.0621C17.098 30.0661 17.1037 30.0704 17.1065 30.0727C17.1151 30.0796 17.1189 30.0855 17.1152 30.0806L16.9563 30.2021C16.9597 30.2066 16.9689 30.2187 16.9814 30.2287C16.9852 30.2318 16.9917 30.2366 17.0006 30.241C17.0086 30.245 17.0252 30.2521 17.0473 30.2518C17.0732 30.2516 17.0994 30.2413 17.119 30.2209C17.136 30.2033 17.1421 30.1843 17.1445 30.1744C17.1491 30.1557 17.1472 30.14 17.1468 30.1359C17.146 30.1292 17.1448 30.1232 17.1438 30.1191C17.1419 30.1107 17.1392 30.1017 17.1366 30.0934C17.1267 30.0616 17.1057 30.0034 17.081 29.9307C17.0298 29.7808 16.9537 29.5446 16.8816 29.2355C16.7373 28.6169 16.6092 27.7063 16.7309 26.6132L16.5321 26.591ZM5.54032 14.3061C6.46116 14.7135 7.43504 15.7002 8.41521 16.9984C9.39275 18.2932 10.3661 19.8832 11.2896 21.4794L11.4627 21.3792C10.5384 19.7816 9.56005 18.1828 8.57482 16.8779C7.59223 15.5765 6.59231 14.5528 5.62123 14.1232L5.54032 14.3061ZM11.2924 21.4839C11.929 22.4601 12.6064 23.4028 13.2227 24.2752C13.8401 25.1491 14.3952 25.9513 14.7916 26.6514L14.9657 26.5528C14.5635 25.8427 14.0027 25.0327 13.3861 24.1598C12.7684 23.2855 12.0939 22.3469 11.4599 21.3747L11.2924 21.4839ZM4.19385 14.0339C5.11469 14.4412 6.08858 15.428 7.06874 16.7262C8.04629 18.0209 9.01966 19.611 9.94313 21.2071L10.1162 21.107C9.19194 19.5094 8.21358 17.9106 7.22836 16.6057C6.24576 15.3042 5.24584 14.2805 4.27477 13.851L4.19385 14.0339ZM9.94592 21.2117C10.5862 22.1935 11.841 23.6171 13.0283 24.9643C13.6234 25.6395 14.2025 26.2964 14.6827 26.8727C15.1643 27.4505 15.5413 27.9411 15.7359 28.2849L15.91 28.1863C15.7053 27.825 15.3174 27.3218 14.8364 26.7446C14.354 26.1658 13.7729 25.5066 13.1784 24.832C11.9863 23.4795 10.7438 22.069 10.1134 21.1024L9.94592 21.2117ZM3.24954 13.8977C4.17038 14.3051 5.14426 15.2918 6.12443 16.5901C7.10198 17.8848 8.07535 19.4749 8.99882 21.071L9.17193 20.9709C8.24763 19.3733 7.26927 17.7745 6.28405 16.4696C5.30145 15.1681 4.30153 14.1444 3.33045 13.7148L3.24954 13.8977ZM9.00161 21.0756C9.32389 21.5697 9.93451 22.3004 10.6766 23.1361C11.42 23.9733 12.3 24.9211 13.1643 25.851C14.0291 26.7815 14.8779 27.6939 15.5605 28.4618C16.2461 29.233 16.7554 29.8492 16.9487 30.1906L17.1227 30.0921C16.9168 29.7284 16.3915 29.0955 15.71 28.3289C15.0256 27.559 14.175 26.6447 13.3108 25.7149C12.4462 24.7846 11.5678 23.8385 10.8261 23.0033C10.0832 22.1666 9.48217 21.4463 9.16914 20.9663L9.00161 21.0756ZM2.82058 13.8821C3.12727 14.1456 3.60377 14.7017 4.18974 15.4425C4.7737 16.1808 5.46057 17.095 6.18661 18.0685C7.63745 20.0138 9.24513 22.1966 10.4913 23.6719L10.644 23.5428C9.40292 22.0735 7.80005 19.8973 6.34694 17.9489C5.621 16.9756 4.93256 16.0593 4.3466 15.3185C3.76264 14.5802 3.27461 14.0085 2.9509 13.7304L2.82058 13.8821ZM19.9006 6.99167C19.7829 8.39974 19.5033 9.29085 18.768 10.1882C18.0257 11.0942 16.817 12.0096 14.8211 13.453L14.9383 13.6151C16.9275 12.1765 18.1604 11.2453 18.9227 10.3149C19.6921 9.37593 19.9802 8.441 20.0999 7.00833L19.9006 6.99167ZM19.9037 6.97406C19.784 7.41984 19.4029 7.90538 18.8823 8.39059C18.3648 8.87297 17.7226 9.34318 17.1007 9.76021C16.479 10.1771 15.8812 10.5385 15.4514 10.8052C15.2376 10.9378 15.0631 11.0484 14.9496 11.1301C14.8942 11.17 14.8468 11.2075 14.817 11.2403C14.8042 11.2544 14.7824 11.2803 14.7741 11.3143C14.7693 11.3342 14.7678 11.3621 14.7812 11.3909C14.7946 11.4195 14.8168 11.4363 14.835 11.4454L14.9245 11.2666C14.9349 11.2718 14.9519 11.2837 14.9625 11.3064C14.9731 11.3292 14.9713 11.35 14.9684 11.3618C14.9641 11.3796 14.9556 11.3851 14.9649 11.3749C14.9794 11.359 15.0117 11.3319 15.0665 11.2924C15.1734 11.2154 15.3419 11.1084 15.5568 10.9751C15.9843 10.7099 16.5865 10.3458 17.2121 9.92632C17.8375 9.50694 18.4898 9.02988 19.0187 8.5369C19.5445 8.04676 19.9618 7.52887 20.0968 7.02594L19.9037 6.97406ZM19.9015 6.98447C19.7941 7.66779 19.6347 8.1842 19.4043 8.61859C19.1742 9.05251 18.8705 9.40969 18.4676 9.77141C18.0633 10.1344 17.562 10.4995 16.9366 10.9516C16.3124 11.4027 15.5679 11.9382 14.6829 12.6389L14.807 12.7957C15.6881 12.0981 16.4293 11.565 17.0538 11.1136C17.6771 10.6631 18.1875 10.2917 18.6012 9.92023C19.0163 9.54751 19.337 9.17239 19.581 8.71231C19.8248 8.2527 19.9894 7.71342 20.0991 7.01553L19.9015 6.98447ZM19.9004 7.00448C19.9195 7.43173 19.9229 7.82428 19.9005 8.19272L20.1001 8.20487C20.1231 7.82695 20.1195 7.42683 20.1002 6.99552L19.9004 7.00448ZM19.9005 8.19272C19.8361 9.24928 19.5599 10.1113 18.8265 11.0177C18.0889 11.9293 16.8865 12.8889 14.9603 14.1306L15.0686 14.2987C16.9982 13.0549 18.2233 12.0811 18.982 11.1435C19.7448 10.2006 20.0336 9.29737 20.1001 8.20487L19.9005 8.19272ZM19.2029 11.2285C18.5748 12.4126 17.4276 13.6174 15.3645 14.9474L15.4729 15.1155C17.5524 13.7749 18.7298 12.5473 19.3796 11.3222L19.2029 11.2285ZM19.1913 11.2765C19.1918 11.3247 19.1915 11.3726 19.1902 11.4201L19.3901 11.4255C19.3915 11.3754 19.3919 11.325 19.3913 11.2742L19.1913 11.2765ZM19.1902 11.4201C19.1892 11.4578 19.1876 11.4953 19.1855 11.5325L19.3851 11.544C19.3874 11.5047 19.389 11.4652 19.3901 11.4255L19.1902 11.4201ZM19.1855 11.5325C19.1211 12.6533 18.5532 13.5655 17.8563 14.2548C17.1588 14.9446 16.3384 15.4045 15.7867 15.6188L15.8592 15.8053C16.4332 15.5822 17.2777 15.1083 17.9969 14.397C18.7166 13.6852 19.317 12.7292 19.3851 11.544L19.1855 11.5325ZM19.1913 11.2754C19.1913 11.3244 19.1909 11.3731 19.1902 11.4213L19.3901 11.4244C19.3909 11.3751 19.3913 11.3254 19.3913 11.2754H19.1913ZM19.1902 11.4213C19.188 11.5591 19.1829 11.6935 19.1749 11.8243L19.3745 11.8365C19.3827 11.7025 19.388 11.5652 19.3901 11.4244L19.1902 11.4213ZM19.1749 11.8243C18.9862 14.9188 17.2172 16.0913 16.3393 16.2953L16.3846 16.4901C17.3543 16.2648 19.1808 15.0134 19.3745 11.8365L19.1749 11.8243ZM19.9004 7.00448C19.9283 7.62779 19.9414 8.18752 19.9006 8.73141L20.1 8.74638C20.1418 8.18994 20.1282 7.62027 20.1002 6.99552L19.9004 7.00448ZM19.9006 8.73141C19.8595 9.27843 19.7638 9.8095 19.5734 10.371L19.7628 10.4353C19.9593 9.8557 20.0578 9.30781 20.1 8.74638L19.9006 8.73141ZM19.5734 10.371C19.4764 10.6571 19.3547 10.9424 19.2029 11.2285L19.3796 11.3222C19.5365 11.0265 19.6624 10.7313 19.7628 10.4353L19.5734 10.371ZM18.1786 16.0669C18.1742 16.0739 18.1697 16.0809 18.1653 16.0878L18.3334 16.1961C18.3381 16.1887 18.3428 16.1814 18.3475 16.174L18.1786 16.0669ZM18.1653 16.0878C17.7094 16.7954 17.2143 16.9917 16.9069 16.9735L16.895 17.1731C17.2985 17.1971 17.8535 16.9411 18.3334 16.1961L18.1653 16.0878ZM20.0749 20.0015C19.6684 19.5453 19.0908 18.8055 18.6878 18.0655C18.4862 17.6952 18.3309 17.3296 18.2608 17.0024C18.1903 16.6738 18.2087 16.3985 18.3345 16.1944L18.1642 16.0895C17.9999 16.3562 17.9897 16.6921 18.0652 17.0443C18.141 17.3978 18.306 17.7825 18.5122 18.1611C18.9248 18.9189 19.5128 19.6713 19.9256 20.1346L20.0749 20.0015ZM18.5721 15.2678C18.4498 15.5857 18.3164 15.8496 18.1786 16.0669L18.3475 16.174C18.4932 15.9442 18.6323 15.6683 18.7588 15.3396L18.5721 15.2678ZM18.5657 15.3105C18.6158 16.0374 18.8883 16.743 19.1785 17.3255C19.3239 17.6173 19.4745 17.8798 19.6053 18.0998C19.7375 18.3222 19.8459 18.4958 19.9124 18.6183L20.0882 18.523C20.0193 18.396 19.9055 18.2134 19.7772 17.9976C19.6476 17.7795 19.4998 17.5218 19.3575 17.2363C19.0724 16.664 18.8127 15.9857 18.7652 15.2968L18.5657 15.3105ZM19.1913 11.2737C19.1898 11.3622 19.1878 11.4494 19.1853 11.5353L19.3852 11.5411C19.3878 11.4544 19.3898 11.3663 19.3913 11.277L19.1913 11.2737ZM19.1853 11.5353C19.1825 11.6339 19.179 11.7308 19.1748 11.8261L19.3746 11.8348C19.3788 11.7385 19.3824 11.6406 19.3852 11.5411L19.1853 11.5353ZM19.1748 11.8261C19.1544 12.294 19.1189 12.7221 19.0707 13.1134L19.2692 13.1379C19.3181 12.7408 19.3541 12.3074 19.3746 11.8348L19.1748 11.8261ZM19.0707 13.1134C19.0286 13.4559 18.9769 13.7702 18.9174 14.0583L19.1133 14.0988C19.174 13.805 19.2265 13.4853 19.2692 13.1379L19.0707 13.1134ZM18.9174 14.0583C18.8203 14.5285 18.7026 14.9287 18.5721 15.2678L18.7588 15.3396C18.8936 14.9891 19.0143 14.5782 19.1133 14.0988L18.9174 14.0583ZM18.916 14.0902C19.0612 15.3221 19.7836 16.0502 19.9308 16.1924L20.0697 16.0485C19.935 15.9184 19.2518 15.2307 19.1147 14.0668L18.916 14.0902ZM19.0712 13.1411C19.1429 13.5995 19.3451 13.9547 19.5423 14.1643C19.6391 14.2672 19.7426 14.3434 19.8363 14.3722C19.8832 14.3866 19.9403 14.3929 19.9939 14.3695C20.0525 14.3438 20.0855 14.2924 20.0979 14.2363L19.9026 14.193C19.9008 14.2014 19.9014 14.1917 19.9137 14.1863C19.9211 14.183 19.918 14.1881 19.8951 14.181C19.8492 14.1669 19.7744 14.1191 19.688 14.0272C19.5185 13.8471 19.3343 13.5289 19.2688 13.1102L19.0712 13.1411ZM19.9003 7V8.19879H20.1003V7H19.9003ZM19.9003 8.19879V8.7389H20.1003V8.19879H19.9003ZM19.9003 8.7389V12.5811H20.1003V8.7389H19.9003ZM19.9003 12.5811V14.2147H20.1003V12.5811H19.9003ZM19.9003 14.2147V16.1204H20.1003V14.2147H19.9003ZM19.9003 16.1204V18.5707H20.1003V16.1204H19.9003ZM19.9003 18.5707V20.0681H20.1003V18.5707H19.9003ZM19.194 11.2985C19.3429 11.9253 19.4887 12.3141 19.6209 12.5235C19.685 12.6251 19.7578 12.7038 19.8431 12.7306C19.8897 12.7452 19.938 12.7435 19.9827 12.7238C20.0254 12.705 20.0578 12.6731 20.0819 12.6389L19.9186 12.5234C19.9083 12.538 19.902 12.5408 19.9021 12.5408C19.9043 12.5398 19.9062 12.5408 19.9031 12.5398C19.8889 12.5353 19.8487 12.5097 19.79 12.4167C19.6764 12.2368 19.5366 11.8753 19.3886 11.2522L19.194 11.2985ZM20.0003 21.0209C19.9444 20.938 19.9444 20.938 19.9444 20.938C19.9444 20.938 19.9444 20.938 19.9443 20.938C19.9443 20.9381 19.9443 20.9381 19.9442 20.9381C19.9441 20.9382 19.944 20.9383 19.9437 20.9384C19.9433 20.9387 19.9427 20.9391 19.942 20.9396C19.9404 20.9407 19.9381 20.9422 19.9351 20.9443C19.9292 20.9483 19.9204 20.9543 19.9091 20.9621C19.8864 20.9776 19.8537 21.0001 19.8131 21.0285C19.7319 21.0852 19.6191 21.1653 19.4926 21.2586C19.2406 21.4446 18.9304 21.6861 18.7078 21.9021L18.8471 22.0456C19.0595 21.8395 19.3607 21.6045 19.6113 21.4196C19.7362 21.3275 19.8475 21.2484 19.9276 21.1924C19.9677 21.1645 19.9999 21.1423 20.0221 21.1271C20.0332 21.1195 20.0417 21.1137 20.0475 21.1097C20.0504 21.1078 20.0526 21.1063 20.054 21.1053C20.0547 21.1048 20.0553 21.1045 20.0556 21.1042C20.0558 21.1041 20.056 21.104 20.056 21.1039C20.0561 21.1039 20.0561 21.1039 20.0561 21.1039C20.0561 21.1039 20.0561 21.1039 20.0561 21.1039C20.0561 21.1039 20.0561 21.1039 20.0003 21.0209ZM18.7078 21.9021C17.3286 23.2405 16.8406 25.0781 16.5344 26.3056L16.7285 26.354C17.0353 25.1239 17.5134 23.3399 18.8471 22.0456L18.7078 21.9021ZM20.0003 21.9738C19.9371 21.8963 19.9371 21.8963 19.9371 21.8963C19.937 21.8963 19.937 21.8964 19.937 21.8964C19.937 21.8964 19.9369 21.8965 19.9368 21.8965C19.9366 21.8967 19.9364 21.8969 19.9361 21.8971C19.9355 21.8976 19.9346 21.8983 19.9334 21.8993C19.9311 21.9012 19.9276 21.9041 19.9231 21.9078C19.9141 21.9152 19.9009 21.9262 19.8838 21.9404C19.8498 21.9688 19.8007 22.0102 19.74 22.0624C19.6187 22.1666 19.4512 22.3139 19.266 22.4864C18.897 22.83 18.4526 23.2783 18.1666 23.686L18.3304 23.8009C18.6037 23.4112 19.0352 22.9747 19.4023 22.6328C19.5851 22.4625 19.7506 22.317 19.8704 22.214C19.9303 22.1626 19.9787 22.1218 20.012 22.0939C20.0287 22.08 20.0416 22.0693 20.0504 22.0621C20.0547 22.0585 20.058 22.0558 20.0602 22.054C20.0613 22.0531 20.0622 22.0524 20.0627 22.0519C20.063 22.0517 20.0632 22.0516 20.0633 22.0515C20.0634 22.0514 20.0634 22.0514 20.0634 22.0514C20.0634 22.0513 20.0635 22.0513 20.0635 22.0513C20.0635 22.0513 20.0635 22.0513 20.0003 21.9738ZM18.1666 23.686C17.691 24.3641 17.3501 25.2271 17.1448 26.0211C16.9402 26.8122 16.8663 27.5506 16.9371 27.9796L17.1344 27.9471C17.0704 27.5593 17.1362 26.8531 17.3384 26.0711C17.5399 25.292 17.8727 24.4533 18.3304 23.8009L18.1666 23.686ZM20.0003 23.0628C19.934 22.988 19.934 22.988 19.934 22.988C19.9339 22.988 19.9339 22.988 19.9339 22.988C19.9338 22.9881 19.9338 22.9881 19.9337 22.9882C19.9335 22.9884 19.9332 22.9886 19.9329 22.9889C19.9322 22.9895 19.9312 22.9904 19.9299 22.9915C19.9273 22.9939 19.9235 22.9973 19.9186 23.0017C19.9086 23.0107 19.894 23.0238 19.8754 23.0408C19.8381 23.0748 19.7844 23.1242 19.7188 23.1862C19.5874 23.3102 19.4078 23.4847 19.2144 23.6868C18.8301 24.0884 18.3826 24.6084 18.1589 25.0604L18.3381 25.1491C18.5471 24.7269 18.9754 24.2259 19.3589 23.8251C19.5494 23.626 19.7265 23.4539 19.856 23.3317C19.9208 23.2705 19.9736 23.2219 20.0101 23.1886C20.0284 23.172 20.0426 23.1592 20.0521 23.1506C20.0569 23.1463 20.0606 23.143 20.063 23.1409C20.0642 23.1398 20.0651 23.139 20.0657 23.1384C20.066 23.1382 20.0662 23.138 20.0664 23.1379C20.0664 23.1378 20.0665 23.1378 20.0665 23.1377C20.0665 23.1377 20.0665 23.1377 20.0666 23.1377C20.0666 23.1377 20.0666 23.1377 20.0003 23.0628ZM18.1589 25.0604C17.8149 25.7552 17.6109 26.6526 17.5092 27.4746C17.4075 28.296 17.4065 29.0554 17.4761 29.477L17.6734 29.4445C17.6082 29.0494 17.6072 28.3113 17.7077 27.4992C17.8081 26.6877 18.0083 25.8154 18.3381 25.1491L18.1589 25.0604ZM20.0003 24.288C19.9252 24.2219 19.9252 24.2219 19.9252 24.2219C19.9252 24.2219 19.9251 24.222 19.9251 24.222C19.9251 24.222 19.925 24.2221 19.9249 24.2222C19.9248 24.2223 19.9246 24.2226 19.9243 24.2229C19.9238 24.2235 19.9229 24.2245 19.9219 24.2257C19.9198 24.2281 19.9166 24.2317 19.9126 24.2364C19.9044 24.2458 19.8925 24.2596 19.8772 24.2774C19.8466 24.3132 19.8026 24.3652 19.7485 24.4305C19.6404 24.5612 19.492 24.7453 19.3308 24.9595C19.0099 25.3861 18.6331 25.9387 18.4259 26.4269L18.6101 26.505C18.8072 26.0404 19.1715 25.504 19.4906 25.0798C19.6495 24.8686 19.7959 24.6869 19.9026 24.558C19.9559 24.4936 19.9992 24.4425 20.0291 24.4075C20.0441 24.39 20.0557 24.3766 20.0636 24.3675C20.0675 24.363 20.0705 24.3596 20.0724 24.3573C20.0734 24.3562 20.0742 24.3553 20.0747 24.3548C20.0749 24.3545 20.0751 24.3543 20.0752 24.3542C20.0753 24.3541 20.0753 24.3541 20.0753 24.354C20.0753 24.354 20.0753 24.354 20.0753 24.354C20.0753 24.354 20.0753 24.354 20.0003 24.288ZM18.4259 26.4269C17.8222 27.8501 17.8787 29.7397 18.0151 30.566L18.2124 30.5335C18.0792 29.7263 18.0269 27.8796 18.6101 26.505L18.4259 26.4269ZM20.0003 25.6492C19.9133 25.5999 19.9132 25.6 19.9132 25.6C19.9132 25.6 19.9132 25.6 19.9132 25.6C19.9132 25.6001 19.9131 25.6001 19.9131 25.6002C19.913 25.6004 19.9128 25.6007 19.9127 25.601C19.9123 25.6017 19.9117 25.6027 19.911 25.604C19.9095 25.6066 19.9073 25.6104 19.9045 25.6155C19.8988 25.6256 19.8905 25.6405 19.8798 25.6598C19.8584 25.6984 19.8275 25.7546 19.7895 25.825C19.7134 25.9657 19.6086 26.1637 19.4936 26.3926C19.2641 26.8492 18.9919 27.4331 18.8273 27.932L19.0172 27.9947C19.1771 27.5101 19.4439 26.9369 19.6723 26.4824C19.7862 26.2556 19.8901 26.0595 19.9654 25.92C20.0031 25.8503 20.0336 25.7948 20.0547 25.7568C20.0653 25.7378 20.0734 25.7232 20.079 25.7133C20.0817 25.7084 20.0838 25.7046 20.0852 25.7022C20.0859 25.7009 20.0864 25.7 20.0868 25.6994C20.087 25.6991 20.0871 25.6988 20.0872 25.6987C20.0872 25.6986 20.0872 25.6986 20.0873 25.6985C20.0873 25.6985 20.0873 25.6985 20.0873 25.6985C20.0873 25.6985 20.0873 25.6985 20.0003 25.6492ZM18.8273 27.932C18.417 29.1755 18.4173 30.6896 18.5541 31.5189L18.7514 31.4863C18.6187 30.6821 18.619 29.2015 19.0172 27.9947L18.8273 27.932ZM20.0003 27.1466C19.9106 27.1022 19.9106 27.1023 19.9106 27.1023C19.9106 27.1023 19.9106 27.1023 19.9106 27.1023C19.9106 27.1024 19.9105 27.1025 19.9105 27.1026C19.9104 27.1028 19.9102 27.103 19.9101 27.1034C19.9097 27.1041 19.9092 27.1052 19.9085 27.1065C19.9072 27.1092 19.9052 27.1132 19.9027 27.1185C19.8976 27.129 19.8902 27.1444 19.8807 27.1643C19.8618 27.2042 19.8347 27.2622 19.8017 27.3352C19.7359 27.4811 19.6468 27.6869 19.5533 27.9271C19.3672 28.4058 19.1614 29.0276 19.0925 29.5846L19.291 29.6091C19.3568 29.0771 19.5554 28.4737 19.7397 27.9996C19.8316 27.7634 19.9193 27.5608 19.984 27.4174C20.0164 27.3458 20.043 27.2889 20.0614 27.2501C20.0706 27.2307 20.0778 27.2158 20.0826 27.2058C20.0851 27.2008 20.0869 27.197 20.0881 27.1946C20.0887 27.1933 20.0892 27.1924 20.0895 27.1918C20.0896 27.1915 20.0897 27.1913 20.0898 27.1911C20.0898 27.1911 20.0899 27.191 20.0899 27.191C20.0899 27.191 20.0899 27.191 20.0899 27.191C20.0899 27.191 20.0899 27.191 20.0003 27.1466ZM19.0925 29.5846C18.9319 30.8829 19.0936 31.3859 19.2278 32.1995L19.4252 32.167C19.2899 31.3471 19.1345 30.8737 19.291 29.6091L19.0925 29.5846ZM19.9087 27.1869C19.9066 27.1817 19.9039 27.1732 19.9031 27.1701C19.9026 27.168 19.9019 27.1644 19.9016 27.163C19.9012 27.1601 19.9009 27.1579 19.9009 27.157C19.9008 27.156 19.9007 27.1552 19.9007 27.1548C19.9006 27.1544 19.9006 27.1541 19.9006 27.154C19.9006 27.1539 19.9007 27.1547 19.9007 27.1569C19.9008 27.161 19.9009 27.1674 19.901 27.1764C19.9011 27.1943 19.9011 27.2204 19.9011 27.2538C19.9011 27.3205 19.9008 27.4153 19.9003 27.529C19.8993 27.7586 19.8977 28.0569 19.8965 28.3625C19.8952 28.6659 19.8942 28.9702 19.8945 29.2009C19.8947 29.3163 19.8952 29.4136 19.8961 29.4833C19.8965 29.518 19.8971 29.5466 19.8979 29.5672C19.8982 29.5774 19.8987 29.5867 19.8992 29.5941C19.8995 29.5977 19.8999 29.6021 19.9004 29.6066C19.9007 29.6087 19.9012 29.612 19.902 29.6158C19.9024 29.6181 19.9042 29.6268 19.9086 29.6368L20.0919 29.5569C20.0961 29.5664 20.0976 29.5742 20.0979 29.5754C20.0984 29.5781 20.0987 29.5799 20.0987 29.5804C20.0989 29.5815 20.0988 29.5814 20.0987 29.5794C20.0984 29.5757 20.0981 29.5695 20.0977 29.5601C20.0971 29.5417 20.0965 29.515 20.0961 29.4806C20.0952 29.4121 20.0947 29.3158 20.0945 29.2007C20.0942 28.9705 20.0952 28.6667 20.0964 28.3634C20.0977 28.0622 20.0993 27.7553 20.1003 27.5299C20.1008 27.4161 20.1011 27.321 20.1011 27.2539C20.1011 27.2204 20.1011 27.1936 20.101 27.1749C20.1009 27.1656 20.1008 27.1579 20.1007 27.1522C20.1006 27.1495 20.1005 27.1465 20.1004 27.1438C20.1003 27.1425 20.1002 27.1402 20.0999 27.1376C20.0998 27.1364 20.0995 27.1338 20.099 27.1307C20.099 27.1306 20.0975 27.1192 20.0918 27.1063L19.9087 27.1869ZM19.9085 29.6365C20.3241 30.5977 20.4082 31.2841 20.3502 31.7967C20.2923 32.3085 20.0917 32.6576 19.9149 32.948L20.0857 33.052C20.266 32.756 20.4859 32.376 20.549 31.8192C20.6119 31.263 20.5175 30.541 20.0921 29.5572L19.9085 29.6365ZM19.9094 29.5552C19.4851 30.4798 19.4186 31.2091 19.4942 31.7826C19.5695 32.3535 19.7858 32.7648 19.9089 33.0407L20.0916 32.9593C19.964 32.6734 19.7632 32.2921 19.6925 31.7565C19.6222 31.2235 19.6811 30.5321 20.0912 29.6386L19.9094 29.5552ZM28.1793 10.3582C29.3128 10.8701 30.2131 11.7996 30.8283 12.7934C31.4446 13.7889 31.7673 14.8364 31.7588 15.5748L31.9588 15.5771C31.9679 14.7892 31.6276 13.7045 30.9984 12.6881C30.3682 11.6702 29.4405 10.7083 28.2616 10.1759L28.1793 10.3582ZM27.2394 10.3601C28.4267 10.825 29.4515 11.8686 30.1665 13.0024C30.8831 14.1387 31.2741 15.3424 31.2186 16.1132L31.4181 16.1276C31.478 15.2951 31.062 14.0476 30.3357 12.8957C29.6077 11.7413 28.5536 10.6599 27.3123 10.1739L27.2394 10.3601ZM26.2988 10.4973C27.5583 10.9482 28.7163 12.1192 29.5309 13.3906C29.9372 14.0248 30.2553 14.6797 30.4563 15.2751C30.6581 15.873 30.7386 16.4013 30.6805 16.7861L30.8782 16.816C30.9433 16.3853 30.8518 15.8216 30.6458 15.2112C30.4389 14.5984 30.1132 13.9288 29.6993 13.2827C28.8734 11.9937 27.6849 10.7811 26.3663 10.309L26.2988 10.4973ZM25.7651 11.0435C27.0598 11.4275 28.2016 12.6319 28.982 13.973C29.371 14.6414 29.6672 15.3388 29.846 15.9756C30.0253 16.6146 30.084 17.1838 30.0073 17.5996L30.2039 17.636C30.2886 17.1772 30.2216 16.5739 30.0385 15.9216C29.8548 15.2671 29.5516 14.5542 29.1549 13.8724C28.3638 12.513 27.1881 11.257 25.822 10.8518L25.7651 11.0435ZM25.3575 11.4509C26.6132 11.8711 27.7076 13.2235 28.4582 14.7027C28.8318 15.4391 29.1168 16.2004 29.292 16.8805C29.4678 17.5633 29.5303 18.1547 29.4678 18.5553L29.6654 18.5861C29.7342 18.1456 29.6639 17.5229 29.4856 16.8306C29.3067 16.1357 29.0164 15.3609 28.6365 14.6122C27.88 13.1213 26.7544 11.7075 25.421 11.2612L25.3575 11.4509ZM25.359 12.5403C25.9448 12.7264 26.4618 13.1412 26.9071 13.6949C27.3521 14.2482 27.7213 14.9354 28.0122 15.6562C28.595 17.1006 28.8557 18.6606 28.7931 19.5163L28.9926 19.5309C29.058 18.636 28.7881 17.0447 28.1976 15.5814C27.9019 14.8484 27.5238 14.1426 27.0629 13.5695C26.6023 12.9967 26.0549 12.5515 25.4196 12.3497L25.359 12.5403ZM25.2209 13.4921C26.432 13.9249 27.1984 15.2873 27.6421 16.7751C28.084 18.2565 28.1938 19.8222 28.1209 20.6033L28.32 20.6219C28.3955 19.8126 28.2821 18.2212 27.8338 16.7179C27.3873 15.221 26.5965 13.7713 25.2882 13.3037L25.2209 13.4921ZM24.828 14.5847C25.4277 14.7128 25.9094 15.0975 26.2941 15.6429C26.6794 16.189 26.9633 16.8907 27.1662 17.6386C27.5721 19.1346 27.6479 20.7918 27.5803 21.6941L27.7798 21.709C27.8488 20.7868 27.7717 19.1065 27.3592 17.5862C27.1529 16.8258 26.8612 16.0997 26.4576 15.5276C26.0534 14.9547 25.5328 14.5308 24.8698 14.3891L24.828 14.5847ZM24.3073 15.6758C24.9245 15.7004 25.4137 16.016 25.8016 16.5203C26.1912 17.0268 26.4745 17.7191 26.6736 18.4802C27.0716 20.002 27.1247 21.768 27.0414 22.7824L27.2407 22.7988C27.3255 21.7669 27.2719 19.9776 26.8671 18.4296C26.6647 17.6558 26.3726 16.9346 25.9601 16.3984C25.5459 15.8599 25.0062 15.5035 24.3152 15.476L24.3073 15.6758ZM23.7713 16.3565C24.376 16.3621 24.8463 16.6895 25.2126 17.2334C25.5806 17.7798 25.8369 18.5362 26.0077 19.3726C26.3491 21.0444 26.3421 23.0019 26.233 24.1423L26.4321 24.1614C26.5425 23.0071 26.55 21.0289 26.2037 19.3326C26.0306 18.4851 25.7676 17.6994 25.3785 17.1217C24.9877 16.5415 24.4631 16.1629 23.7732 16.1565L23.7713 16.3565ZM23.1146 17.172C23.653 17.0843 24.08 17.3592 24.425 17.9001C24.7717 18.4438 25.0216 19.2381 25.1972 20.1356C25.5479 21.9281 25.5952 24.0923 25.5588 25.3741L25.7588 25.3798C25.7953 24.0914 25.7483 21.9106 25.3935 20.0972C25.2164 19.1919 24.9607 18.3681 24.5936 17.7926C24.2249 17.2144 23.7298 16.8692 23.0824 16.9746L23.1146 17.172ZM22.5756 17.8526C22.8469 17.8084 23.0831 17.8646 23.293 18.0016C23.5053 18.1401 23.6947 18.3642 23.8622 18.6612C24.1976 19.2562 24.4313 20.1194 24.5903 21.0856C24.9078 23.0151 24.9215 25.3162 24.8851 26.5993L25.085 26.6049C25.1215 25.3177 25.1082 23.0016 24.7876 21.0531C24.6276 20.0803 24.3894 19.1891 24.0364 18.563C23.8596 18.2494 23.6506 17.9961 23.4023 17.8341C23.1515 17.6704 22.865 17.6029 22.5434 17.6552L22.5756 17.8526ZM21.9018 18.5333C22.1695 18.4897 22.4013 18.556 22.6075 18.7131C22.8168 18.8725 23.0022 19.1277 23.1644 19.4638C23.4889 20.1363 23.7064 21.1026 23.8487 22.1715C24.133 24.3064 24.113 26.8126 24.0766 28.0966L24.2765 28.1023C24.313 26.8161 24.3334 24.2967 24.047 22.1451C23.9039 21.0708 23.6832 20.0787 23.3445 19.3769C23.1751 19.0257 22.9726 18.7398 22.7287 18.554C22.4816 18.3658 22.1949 18.2829 21.8697 18.3359L21.9018 18.5333ZM21.3321 19.078C21.8519 19.1548 22.227 19.4451 22.5018 19.8763C22.7787 20.3108 22.9518 20.8863 23.0602 21.5216C23.2773 22.7951 23.2284 24.263 23.2681 25.2449L23.4679 25.2368C23.4292 24.2774 23.4773 22.7782 23.2573 21.488C23.1471 20.8414 22.968 20.2359 22.6705 19.7689C22.3709 19.2987 21.9493 18.967 21.3614 18.8801L21.3321 19.078ZM20.7767 19.4825C21.6637 19.7725 22.0837 20.4542 22.2668 21.0727C22.3584 21.3822 22.3896 21.6731 22.3899 21.8849C22.3901 21.9912 22.3824 22.0747 22.3719 22.1292C22.3665 22.1572 22.3612 22.1726 22.3584 22.1786C22.3569 22.1819 22.3584 22.1773 22.365 22.1705C22.3714 22.1637 22.3916 22.1461 22.4247 22.1461V22.3461C22.4663 22.3461 22.4949 22.324 22.5095 22.3087C22.5242 22.2933 22.5337 22.2761 22.5399 22.2627C22.5526 22.2354 22.5616 22.2018 22.5683 22.1671C22.582 22.096 22.5901 21.9989 22.5899 21.8846C22.5896 21.6552 22.5561 21.3452 22.4586 21.0159C22.2634 20.3567 21.8076 19.6091 20.8388 19.2924L20.7767 19.4825ZM23.2686 26.6132C23.3903 27.7063 23.2622 28.6169 23.1179 29.2355C23.0458 29.5446 22.9696 29.7808 22.9185 29.9307C22.8937 30.0034 22.8728 30.0616 22.8628 30.0934C22.8602 30.1017 22.8576 30.1107 22.8557 30.1191C22.8547 30.1232 22.8535 30.1292 22.8527 30.1359C22.8523 30.14 22.8504 30.1557 22.8549 30.1744C22.8574 30.1843 22.8635 30.2033 22.8805 30.2209C22.9001 30.2413 22.9263 30.2516 22.9522 30.2518C22.9743 30.2521 22.9909 30.245 22.9989 30.241C23.0078 30.2366 23.0143 30.2318 23.018 30.2287C23.0305 30.2187 23.0398 30.2066 23.0432 30.2021L22.8843 30.0806C22.8806 30.0855 22.8843 30.0796 22.893 30.0727C22.8958 30.0704 22.9015 30.0661 22.9095 30.0621C22.9168 30.0585 22.9327 30.0516 22.9543 30.0518C22.9796 30.0521 23.0053 30.0622 23.0246 30.0822C23.0411 30.0994 23.047 30.1178 23.0492 30.127C23.0534 30.1441 23.0515 30.1575 23.0514 30.1585C23.051 30.1621 23.0505 30.1642 23.0506 30.1638C23.0508 30.163 23.0516 30.1598 23.0537 30.153C23.0627 30.1242 23.0808 30.0744 23.1078 29.9953C23.1603 29.8415 23.2386 29.5986 23.3127 29.2809C23.4608 28.6457 23.5922 27.7117 23.4674 26.591L23.2686 26.6132ZM34.3783 14.1232C33.4072 14.5528 32.4073 15.5765 31.4247 16.8779C30.4394 18.1828 29.4611 19.7816 28.5368 21.3792L28.7099 21.4794C29.6334 19.8832 30.6067 18.2932 31.5843 16.9984C32.5644 15.7002 33.5383 14.7135 34.4592 14.3061L34.3783 14.1232ZM28.5396 21.3747C27.9056 22.3469 27.231 23.2855 26.6134 24.1598C25.9968 25.0327 25.436 25.8427 25.0338 26.5528L25.2079 26.6514C25.6043 25.9513 26.1594 25.1491 26.7768 24.2752C27.3931 23.4028 28.0705 22.4601 28.7071 21.4839L28.5396 21.3747ZM35.7247 13.851C34.7536 14.2805 33.7537 15.3042 32.7711 16.6057C31.7859 17.9106 30.8075 19.5094 29.8832 21.107L30.0564 21.2071C30.9798 19.611 31.9532 18.0209 32.9307 16.7262C33.9109 15.428 34.8848 14.4412 35.8056 14.0339L35.7247 13.851ZM29.886 21.1024C29.2557 22.069 28.0132 23.4795 26.8211 24.832C26.2266 25.5066 25.6455 26.1658 25.1631 26.7446C24.6821 27.3218 24.2941 27.825 24.0895 28.1863L24.2635 28.2849C24.4582 27.9411 24.8352 27.4505 25.3168 26.8727C25.797 26.2964 26.3761 25.6395 26.9712 24.9643C28.1585 23.6171 29.4133 22.1935 30.0536 21.2117L29.886 21.1024ZM36.669 13.7148C35.698 14.1444 34.698 15.1681 33.7154 16.4696C32.7302 17.7745 31.7519 19.3733 30.8276 20.9709L31.0007 21.071C31.9241 19.4749 32.8975 17.8848 33.8751 16.5901C34.8552 15.2918 35.8291 14.3051 36.7499 13.8977L36.669 13.7148ZM30.8303 20.9663C30.5173 21.4463 29.9163 22.1666 29.1734 23.0033C28.4317 23.8385 27.5533 24.7846 26.6887 25.7149C25.8245 26.6447 24.9739 27.559 24.2895 28.3289C23.608 29.0955 23.0827 29.7284 22.8767 30.0921L23.0508 30.1906C23.2441 29.8492 23.7534 29.233 24.439 28.4618C25.1216 27.6939 25.9704 26.7815 26.8352 25.851C27.6995 24.9211 28.5795 23.9733 29.3229 23.1361C30.065 22.3004 30.6756 21.5697 30.9979 21.0756L30.8303 20.9663ZM37.0486 13.7304C36.7249 14.0085 36.2368 14.5802 35.6529 15.3185C35.0669 16.0593 34.3785 16.9756 33.6525 17.9489C32.1994 19.8973 30.5966 22.0735 29.3554 23.5428L29.5082 23.6719C30.7544 22.1966 32.362 20.0138 33.8129 18.0685C34.5389 17.095 35.2258 16.1808 35.8097 15.4425C36.3957 14.7017 36.8722 14.1456 37.1789 13.8821L37.0486 13.7304ZM19.8996 7.04469C20.0193 8.47746 20.3074 9.40348 21.0771 10.3335C21.8393 11.2545 23.0723 12.1767 25.0612 13.6151L25.1784 13.453C23.1822 12.0094 21.9736 11.1031 21.2311 10.206C20.4961 9.31783 20.2165 8.436 20.0989 7.02803L19.8996 7.04469ZM19.9026 7.0623C20.0378 7.56538 20.4551 8.08103 20.9811 8.56781C21.51 9.05741 22.1624 9.52994 22.7878 9.94478C23.4134 10.3597 24.0156 10.7193 24.4432 10.9811C24.6581 11.1127 24.8266 11.2183 24.9335 11.2943C24.9883 11.3333 25.0205 11.36 25.0349 11.3757C25.0442 11.3858 25.0356 11.3801 25.0311 11.362C25.0282 11.3501 25.0264 11.3291 25.0371 11.3062C25.0477 11.2835 25.0647 11.2718 25.075 11.2666L25.1645 11.4454C25.1826 11.4364 25.2048 11.4197 25.2182 11.3911C25.2317 11.3623 25.2303 11.3343 25.2253 11.3143C25.2169 11.2801 25.1949 11.2543 25.1821 11.2403C25.1522 11.2078 25.1048 11.1707 25.0494 11.1313C24.9359 11.0506 24.7614 10.9415 24.5476 10.8106C24.1178 10.5473 23.52 10.1905 22.8984 9.77811C22.2765 9.36563 21.6344 8.89997 21.1169 8.42103C20.5964 7.93928 20.2155 7.45604 20.0958 7.01042L19.9026 7.0623ZM19.9004 7.05189C20.0101 7.7498 20.1747 8.28694 20.4186 8.74326C20.6628 9.20009 20.9836 9.57069 21.3988 9.93882C21.8124 10.3056 22.3229 10.6726 22.946 11.1195C23.5703 11.5674 24.3114 12.0981 25.1925 12.7957L25.3166 12.6389C24.4315 11.9381 23.6869 11.4049 23.0626 10.957C22.437 10.5083 21.9358 10.1477 21.5314 9.78918C21.1286 9.43195 20.825 9.07935 20.595 8.64899C20.3647 8.21814 20.2054 7.70413 20.098 7.02083L19.9004 7.05189ZM19.8993 7.03188C19.88 7.46318 19.8764 7.86251 19.8994 8.2391L20.099 8.2269C20.0766 7.85984 20.08 7.4681 20.0991 7.04084L19.8993 7.03188ZM19.8994 8.2391C19.9659 9.32787 20.2548 10.2226 21.0178 11.1579C21.7764 12.0879 23.0015 13.055 24.9309 14.2987L25.0392 14.1306C23.1128 12.8888 21.9104 11.9357 21.1728 11.0315C20.4395 10.1327 20.1633 9.27938 20.099 8.2269L19.8994 8.2391ZM20.6199 11.3222C21.2697 12.5473 22.447 13.7749 24.5266 15.1155L24.635 14.9474C22.5718 13.6174 21.4246 12.4126 20.7965 11.2285L20.6199 11.3222ZM20.6082 11.2742C20.6076 11.325 20.608 11.3754 20.6094 11.4255L20.8093 11.4201C20.808 11.3726 20.8076 11.3247 20.8082 11.2765L20.6082 11.2742ZM20.6094 11.4255C20.6104 11.4652 20.6121 11.5047 20.6144 11.5439L20.814 11.5325C20.8119 11.4953 20.8103 11.4578 20.8093 11.4201L20.6094 11.4255ZM20.6144 11.5439C20.6825 12.7292 21.2829 13.6852 22.0026 14.397C22.7218 15.1083 23.5663 15.5822 24.1403 15.8052L24.2127 15.6188C23.6611 15.4045 22.8407 14.9445 22.1432 14.2548C21.4463 13.5655 20.8784 12.6533 20.814 11.5325L20.6144 11.5439ZM20.6082 11.2753C20.6082 11.3254 20.6086 11.3751 20.6093 11.4243L20.8093 11.4213C20.8086 11.3731 20.8082 11.3244 20.8082 11.2753H20.6082ZM20.6093 11.4243C20.6115 11.5652 20.6168 11.7025 20.625 11.8365L20.8246 11.8243C20.8166 11.6935 20.8115 11.5591 20.8093 11.4213L20.6093 11.4243ZM20.625 11.8365C20.8187 15.0134 22.6452 16.2648 23.6149 16.4901L23.6601 16.2953C22.7822 16.0913 21.0133 14.9188 20.8246 11.8243L20.625 11.8365ZM19.8993 7.03188C19.8713 7.65655 19.8577 8.21729 19.8995 8.76479L20.0989 8.74956C20.0581 8.21483 20.0712 7.66423 20.0991 7.04084L19.8993 7.03188ZM19.8995 8.76479C19.9417 9.31729 20.0403 9.85594 20.2367 10.4352L20.4261 10.371C20.2356 9.80925 20.14 9.28725 20.0989 8.74956L19.8995 8.76479ZM20.2367 10.4352C20.3371 10.7313 20.463 11.0265 20.6199 11.3222L20.7965 11.2285C20.6448 10.9424 20.5231 10.6571 20.4261 10.371L20.2367 10.4352ZM21.652 16.174C21.6567 16.1814 21.6614 16.1888 21.6661 16.1961L21.8342 16.0878C21.8298 16.0808 21.8253 16.0739 21.8209 16.0669L21.652 16.174ZM21.6661 16.1961C22.146 16.9411 22.701 17.1971 23.1044 17.1731L23.0926 16.9735C22.7852 16.9917 22.2901 16.7954 21.8342 16.0878L21.6661 16.1961ZM20.0739 20.1346C20.4867 19.6713 21.0746 18.9189 21.4873 18.1611C21.6935 17.7825 21.8585 17.3978 21.9343 17.0443C22.0098 16.6921 21.9996 16.3562 21.8353 16.0895L21.665 16.1944C21.7907 16.3985 21.8091 16.6738 21.7387 17.0024C21.6686 17.3296 21.5133 17.6952 21.3117 18.0655C20.9087 18.8055 20.3311 19.5453 19.9246 20.0015L20.0739 20.1346ZM21.2407 15.3396C21.3672 15.6683 21.5063 15.9442 21.652 16.174L21.8209 16.0669C21.6831 15.8496 21.5497 15.5857 21.4274 15.2677L21.2407 15.3396ZM21.2343 15.2968C21.1868 15.9857 20.9271 16.664 20.642 17.2363C20.4997 17.5218 20.3519 17.7795 20.2222 17.9976C20.094 18.2134 19.9802 18.396 19.9113 18.523L20.0871 18.6183C20.1536 18.4958 20.262 18.3222 20.3942 18.0998C20.5249 17.8798 20.6756 17.6173 20.821 17.3255C21.1112 16.743 21.3837 16.0373 21.4338 15.3105L21.2343 15.2968ZM20.6082 11.277C20.6097 11.3663 20.6117 11.4543 20.6142 11.5411L20.8142 11.5353C20.8117 11.4494 20.8097 11.3622 20.8082 11.2737L20.6082 11.277ZM20.6142 11.5411C20.6171 11.6406 20.6207 11.7385 20.6249 11.8348L20.8247 11.8261C20.8205 11.7308 20.817 11.6339 20.8142 11.5353L20.6142 11.5411ZM20.6249 11.8348C20.6454 12.3074 20.6814 12.7408 20.7302 13.1379L20.9288 13.1134C20.8806 12.7221 20.845 12.2939 20.8247 11.8261L20.6249 11.8348ZM20.7302 13.1379C20.773 13.4853 20.8255 13.805 20.8862 14.0987L21.0821 14.0583C21.0226 13.7702 20.9709 13.4559 20.9288 13.1134L20.7302 13.1379ZM20.8862 14.0987C20.9852 14.5782 21.1058 14.9891 21.2407 15.3396L21.4274 15.2677C21.2969 14.9287 21.1792 14.5285 21.0821 14.0583L20.8862 14.0987ZM20.8848 14.0668C20.7477 15.2307 20.0645 15.9184 19.9298 16.0485L20.0687 16.1924C20.2159 16.0502 20.9383 15.3221 21.0834 14.0902L20.8848 14.0668ZM20.7307 13.1102C20.6652 13.5289 20.481 13.8471 20.3115 14.0272C20.2251 14.1191 20.1502 14.1669 20.1044 14.181C20.0815 14.1881 20.0784 14.183 20.0858 14.1863C20.0981 14.1917 20.0987 14.2014 20.0968 14.193L19.9016 14.2363C19.914 14.2924 19.947 14.3438 20.0056 14.3695C20.0592 14.3929 20.1162 14.3866 20.1632 14.3722C20.2569 14.3433 20.3604 14.2672 20.4572 14.1643C20.6543 13.9547 20.8566 13.5995 20.9283 13.1411L20.7307 13.1102ZM19.8992 7.03636V8.233H20.0992V7.03636H19.8992ZM19.8992 8.233V8.75717H20.0992V8.233H19.8992ZM19.8992 8.75717V12.5811H20.0992V8.75717H19.8992ZM19.8992 12.5811V14.2147H20.0992V12.5811H19.8992ZM19.8992 14.2147V16.1204H20.0992V14.2147H19.8992ZM19.8992 16.1204V18.5707H20.0992V16.1204H19.8992ZM19.8992 18.5707V20.0681H20.0992V18.5707H19.8992ZM20.6109 11.2522C20.4629 11.8753 20.3231 12.2368 20.2095 12.4167C20.1507 12.5097 20.1106 12.5353 20.0964 12.5398C20.0933 12.5407 20.0952 12.5398 20.0974 12.5408C20.0975 12.5408 20.0912 12.538 20.0809 12.5234L19.9175 12.6389C19.9417 12.6731 19.9741 12.705 20.0168 12.7238C20.0615 12.7435 20.1098 12.7452 20.1564 12.7306C20.2417 12.7038 20.3144 12.6251 20.3786 12.5235C20.5108 12.3141 20.6566 11.9253 20.8055 11.2985L20.6109 11.2522ZM19.9992 21.0209C19.9433 21.1039 19.9433 21.1039 19.9433 21.1039C19.9433 21.1039 19.9433 21.1039 19.9434 21.1039C19.9434 21.1039 19.9434 21.1039 19.9434 21.1039C19.9435 21.104 19.9437 21.1041 19.9438 21.1042C19.9442 21.1045 19.9447 21.1048 19.9455 21.1053C19.9469 21.1063 19.9491 21.1078 19.952 21.1097C19.9578 21.1137 19.9663 21.1195 19.9774 21.1271C19.9996 21.1423 20.0318 21.1645 20.0718 21.1924C20.152 21.2484 20.2633 21.3275 20.3881 21.4196C20.6388 21.6045 20.94 21.8395 21.1524 22.0456L21.2917 21.9021C21.0691 21.6861 20.7589 21.4446 20.5069 21.2586C20.3804 21.1653 20.2676 21.0852 20.1864 21.0285C20.1458 21.0001 20.1131 20.9776 20.0904 20.9621C20.0791 20.9543 20.0703 20.9483 20.0644 20.9443C20.0614 20.9422 20.0591 20.9407 20.0575 20.9396C20.0567 20.9391 20.0561 20.9387 20.0557 20.9384C20.0555 20.9383 20.0554 20.9382 20.0553 20.9381C20.0552 20.9381 20.0552 20.9381 20.0551 20.938C20.0551 20.938 20.0551 20.938 20.0551 20.938C20.0551 20.938 20.0551 20.938 19.9992 21.0209ZM21.1524 22.0456C22.4861 23.3399 22.9642 25.1239 23.271 26.354L23.465 26.3056C23.1589 25.0781 22.6709 23.2405 21.2917 21.9021L21.1524 22.0456ZM19.9992 21.9738C19.936 22.0513 19.936 22.0513 19.936 22.0513C19.936 22.0513 19.936 22.0513 19.9361 22.0514C19.9361 22.0514 19.9361 22.0514 19.9362 22.0515C19.9363 22.0516 19.9365 22.0517 19.9368 22.0519C19.9373 22.0524 19.9382 22.0531 19.9393 22.054C19.9415 22.0558 19.9448 22.0585 19.9491 22.0621C19.9578 22.0693 19.9708 22.08 19.9874 22.0939C20.0208 22.1218 20.0692 22.1626 20.1291 22.214C20.2489 22.317 20.4144 22.4625 20.5972 22.6328C20.9643 22.9747 21.3958 23.4112 21.6691 23.8009L21.8329 23.686C21.5469 23.2783 21.1024 22.83 20.7335 22.4864C20.5483 22.3139 20.3807 22.1666 20.2595 22.0624C20.1988 22.0102 20.1497 21.9688 20.1156 21.9404C20.0986 21.9262 20.0854 21.9152 20.0764 21.9078C20.0719 21.9041 20.0684 21.9012 20.0661 21.8993C20.0649 21.8983 20.064 21.8976 20.0634 21.8971C20.0631 21.8969 20.0628 21.8967 20.0627 21.8965C20.0626 21.8965 20.0625 21.8964 20.0625 21.8964C20.0625 21.8964 20.0624 21.8963 20.0624 21.8963C20.0624 21.8963 20.0624 21.8963 19.9992 21.9738ZM21.6691 23.8009C22.1268 24.4533 22.4596 25.292 22.6611 26.0711C22.8633 26.8531 22.9291 27.5593 22.8651 27.9471L23.0624 27.9796C23.1332 27.5506 23.0593 26.8122 22.8547 26.0211C22.6494 25.2271 22.3085 24.3641 21.8329 23.686L21.6691 23.8009ZM19.9992 23.0628C19.9329 23.1377 19.9329 23.1377 19.9329 23.1377C19.9329 23.1377 19.9329 23.1377 19.933 23.1377C19.933 23.1378 19.933 23.1378 19.9331 23.1379C19.9333 23.138 19.9335 23.1382 19.9338 23.1384C19.9344 23.139 19.9353 23.1398 19.9365 23.1409C19.9389 23.143 19.9425 23.1463 19.9473 23.1506C19.9569 23.1592 19.9711 23.172 19.9894 23.1886C20.0259 23.2219 20.0787 23.2705 20.1434 23.3317C20.273 23.4539 20.4501 23.626 20.6406 23.8251C21.0241 24.2259 21.4524 24.7269 21.6614 25.1491L21.8406 25.0604C21.6169 24.6084 21.1693 24.0884 20.7851 23.6868C20.5917 23.4847 20.4121 23.3102 20.2807 23.1862C20.215 23.1242 20.1614 23.0748 20.1241 23.0408C20.1054 23.0238 20.0909 23.0107 20.0809 23.0017C20.076 22.9973 20.0721 22.9939 20.0695 22.9915C20.0683 22.9904 20.0673 22.9895 20.0666 22.9889C20.0662 22.9886 20.066 22.9884 20.0658 22.9882C20.0657 22.9881 20.0656 22.9881 20.0656 22.988C20.0656 22.988 20.0655 22.988 20.0655 22.988C20.0655 22.988 20.0655 22.988 19.9992 23.0628ZM21.6614 25.1491C21.9912 25.8154 22.1914 26.6877 22.2918 27.4992C22.3923 28.3113 22.3913 29.0494 22.3261 29.4445L22.5234 29.477C22.593 29.0554 22.5919 28.296 22.4903 27.4746C22.3886 26.6526 22.1846 25.7552 21.8406 25.0604L21.6614 25.1491ZM19.9992 24.288C19.9241 24.354 19.9241 24.354 19.9241 24.354C19.9241 24.354 19.9242 24.354 19.9242 24.354C19.9242 24.3541 19.9242 24.3541 19.9243 24.3542C19.9244 24.3543 19.9246 24.3545 19.9248 24.3548C19.9253 24.3553 19.926 24.3562 19.927 24.3573C19.929 24.3596 19.932 24.363 19.9359 24.3675C19.9438 24.3766 19.9554 24.39 19.9704 24.4075C20.0003 24.4425 20.0436 24.4936 20.0969 24.558C20.2036 24.6869 20.35 24.8686 20.5088 25.0798C20.828 25.504 21.1923 26.0404 21.3894 26.505L21.5735 26.4269C21.3664 25.9387 20.9896 25.3861 20.6687 24.9595C20.5075 24.7453 20.3591 24.5612 20.251 24.4305C20.1969 24.3652 20.1529 24.3132 20.1223 24.2774C20.107 24.2596 20.0951 24.2458 20.0869 24.2364C20.0829 24.2317 20.0797 24.2281 20.0776 24.2257C20.0765 24.2245 20.0757 24.2235 20.0752 24.2229C20.0749 24.2226 20.0747 24.2223 20.0745 24.2222C20.0745 24.2221 20.0744 24.222 20.0744 24.222C20.0743 24.222 20.0743 24.2219 20.0743 24.2219C20.0743 24.2219 20.0743 24.2219 19.9992 24.288ZM21.3894 26.505C21.9726 27.8796 21.9202 29.7263 21.7871 30.5335L21.9844 30.566C22.1207 29.7397 22.1773 27.8501 21.5735 26.4269L21.3894 26.505ZM20.0003 25.6492C19.9132 25.6984 19.9132 25.6984 19.9132 25.6984C19.9132 25.6985 19.9132 25.6985 19.9132 25.6985C19.9133 25.6985 19.9133 25.6986 19.9133 25.6986C19.9134 25.6988 19.9135 25.699 19.9137 25.6993C19.9141 25.6999 19.9146 25.7009 19.9153 25.7021C19.9167 25.7046 19.9188 25.7083 19.9215 25.7132C19.9271 25.7231 19.9352 25.7377 19.9457 25.7567C19.9668 25.7948 19.9973 25.8503 20.0349 25.92C20.1102 26.0594 20.2139 26.2556 20.3277 26.4823C20.5558 26.9369 20.8224 27.5101 20.9823 27.9947L21.1722 27.932C21.0076 27.4331 20.7356 26.8492 20.5064 26.3926C20.3916 26.1637 20.2869 25.9658 20.2109 25.825C20.1729 25.7546 20.1421 25.6985 20.1207 25.6599C20.11 25.6406 20.1017 25.6257 20.0961 25.6156C20.0932 25.6105 20.0911 25.6066 20.0896 25.604C20.0889 25.6027 20.0883 25.6017 20.0879 25.6011C20.0877 25.6007 20.0876 25.6005 20.0875 25.6003C20.0874 25.6002 20.0874 25.6001 20.0874 25.6001C20.0873 25.6001 20.0873 25.6 20.0873 25.6C20.0873 25.6 20.0873 25.6 20.0003 25.6492ZM20.9823 27.9947C21.3805 29.2015 21.3808 30.6821 21.2481 31.4863L21.4454 31.5189C21.5822 30.6896 21.5825 29.1755 21.1722 27.932L20.9823 27.9947ZM20.0003 27.1466C19.9106 27.1909 19.9106 27.1909 19.9106 27.1909C19.9106 27.1909 19.9106 27.1909 19.9106 27.1909C19.9106 27.1909 19.9107 27.191 19.9107 27.1911C19.9108 27.1912 19.9109 27.1914 19.911 27.1917C19.9113 27.1923 19.9118 27.1933 19.9124 27.1945C19.9136 27.197 19.9154 27.2008 19.9179 27.2058C19.9227 27.2157 19.9299 27.2306 19.9391 27.2501C19.9575 27.2889 19.984 27.3457 20.0163 27.4174C20.0809 27.5608 20.1685 27.7633 20.2602 27.9996C20.4444 28.4737 20.6426 29.0771 20.7085 29.6091L20.907 29.5846C20.8381 29.0276 20.6326 28.4059 20.4467 27.9272C20.3534 27.687 20.2644 27.4811 20.1987 27.3352C20.1658 27.2623 20.1387 27.2042 20.1198 27.1644C20.1103 27.1444 20.1029 27.129 20.0978 27.1185C20.0953 27.1133 20.0934 27.1093 20.092 27.1066C20.0914 27.1052 20.0908 27.1042 20.0905 27.1035C20.0903 27.1031 20.0902 27.1028 20.0901 27.1026C20.09 27.1025 20.09 27.1025 20.09 27.1024C20.09 27.1024 20.0899 27.1023 20.0899 27.1023C20.0899 27.1023 20.0899 27.1023 20.0003 27.1466ZM20.7085 29.6091C20.865 30.8737 20.7096 31.3471 20.5743 32.167L20.7716 32.1995C20.9059 31.3859 21.0676 30.8829 20.907 29.5846L20.7085 29.6091Z" fill="currentColor"/>
</svg>
