<svg width="24" height="24" viewBox="0 0 24 24" fill="none" xmlns="http://www.w3.org/2000/svg">
<path d="M9 3V2.75L8.75 3H9ZM15 3H15.25L15 2.75V3ZM9 21H8.75L9 21.25V21ZM15 21V21.25L15.25 21H15ZM21 9H21.25V8.75H21V9ZM3 9V8.75H2.75V9H3ZM5 10V9.75H4.75V10H5ZM10 4.5V4.25H9.75V4.5H10ZM14 4.5H14.25V4.25H14V4.5ZM19 10H19.25V9.75H19V10ZM21 15V15.25H21.25V15H21ZM3 15H2.75V15.25H3V15ZM5 14H4.75V14.25H5V14ZM10 19.5H9.75V19.75H10V19.5ZM14 19.5V19.75H14.25V19.5H14ZM19 14V14.25H19.25V14H19ZM9 3.25H15V2.75H9V3.25ZM9 21.25H15V20.75H9V21.25ZM14.75 3C14.75 5.03854 15.2598 6.61336 16.3232 7.67678C17.3866 8.7402 18.9615 9.25 21 9.25V8.75C19.0385 8.75 17.6134 8.2598 16.6768 7.32322C15.7402 6.38664 15.25 4.96146 15.25 3H14.75ZM8.75 3C8.75 4.96146 8.2598 6.38664 7.32322 7.32322C6.38664 8.2598 4.96146 8.75 3 8.75V9.25C5.03854 9.25 6.61336 8.7402 7.67678 7.67678C8.7402 6.61336 9.25 5.03854 9.25 3H8.75ZM5 10.25C6.55738 10.25 7.87792 9.72934 8.80776 8.73308C9.73599 7.73855 10.25 6.29692 10.25 4.5H9.75C9.75 6.20308 9.26401 7.51145 8.44224 8.39192C7.62208 9.27066 6.44262 9.75 5 9.75V10.25ZM10 4.75H14V4.25H10V4.75ZM13.75 4.5C13.75 5.94071 14.1354 7.37522 14.9916 8.4553C15.8541 9.54345 17.178 10.25 19 10.25V9.75C17.322 9.75 16.1459 9.10655 15.3834 8.1447C14.6146 7.17478 14.25 5.85929 14.25 4.5H13.75ZM15.25 21C15.25 19.0385 15.7402 17.6134 16.6768 16.6768C17.6134 15.7402 19.0385 15.25 21 15.25V14.75C18.9615 14.75 17.3866 15.2598 16.3232 16.3232C15.2598 17.3866 14.75 18.9615 14.75 21H15.25ZM9.25 21C9.25 18.9615 8.7402 17.3866 7.67678 16.3232C6.61336 15.2598 5.03854 14.75 3 14.75V15.25C4.96146 15.25 6.38664 15.7402 7.32322 16.6768C8.2598 17.6134 8.75 19.0385 8.75 21H9.25ZM5 14.25C6.44262 14.25 7.62208 14.7293 8.44224 15.6081C9.26401 16.4885 9.75 17.7969 9.75 19.5H10.25C10.25 17.7031 9.73599 16.2615 8.80776 15.2669C7.87792 14.2707 6.55738 13.75 5 13.75V14.25ZM10 19.75H14V19.25H10V19.75ZM14.25 19.5C14.25 18.1407 14.6146 16.8252 15.3834 15.8553C16.1459 14.8935 17.322 14.25 19 14.25V13.75C17.178 13.75 15.8541 14.4565 14.9916 15.5447C14.1354 16.6248 13.75 18.0593 13.75 19.5H14.25ZM20.75 9V15H21.25V9H20.75ZM2.75 9V15H3.25V9H2.75ZM18.75 10V14H19.25V10H18.75ZM4.75 10V14H5.25V10H4.75Z" fill="white"/>
</svg>
