<svg width="24" height="24" viewBox="0 0 24 24" fill="none" xmlns="http://www.w3.org/2000/svg">
<path d="M10.5 5C10.5 8.5 8.5 10.5 5.5 10.5V13.5C8.5 13.5 10.5 15.5 10.5 19H13.5C13.5 16.2 15 13.5 18.5 13.5V10.5C15 10.5 13.5 7.8 13.5 5H10.5Z" fill="white"/>
<path d="M9 3V2.75L8.75 3H9ZM15 3H15.25L15 2.75V3ZM9 21H8.75L9 21.25V21ZM15 21V21.25L15.25 21H15ZM21 9H21.25V8.75H21V9ZM3 9V8.75H2.75V9H3ZM21 15V15.25H21.25V15H21ZM3 15H2.75V15.25H3V15ZM5.5 10.5V10.25H5.25V10.5H5.5ZM10.5 5V4.75H10.25V5H10.5ZM13.5 5H13.75V4.75H13.5V5ZM18.5 10.5H18.75V10.25H18.5V10.5ZM5.5 13.5H5.25V13.75H5.5V13.5ZM10.5 19H10.25V19.25H10.5V19ZM13.5 19V19.25H13.75V19H13.5ZM18.5 13.5V13.75H18.75V13.5H18.5ZM9 3.25H15V2.75H9V3.25ZM9 21.25H15V20.75H9V21.25ZM14.75 3C14.75 5.03854 15.2598 6.61336 16.3232 7.67678C17.3866 8.7402 18.9615 9.25 21 9.25V8.75C19.0385 8.75 17.6134 8.2598 16.6768 7.32322C15.7402 6.38664 15.25 4.96146 15.25 3H14.75ZM8.75 3C8.75 4.96146 8.2598 6.38664 7.32322 7.32322C6.38664 8.2598 4.96146 8.75 3 8.75V9.25C5.03854 9.25 6.61336 8.7402 7.67678 7.67678C8.7402 6.61336 9.25 5.03854 9.25 3H8.75ZM15.25 21C15.25 19.0385 15.7402 17.6134 16.6768 16.6768C17.6134 15.7402 19.0385 15.25 21 15.25V14.75C18.9615 14.75 17.3866 15.2598 16.3232 16.3232C15.2598 17.3866 14.75 18.9615 14.75 21H15.25ZM9.25 21C9.25 18.9615 8.7402 17.3866 7.67678 16.3232C6.61336 15.2598 5.03854 14.75 3 14.75V15.25C4.96146 15.25 6.38664 15.7402 7.32322 16.6768C8.2598 17.6134 8.75 19.0385 8.75 21H9.25ZM2.75 9V15H3.25V9H2.75ZM5.5 10.75C7.05738 10.75 8.37792 10.2293 9.30776 9.23308C10.236 8.23855 10.75 6.79692 10.75 5H10.25C10.25 6.70308 9.76401 8.01145 8.94224 8.89192C8.12208 9.77066 6.94262 10.25 5.5 10.25V10.75ZM10.5 5.25H13.5V4.75H10.5V5.25ZM13.25 5C13.25 6.44071 13.6354 7.87522 14.4916 8.9553C15.3541 10.0435 16.678 10.75 18.5 10.75V10.25C16.822 10.25 15.6459 9.60655 14.8834 8.6447C14.1146 7.67478 13.75 6.35929 13.75 5H13.25ZM5.5 13.75C6.94262 13.75 8.12208 14.2293 8.94224 15.1081C9.76401 15.9885 10.25 17.2969 10.25 19H10.75C10.75 17.2031 10.236 15.7615 9.30776 14.7669C8.37792 13.7707 7.05738 13.25 5.5 13.25V13.75ZM13.75 19C13.75 17.6407 14.1146 16.3252 14.8834 15.3553C15.6459 14.3935 16.822 13.75 18.5 13.75V13.25C16.678 13.25 15.3541 13.9565 14.4916 15.0447C13.6354 16.1248 13.25 17.5593 13.25 19H13.75ZM5.25 10.5V13.5H5.75V10.5H5.25ZM10.5 19.25H13.5V18.75H10.5V19.25ZM18.25 10.5V13.5H18.75V10.5H18.25ZM20.75 9V12H21.25V9H20.75ZM20.75 12V15H21.25V12H20.75Z" fill="white"/>
</svg>
